font.ufo
<glyph name="exclam" format="1">
  <advance width="387"/>
  <unicode hex="0021"/>
  <outline>
    <contour>
      <point x="244" y="69" type="curve" smooth="yes"/>
      <point x="244" y="28"/>
      <point x="207" y="-10"/>
      <point x="167" y="-10" type="curve" smooth="yes"/>
      <point x="132" y="-10"/>
      <point x="110" y="14"/>
      <point x="110" y="46" type="curve" smooth="yes"/>
      <point x="110" y="88"/>
      <point x="149" y="124"/>
      <point x="189" y="124" type="curve" smooth="yes"/>
      <point x="222" y="124"/>
      <point x="244" y="101"/>
    </contour>
    <contour>
      <point x="207" y="317" type="line"/>
      <point x="202" y="267"/>
      <point x="203" y="237"/>
      <point x="210" y="211" type="curve"/>
      <point x="202" y="202"/>
      <point x="194" y="196"/>
      <point x="180" y="196" type="curve" smooth="yes"/>
      <point x="150" y="196"/>
      <point x="135" y="221"/>
      <point x="130" y="270" type="curve" smooth="yes"/>
      <point x="109" y="668" type="line"/>
      <point x="102" y="739"/>
      <point x="131" y="778"/>
      <point x="171" y="778" type="curve" smooth="yes"/>
      <point x="211" y="778"/>
      <point x="243" y="739"/>
      <point x="234" y="668" type="curve" smooth="yes"/>
    </contour>
  </outline>
</glyph>
<glyph name="quotedbl" format="1">
  <advance width="374"/>
  <unicode hex="0022"/>
  <outline>
    <contour>
      <point x="153" y="829" type="curve" smooth="yes"/>
      <point x="153" y="878"/>
      <point x="138" y="912"/>
      <point x="100" y="912" type="curve" smooth="yes"/>
      <point x="66" y="912"/>
      <point x="50" y="878"/>
      <point x="50" y="830" type="curve" smooth="yes"/>
      <point x="50" y="735"/>
      <point x="76" y="595"/>
      <point x="101" y="595" type="curve" smooth="yes"/>
      <point x="128" y="595"/>
      <point x="153" y="735"/>
    </contour>
    <contour>
      <point x="324" y="829" type="curve" smooth="yes"/>
      <point x="324" y="878"/>
      <point x="309" y="912"/>
      <point x="272" y="912" type="curve" smooth="yes"/>
      <point x="237" y="912"/>
      <point x="221" y="878"/>
      <point x="221" y="830" type="curve" smooth="yes"/>
      <point x="221" y="735"/>
      <point x="248" y="595"/>
      <point x="273" y="595" type="curve" smooth="yes"/>
      <point x="300" y="595"/>
      <point x="324" y="735"/>
    </contour>
  </outline>
</glyph>
<glyph name="numbersign" format="1">
  <advance width="812"/>
  <unicode hex="0023"/>
  <outline>
    <contour>
      <point x="386" y="731" type="curve" smooth="yes"/>
      <point x="341" y="731"/>
      <point x="315" y="704"/>
      <point x="299" y="648" type="curve" smooth="yes"/>
      <point x="130" y="74" type="line" smooth="yes"/>
      <point x="122" y="48"/>
      <point x="110" y="34"/>
      <point x="89" y="26" type="curve"/>
      <point x="98" y="6"/>
      <point x="109" y="-9"/>
      <point x="137" y="-9" type="curve" smooth="yes"/>
      <point x="182" y="-9"/>
      <point x="211" y="19"/>
      <point x="227" y="75" type="curve" smooth="yes"/>
      <point x="397" y="649" type="line" smooth="yes"/>
      <point x="405" y="674"/>
      <point x="418" y="688"/>
      <point x="438" y="696" type="curve"/>
      <point x="430" y="716"/>
      <point x="413" y="731"/>
    </contour>
    <contour>
      <point x="664" y="731" type="curve" smooth="yes"/>
      <point x="618" y="731"/>
      <point x="594" y="704"/>
      <point x="576" y="648" type="curve" smooth="yes"/>
      <point x="408" y="74" type="line" smooth="yes"/>
      <point x="399" y="48"/>
      <point x="387" y="34"/>
      <point x="367" y="26" type="curve"/>
      <point x="375" y="6"/>
      <point x="386" y="-9"/>
      <point x="414" y="-9" type="curve" smooth="yes"/>
      <point x="459" y="-9"/>
      <point x="489" y="19"/>
      <point x="506" y="75" type="curve" smooth="yes"/>
      <point x="674" y="649" type="line" smooth="yes"/>
      <point x="682" y="674"/>
      <point x="695" y="688"/>
      <point x="716" y="696" type="curve"/>
      <point x="708" y="716"/>
      <point x="690" y="731"/>
    </contour>
    <contour>
      <point x="669" y="229" type="curve" smooth="yes"/>
      <point x="669" y="237"/>
      <point x="666" y="245"/>
      <point x="663" y="252" type="curve"/>
      <point x="154" y="252" type="line" smooth="yes"/>
      <point x="94" y="252"/>
      <point x="58" y="234"/>
      <point x="58" y="201" type="curve" smooth="yes"/>
      <point x="58" y="192"/>
      <point x="61" y="184"/>
      <point x="64" y="177" type="curve"/>
      <point x="573" y="177" type="line" smooth="yes"/>
      <point x="634" y="177"/>
      <point x="669" y="196"/>
    </contour>
    <contour>
      <point x="754" y="521" type="curve" smooth="yes"/>
      <point x="754" y="530"/>
      <point x="752" y="538"/>
      <point x="748" y="545" type="curve"/>
      <point x="239" y="545" type="line" smooth="yes"/>
      <point x="179" y="545"/>
      <point x="144" y="526"/>
      <point x="144" y="493" type="curve" smooth="yes"/>
      <point x="144" y="484"/>
      <point x="146" y="476"/>
      <point x="150" y="469" type="curve"/>
      <point x="658" y="469" type="line" smooth="yes"/>
      <point x="720" y="469"/>
      <point x="754" y="487"/>
    </contour>
  </outline>
</glyph>
<glyph name="dollar" format="1">
  <advance width="634"/>
  <unicode hex="0024"/>
  <outline>
    <contour>
      <point x="293" y="700" type="line"/>
      <point x="293" y="788" type="line" smooth="yes"/>
      <point x="293" y="814"/>
      <point x="284" y="828"/>
      <point x="266" y="836" type="curve"/>
      <point x="280" y="856"/>
      <point x="301" y="871"/>
      <point x="330" y="871" type="curve" smooth="yes"/>
      <point x="376" y="871"/>
      <point x="398" y="844"/>
      <point x="398" y="788" type="curve" smooth="yes"/>
      <point x="398" y="700" type="line"/>
    </contour>
    <contour>
      <point x="368" y="35" type="line"/>
      <point x="368" y="-63" type="line" smooth="yes"/>
      <point x="368" y="-89"/>
      <point x="376" y="-102"/>
      <point x="395" y="-111" type="curve"/>
      <point x="381" y="-131"/>
      <point x="360" y="-146"/>
      <point x="331" y="-146" type="curve" smooth="yes"/>
      <point x="285" y="-146"/>
      <point x="263" y="-118"/>
      <point x="263" y="-62" type="curve" smooth="yes"/>
      <point x="263" y="35" type="line"/>
    </contour>
    <component base="S"/>
  </outline>
</glyph>
<glyph name="percent" format="1">
  <advance width="878"/>
  <unicode hex="0025"/>
  <outline>
    <contour>
      <point x="215" y="330" type="curve" smooth="yes"/>
      <point x="320" y="330"/>
      <point x="388" y="436"/>
      <point x="388" y="546" type="curve" smooth="yes"/>
      <point x="388" y="642"/>
      <point x="335" y="731"/>
      <point x="242" y="731" type="curve" smooth="yes"/>
      <point x="137" y="731"/>
      <point x="75" y="622"/>
      <point x="75" y="516" type="curve" smooth="yes"/>
      <point x="75" y="417"/>
      <point x="126" y="330"/>
    </contour>
    <contour>
      <point x="232" y="658" type="curve" smooth="yes"/>
      <point x="279" y="658"/>
      <point x="305" y="596"/>
      <point x="305" y="532" type="curve" smooth="yes"/>
      <point x="305" y="456"/>
      <point x="272" y="402"/>
      <point x="230" y="402" type="curve" smooth="yes"/>
      <point x="183" y="402"/>
      <point x="155" y="463"/>
      <point x="155" y="529" type="curve" smooth="yes"/>
      <point x="155" y="602"/>
      <point x="187" y="658"/>
    </contour>
    <contour>
      <point x="183" y="56" type="line"/>
      <point x="173" y="41"/>
      <point x="155" y="21"/>
      <point x="147" y="16" type="curve"/>
      <point x="161" y="-8"/>
      <point x="181" y="-10"/>
      <point x="191" y="-10" type="curve" smooth="yes"/>
      <point x="218" y="-10"/>
      <point x="236" y="15"/>
      <point x="249" y="33" type="curve" smooth="yes"/>
      <point x="696" y="667" type="line" smooth="yes"/>
      <point x="707" y="682"/>
      <point x="720" y="701"/>
      <point x="732" y="706" type="curve"/>
      <point x="718" y="727"/>
      <point x="699" y="731"/>
      <point x="688" y="731" type="curve" smooth="yes"/>
      <point x="660" y="731"/>
      <point x="639" y="703"/>
      <point x="629" y="690" type="curve" smooth="yes"/>
    </contour>
    <contour>
      <point x="630" y="-9" type="curve" smooth="yes"/>
      <point x="735" y="-9"/>
      <point x="802" y="97"/>
      <point x="802" y="208" type="curve" smooth="yes"/>
      <point x="802" y="303"/>
      <point x="750" y="393"/>
      <point x="657" y="393" type="curve" smooth="yes"/>
      <point x="551" y="393"/>
      <point x="489" y="282"/>
      <point x="489" y="177" type="curve" smooth="yes"/>
      <point x="489" y="78"/>
      <point x="540" y="-9"/>
    </contour>
    <contour>
      <point x="647" y="319" type="curve" smooth="yes"/>
      <point x="693" y="319"/>
      <point x="719" y="257"/>
      <point x="719" y="192" type="curve" smooth="yes"/>
      <point x="719" y="116"/>
      <point x="687" y="63"/>
      <point x="645" y="63" type="curve" smooth="yes"/>
      <point x="598" y="63"/>
      <point x="569" y="124"/>
      <point x="569" y="190" type="curve" smooth="yes"/>
      <point x="569" y="263"/>
      <point x="601" y="319"/>
    </contour>
  </outline>
</glyph>
<glyph name="ampersand" format="1">
  <advance width="743"/>
  <unicode hex="0026"/>
  <outline>
    <contour>
      <point x="320" y="448" type="curve"/>
      <point x="232" y="448"/>
      <point x="180" y="493"/>
      <point x="180" y="568" type="curve" smooth="yes"/>
      <point x="180" y="628"/>
      <point x="217" y="671"/>
      <point x="266" y="671" type="curve" smooth="yes"/>
      <point x="315" y="671"/>
      <point x="341" y="645"/>
      <point x="345" y="581" type="curve"/>
      <point x="398" y="565"/>
      <point x="441" y="592"/>
      <point x="441" y="634" type="curve" smooth="yes"/>
      <point x="441" y="690"/>
      <point x="381" y="732"/>
      <point x="295" y="732" type="curve" smooth="yes"/>
      <point x="194" y="732"/>
      <point x="92" y="650"/>
      <point x="92" y="527" type="curve" smooth="yes"/>
      <point x="92" y="433"/>
      <point x="151" y="365"/>
      <point x="253" y="365" type="curve" smooth="yes"/>
      <point x="324" y="365"/>
      <point x="344" y="416"/>
    </contour>
    <contour>
      <point x="209" y="395" type="line"/>
      <point x="136" y="360"/>
      <point x="68" y="300"/>
      <point x="68" y="204" type="curve" smooth="yes"/>
      <point x="68" y="80"/>
      <point x="174" y="-9"/>
      <point x="340" y="-9" type="curve" smooth="yes"/>
      <point x="496" y="-9"/>
      <point x="613" y="101"/>
      <point x="613" y="239" type="curve" smooth="yes"/>
      <point x="613" y="293"/>
      <point x="600" y="333"/>
      <point x="573" y="373" type="curve"/>
      <point x="529" y="354" type="line"/>
      <point x="584" y="354" type="line" smooth="yes"/>
      <point x="695" y="354"/>
      <point x="745" y="398"/>
      <point x="745" y="462" type="curve" smooth="yes"/>
      <point x="745" y="515"/>
      <point x="696" y="560"/>
      <point x="625" y="525" type="curve"/>
      <point x="637" y="460"/>
      <point x="619" y="416"/>
      <point x="506" y="416" type="curve" smooth="yes"/>
      <point x="445" y="416"/>
      <point x="430" y="385"/>
      <point x="448" y="349" type="curve"/>
      <point x="518" y="349"/>
      <point x="548" y="304"/>
      <point x="548" y="238" type="curve" smooth="yes"/>
      <point x="548" y="144"/>
      <point x="455" y="85"/>
      <point x="356" y="85" type="curve" smooth="yes"/>
      <point x="241" y="85"/>
      <point x="167" y="141"/>
      <point x="167" y="234" type="curve" smooth="yes"/>
      <point x="167" y="297"/>
      <point x="202" y="353"/>
      <point x="261" y="382" type="curve"/>
    </contour>
  </outline>
</glyph>
<glyph name="quotesingle" format="1">
  <advance width="202"/>
  <unicode hex="0027"/>
  <outline>
    <contour>
      <point x="154" y="799" type="curve" smooth="yes"/>
      <point x="154" y="846"/>
      <point x="138" y="881"/>
      <point x="100" y="881" type="curve" smooth="yes"/>
      <point x="66" y="881"/>
      <point x="48" y="846"/>
      <point x="48" y="799" type="curve" smooth="yes"/>
      <point x="48" y="716"/>
      <point x="76" y="595"/>
      <point x="101" y="595" type="curve" smooth="yes"/>
      <point x="128" y="595"/>
      <point x="154" y="715"/>
    </contour>
  </outline>
</glyph>
<glyph name="parenleft" format="1">
  <advance width="474"/>
  <unicode hex="0028"/>
  <outline>
    <contour>
      <point x="444" y="826" type="curve"/>
      <point x="438" y="839"/>
      <point x="421" y="846"/>
      <point x="405" y="846" type="curve" smooth="yes"/>
      <point x="321" y="846"/>
      <point x="107" y="589"/>
      <point x="107" y="281" type="curve" smooth="yes"/>
      <point x="107" y="-37"/>
      <point x="324" y="-284"/>
      <point x="405" y="-284" type="curve" smooth="yes"/>
      <point x="422" y="-284"/>
      <point x="438" y="-277"/>
      <point x="444" y="-263" type="curve"/>
      <point x="339" y="-158"/>
      <point x="215" y="10"/>
      <point x="215" y="281" type="curve" smooth="yes"/>
      <point x="215" y="553"/>
      <point x="339" y="719"/>
    </contour>
  </outline>
</glyph>
<glyph name="parenright" format="1">
  <advance width="474"/>
  <unicode hex="0029"/>
  <outline>
    <contour>
      <point x="376" y="281" type="curve" smooth="yes"/>
      <point x="376" y="589"/>
      <point x="163" y="846"/>
      <point x="79" y="846" type="curve" smooth="yes"/>
      <point x="62" y="846"/>
      <point x="46" y="839"/>
      <point x="39" y="826" type="curve"/>
      <point x="144" y="719"/>
      <point x="269" y="553"/>
      <point x="269" y="281" type="curve" smooth="yes"/>
      <point x="269" y="10"/>
      <point x="144" y="-158"/>
      <point x="39" y="-263" type="curve"/>
      <point x="46" y="-277"/>
      <point x="61" y="-284"/>
      <point x="79" y="-284" type="curve" smooth="yes"/>
      <point x="160" y="-284"/>
      <point x="376" y="-37"/>
    </contour>
  </outline>
</glyph>
<glyph name="asterisk" format="1">
  <advance width="580"/>
  <unicode hex="002A"/>
  <outline>
    <contour>
      <point x="344" y="876" type="curve" smooth="yes"/>
      <point x="344" y="915"/>
      <point x="327" y="945"/>
      <point x="288" y="945" type="curve" smooth="yes"/>
      <point x="254" y="945"/>
      <point x="237" y="915"/>
      <point x="237" y="877" type="curve" smooth="yes"/>
      <point x="237" y="841"/>
      <point x="249" y="793"/>
      <point x="261" y="760" type="curve"/>
      <point x="225" y="789"/>
      <point x="165" y="824"/>
      <point x="129" y="824" type="curve" smooth="yes"/>
      <point x="104" y="824"/>
      <point x="74" y="809"/>
      <point x="74" y="773" type="curve" smooth="yes"/>
      <point x="74" y="727"/>
      <point x="149" y="705"/>
      <point x="209" y="703" type="curve"/>
      <point x="221" y="703"/>
      <point x="233" y="704"/>
      <point x="244" y="706" type="curve"/>
      <point x="198" y="677"/>
      <point x="137" y="622"/>
      <point x="137" y="580" type="curve" smooth="yes"/>
      <point x="137" y="557"/>
      <point x="157" y="528"/>
      <point x="187" y="528" type="curve" smooth="yes"/>
      <point x="239" y="528"/>
      <point x="275" y="615"/>
      <point x="289" y="674" type="curve"/>
      <point x="304" y="614"/>
      <point x="340" y="529"/>
      <point x="391" y="529" type="curve" smooth="yes"/>
      <point x="418" y="529"/>
      <point x="444" y="553"/>
      <point x="444" y="578" type="curve" smooth="yes"/>
      <point x="444" y="623"/>
      <point x="381" y="677"/>
      <point x="335" y="706" type="curve"/>
      <point x="345" y="704"/>
      <point x="359" y="702"/>
      <point x="371" y="702" type="curve"/>
      <point x="431" y="704"/>
      <point x="506" y="726"/>
      <point x="506" y="772" type="curve" smooth="yes"/>
      <point x="506" y="808"/>
      <point x="480" y="826"/>
      <point x="452" y="826" type="curve" smooth="yes"/>
      <point x="411" y="826"/>
      <point x="353" y="786"/>
      <point x="317" y="758" type="curve"/>
      <point x="330" y="791"/>
      <point x="344" y="839"/>
    </contour>
  </outline>
</glyph>
<glyph name="plus" format="1">
  <advance width="689"/>
  <unicode hex="002B"/>
  <outline>
    <contour>
      <point x="388" y="561" type="line"/>
      <point x="383" y="563"/>
      <point x="373" y="567"/>
      <point x="364" y="567" type="curve" smooth="yes"/>
      <point x="304" y="567"/>
      <point x="300" y="508"/>
      <point x="300" y="478" type="curve" smooth="yes"/>
      <point x="301" y="443"/>
      <point x="302" y="400"/>
      <point x="304" y="334" type="curve"/>
      <point x="227" y="336"/>
      <point x="190" y="336"/>
      <point x="154" y="337" type="curve" smooth="yes"/>
      <point x="124" y="337"/>
      <point x="64" y="334"/>
      <point x="64" y="274" type="curve" smooth="yes"/>
      <point x="64" y="265"/>
      <point x="67" y="254"/>
      <point x="70" y="249" type="curve"/>
      <point x="306" y="253" type="line"/>
      <point x="302" y="15" type="line"/>
      <point x="306" y="12"/>
      <point x="315" y="11"/>
      <point x="322" y="11" type="curve" smooth="yes"/>
      <point x="380" y="11"/>
      <point x="388" y="67"/>
      <point x="388" y="102" type="curve"/>
      <point x="387" y="139"/>
      <point x="387" y="184"/>
      <point x="385" y="253" type="curve"/>
      <point x="462" y="251"/>
      <point x="498" y="250"/>
      <point x="534" y="249" type="curve" smooth="yes"/>
      <point x="565" y="249"/>
      <point x="625" y="253"/>
      <point x="625" y="316" type="curve" smooth="yes"/>
      <point x="625" y="322"/>
      <point x="623" y="333"/>
      <point x="621" y="337" type="curve"/>
      <point x="385" y="334" type="line"/>
    </contour>
  </outline>
</glyph>
<glyph name="comma" format="1">
  <advance width="292"/>
  <unicode hex="002C"/>
  <outline>
    <contour>
      <point x="141" y="-38" type="curve" smooth="yes"/>
      <point x="141" y="-85"/>
      <point x="121" y="-131"/>
      <point x="80" y="-160" type="curve"/>
      <point x="84" y="-177"/>
      <point x="97" y="-185"/>
      <point x="110" y="-185" type="curve" smooth="yes"/>
      <point x="165" y="-185"/>
      <point x="236" y="-98"/>
      <point x="236" y="9" type="curve" smooth="yes"/>
      <point x="236" y="76"/>
      <point x="202" y="133"/>
      <point x="146" y="133" type="curve" smooth="yes"/>
      <point x="107" y="133"/>
      <point x="78" y="102"/>
      <point x="73" y="69" type="curve"/>
      <point x="117" y="53"/>
      <point x="141" y="11"/>
    </contour>
  </outline>
</glyph>
<glyph name="hyphen" format="1">
  <advance width="528"/>
  <unicode hex="002D"/>
  <outline>
    <contour>
      <point x="468" y="368" type="curve" smooth="yes"/>
      <point x="468" y="301"/>
      <point x="400" y="301"/>
      <point x="372" y="301" type="curve" smooth="yes"/>
      <point x="66" y="301" type="line"/>
      <point x="63" y="306"/>
      <point x="60" y="317"/>
      <point x="60" y="325" type="curve" smooth="yes"/>
      <point x="60" y="390"/>
      <point x="128" y="390"/>
      <point x="156" y="390" type="curve" smooth="yes"/>
      <point x="464" y="390" type="line"/>
      <point x="467" y="385"/>
      <point x="468" y="375"/>
    </contour>
  </outline>
</glyph>
<glyph name="period" format="1">
  <advance width="367"/>
  <unicode hex="002E"/>
  <outline>
    <contour>
      <point x="257" y="82" type="curve" smooth="yes"/>
      <point x="257" y="116"/>
      <point x="233" y="143"/>
      <point x="196" y="143" type="curve" smooth="yes"/>
      <point x="152" y="143"/>
      <point x="110" y="102"/>
      <point x="110" y="57" type="curve" smooth="yes"/>
      <point x="110" y="23"/>
      <point x="135" y="-5"/>
      <point x="172" y="-5" type="curve" smooth="yes"/>
      <point x="216" y="-5"/>
      <point x="257" y="37"/>
    </contour>
  </outline>
</glyph>
<glyph name="slash" format="1">
  <advance width="529"/>
  <unicode hex="002F"/>
  <outline>
    <contour>
      <point x="513" y="968" type="curve"/>
      <point x="497" y="980"/>
      <point x="482" y="984"/>
      <point x="468" y="984" type="curve" smooth="yes"/>
      <point x="427" y="984"/>
      <point x="411" y="937"/>
      <point x="404" y="917" type="curve" smooth="yes"/>
      <point x="62" y="-63" type="line" smooth="yes"/>
      <point x="55" y="-83"/>
      <point x="42" y="-110"/>
      <point x="33" y="-118" type="curve"/>
      <point x="51" y="-133"/>
      <point x="67" y="-135"/>
      <point x="76" y="-135" type="curve" smooth="yes"/>
      <point x="118" y="-135"/>
      <point x="136" y="-88"/>
      <point x="142" y="-68" type="curve" smooth="yes"/>
      <point x="484" y="914" type="line" smooth="yes"/>
      <point x="490" y="932"/>
      <point x="500" y="959"/>
    </contour>
  </outline>
</glyph>
<glyph name="zero" format="1">
  <advance width="663"/>
  <unicode hex="0030"/>
  <outline>
    <contour>
      <point x="55" y="362" type="curve" smooth="yes"/>
      <point x="55" y="151"/>
      <point x="161" y="-9"/>
      <point x="332" y="-9" type="curve" smooth="yes"/>
      <point x="502" y="-9"/>
      <point x="608" y="151"/>
      <point x="608" y="362" type="curve" smooth="yes"/>
      <point x="608" y="580"/>
      <point x="502" y="731"/>
      <point x="332" y="731" type="curve" smooth="yes"/>
      <point x="161" y="731"/>
      <point x="55" y="580"/>
    </contour>
    <contour>
      <point x="320" y="658" type="curve" smooth="yes"/>
      <point x="416" y="658"/>
      <point x="491" y="552"/>
      <point x="497" y="372" type="curve" smooth="yes"/>
      <point x="505" y="193"/>
      <point x="440" y="65"/>
      <point x="342" y="65" type="curve" smooth="yes"/>
      <point x="247" y="65"/>
      <point x="173" y="171"/>
      <point x="166" y="350" type="curve" smooth="yes"/>
      <point x="158" y="530"/>
      <point x="224" y="658"/>
    </contour>
  </outline>
</glyph>
<glyph name="one" format="1">
  <advance width="363"/>
  <unicode hex="0031"/>
  <outline>
    <contour>
      <point x="249" y="74" type="line"/>
      <point x="249" y="48"/>
      <point x="258" y="34"/>
      <point x="277" y="26" type="curve"/>
      <point x="262" y="6"/>
      <point x="241" y="-9"/>
      <point x="213" y="-9" type="curve" smooth="yes"/>
      <point x="166" y="-9"/>
      <point x="144" y="19"/>
      <point x="144" y="75" type="curve" smooth="yes"/>
      <point x="144" y="612" type="line" smooth="yes"/>
      <point x="144" y="633"/>
      <point x="135" y="646"/>
      <point x="112" y="646" type="curve" smooth="yes"/>
      <point x="90" y="646"/>
      <point x="65" y="636"/>
      <point x="42" y="621" type="curve"/>
      <point x="32" y="625"/>
      <point x="26" y="635"/>
      <point x="26" y="646" type="curve" smooth="yes"/>
      <point x="26" y="680"/>
      <point x="88" y="731"/>
      <point x="161" y="731" type="curve" smooth="yes"/>
      <point x="219" y="731"/>
      <point x="249" y="694"/>
      <point x="249" y="636" type="curve" smooth="yes"/>
    </contour>
  </outline>
</glyph>
<glyph name="two" format="1">
  <advance width="579"/>
  <unicode hex="0032"/>
  <outline>
    <contour>
      <point x="502" y="515" type="curve" smooth="yes"/>
      <point x="502" y="364"/>
      <point x="365" y="217"/>
      <point x="119" y="60" type="curve"/>
      <point x="92" y="81" type="line"/>
      <point x="409" y="96" type="line" smooth="yes"/>
      <point x="461" y="97"/>
      <point x="496" y="108"/>
      <point x="518" y="126" type="curve"/>
      <point x="532" y="113"/>
      <point x="541" y="94"/>
      <point x="541" y="76" type="curve" smooth="yes"/>
      <point x="541" y="32"/>
      <point x="504" y="0"/>
      <point x="418" y="0" type="curve" smooth="yes"/>
      <point x="121" y="0" type="line" smooth="yes"/>
      <point x="67" y="0"/>
      <point x="38" y="33"/>
      <point x="47" y="82" type="curve"/>
      <point x="247" y="238"/>
      <point x="389" y="376"/>
      <point x="389" y="519" type="curve" smooth="yes"/>
      <point x="389" y="615"/>
      <point x="335" y="663"/>
      <point x="269" y="663" type="curve" smooth="yes"/>
      <point x="210" y="663"/>
      <point x="162" y="624"/>
      <point x="162" y="572" type="curve" smooth="yes"/>
      <point x="162" y="544"/>
      <point x="176" y="522"/>
      <point x="199" y="509" type="curve"/>
      <point x="185" y="490"/>
      <point x="164" y="477"/>
      <point x="131" y="477" type="curve" smooth="yes"/>
      <point x="89" y="477"/>
      <point x="48" y="509"/>
      <point x="48" y="563" type="curve" smooth="yes"/>
      <point x="48" y="660"/>
      <point x="154" y="731"/>
      <point x="275" y="731" type="curve" smooth="yes"/>
      <point x="414" y="731"/>
      <point x="502" y="640"/>
    </contour>
  </outline>
</glyph>
<glyph name="three" format="1">
  <advance width="562"/>
  <unicode hex="0033"/>
  <outline>
    <contour>
      <point x="475" y="579" type="curve" smooth="yes"/>
      <point x="475" y="672"/>
      <point x="397" y="731"/>
      <point x="288" y="731" type="curve" smooth="yes"/>
      <point x="184" y="731"/>
      <point x="90" y="665"/>
      <point x="90" y="625" type="curve" smooth="yes"/>
      <point x="90" y="610"/>
      <point x="100" y="599"/>
      <point x="112" y="595" type="curve"/>
      <point x="146" y="622"/>
      <point x="202" y="650"/>
      <point x="264" y="650" type="curve" smooth="yes"/>
      <point x="324" y="650"/>
      <point x="373" y="618"/>
      <point x="373" y="562" type="curve" smooth="yes"/>
      <point x="373" y="445"/>
      <point x="156" y="423"/>
      <point x="156" y="361" type="curve" smooth="yes"/>
      <point x="156" y="351"/>
      <point x="160" y="340"/>
      <point x="169" y="334" type="curve"/>
      <point x="185" y="338"/>
      <point x="204" y="340"/>
      <point x="222" y="340" type="curve" smooth="yes"/>
      <point x="332" y="340"/>
      <point x="421" y="274"/>
      <point x="421" y="183" type="curve" smooth="yes"/>
      <point x="421" y="119"/>
      <point x="367" y="66"/>
      <point x="284" y="66" type="curve" smooth="yes"/>
      <point x="207" y="66"/>
      <point x="134" y="115"/>
      <point x="102" y="196" type="curve"/>
      <point x="80" y="193"/>
      <point x="43" y="173"/>
      <point x="43" y="128" type="curve" smooth="yes"/>
      <point x="43" y="44"/>
      <point x="153" y="-9"/>
      <point x="247" y="-9" type="curve" smooth="yes"/>
      <point x="386" y="-9"/>
      <point x="506" y="77"/>
      <point x="506" y="213" type="curve" smooth="yes"/>
      <point x="506" y="322"/>
      <point x="427" y="401"/>
      <point x="328" y="415" type="curve"/>
      <point x="408" y="440"/>
      <point x="475" y="503"/>
    </contour>
  </outline>
</glyph>
<glyph name="four" format="1">
  <advance width="606"/>
  <unicode hex="0034"/>
  <outline>
    <contour>
      <point x="463" y="652" type="curve" smooth="yes"/>
      <point x="463" y="74" type="line" smooth="yes"/>
      <point x="463" y="48"/>
      <point x="472" y="34"/>
      <point x="490" y="26" type="curve"/>
      <point x="477" y="6"/>
      <point x="455" y="-9"/>
      <point x="427" y="-9" type="curve" smooth="yes"/>
      <point x="381" y="-9"/>
      <point x="359" y="19"/>
      <point x="359" y="75" type="curve" smooth="yes"/>
      <point x="359" y="590" type="line" smooth="yes"/>
      <point x="359" y="601"/>
      <point x="356" y="607"/>
      <point x="347" y="607" type="curve" smooth="yes"/>
      <point x="308" y="607"/>
      <point x="134" y="359"/>
      <point x="134" y="270" type="curve" smooth="yes"/>
      <point x="134" y="252"/>
      <point x="143" y="247"/>
      <point x="165" y="247" type="curve" smooth="yes"/>
      <point x="503" y="247" type="line" smooth="yes"/>
      <point x="523" y="247"/>
      <point x="555" y="249"/>
      <point x="573" y="265" type="curve"/>
      <point x="579" y="258"/>
      <point x="586" y="244"/>
      <point x="586" y="228" type="curve" smooth="yes"/>
      <point x="586" y="192"/>
      <point x="548" y="170"/>
      <point x="491" y="170" type="curve" smooth="yes"/>
      <point x="133" y="170" type="line" smooth="yes"/>
      <point x="84" y="170"/>
      <point x="52" y="186"/>
      <point x="52" y="236" type="curve" smooth="yes"/>
      <point x="52" y="378"/>
      <point x="289" y="731"/>
      <point x="407" y="731" type="curve" smooth="yes"/>
      <point x="444" y="731"/>
      <point x="463" y="707"/>
    </contour>
  </outline>
</glyph>
<glyph name="five" format="1">
  <advance width="561"/>
  <unicode hex="0035"/>
  <outline>
    <contour>
      <point x="375" y="723" type="curve"/>
      <point x="264" y="723" type="line" smooth="yes"/>
      <point x="193" y="723"/>
      <point x="145" y="704"/>
      <point x="132" y="641" type="curve" smooth="yes"/>
      <point x="102" y="503"/>
      <point x="86" y="424"/>
      <point x="86" y="398" type="curve" smooth="yes"/>
      <point x="86" y="366"/>
      <point x="106" y="351"/>
      <point x="126" y="351" type="curve"/>
      <point x="145" y="358"/>
      <point x="185" y="370"/>
      <point x="232" y="370" type="curve" smooth="yes"/>
      <point x="329" y="370"/>
      <point x="421" y="314"/>
      <point x="421" y="207" type="curve" smooth="yes"/>
      <point x="421" y="134"/>
      <point x="369" y="77"/>
      <point x="288" y="77" type="curve" smooth="yes"/>
      <point x="220" y="77"/>
      <point x="158" y="115"/>
      <point x="132" y="190" type="curve"/>
      <point x="106" y="190"/>
      <point x="65" y="167"/>
      <point x="65" y="123" type="curve" smooth="yes"/>
      <point x="65" y="41"/>
      <point x="162" y="-9"/>
      <point x="255" y="-9" type="curve" smooth="yes"/>
      <point x="400" y="-9"/>
      <point x="504" y="112"/>
      <point x="504" y="239" type="curve" smooth="yes"/>
      <point x="504" y="366"/>
      <point x="410" y="456"/>
      <point x="289" y="456" type="curve" smooth="yes"/>
      <point x="223" y="456"/>
      <point x="166" y="434"/>
      <point x="124" y="410" type="curve"/>
      <point x="153" y="385" type="line"/>
      <point x="205" y="626" type="line"/>
      <point x="348" y="626" type="line" smooth="yes"/>
      <point x="409" y="626"/>
      <point x="469" y="642"/>
      <point x="469" y="699" type="curve" smooth="yes"/>
      <point x="469" y="715"/>
      <point x="462" y="732"/>
      <point x="452" y="742" type="curve"/>
      <point x="431" y="726"/>
      <point x="399" y="723"/>
    </contour>
  </outline>
</glyph>
<glyph name="six" format="1">
  <advance width="613"/>
  <unicode hex="0036"/>
  <outline>
    <contour>
      <point x="62" y="308" type="curve" smooth="yes"/>
      <point x="62" y="132"/>
      <point x="154" y="-9"/>
      <point x="323" y="-9" type="curve" smooth="yes"/>
      <point x="450" y="-9"/>
      <point x="559" y="78"/>
      <point x="559" y="230" type="curve" smooth="yes"/>
      <point x="559" y="338"/>
      <point x="476" y="442"/>
      <point x="348" y="442" type="curve" smooth="yes"/>
      <point x="299" y="442"/>
      <point x="255" y="415"/>
      <point x="254" y="365" type="curve"/>
      <point x="384" y="370"/>
      <point x="462" y="290"/>
      <point x="462" y="190" type="curve" smooth="yes"/>
      <point x="462" y="105"/>
      <point x="408" y="61"/>
      <point x="345" y="61" type="curve" smooth="yes"/>
      <point x="237" y="61"/>
      <point x="171" y="167"/>
      <point x="171" y="320" type="curve" smooth="yes"/>
      <point x="171" y="536"/>
      <point x="314" y="670"/>
      <point x="484" y="687" type="curve"/>
      <point x="485" y="689"/>
      <point x="485" y="693"/>
      <point x="485" y="695" type="curve" smooth="yes"/>
      <point x="485" y="721"/>
      <point x="457" y="731"/>
      <point x="432" y="731" type="curve" smooth="yes"/>
      <point x="232" y="731"/>
      <point x="62" y="533"/>
    </contour>
  </outline>
</glyph>
<glyph name="seven" format="1">
  <advance width="494"/>
  <unicode hex="0037"/>
  <outline>
    <contour>
      <point x="136" y="723" type="line"/>
      <point x="87" y="723"/>
      <point x="22" y="709"/>
      <point x="22" y="644" type="curve" smooth="yes"/>
      <point x="22" y="622"/>
      <point x="33" y="604"/>
      <point x="44" y="597" type="curve"/>
      <point x="63" y="617"/>
      <point x="90" y="625"/>
      <point x="121" y="625" type="curve" smooth="yes"/>
      <point x="290" y="625" type="line" smooth="yes"/>
      <point x="313" y="625"/>
      <point x="343" y="625"/>
      <point x="373" y="632" type="curve"/>
      <point x="279" y="480"/>
      <point x="114" y="241"/>
      <point x="114" y="99" type="curve" smooth="yes"/>
      <point x="114" y="34"/>
      <point x="149" y="-9"/>
      <point x="201" y="-9" type="curve" smooth="yes"/>
      <point x="250" y="-9"/>
      <point x="267" y="32"/>
      <point x="269" y="44" type="curve"/>
      <point x="241" y="53"/>
      <point x="225" y="79"/>
      <point x="225" y="120" type="curve" smooth="yes"/>
      <point x="225" y="345"/>
      <point x="459" y="601"/>
      <point x="459" y="685" type="curve" smooth="yes"/>
      <point x="459" y="706"/>
      <point x="454" y="718"/>
      <point x="450" y="723" type="curve"/>
    </contour>
  </outline>
</glyph>
<glyph name="eight" format="1">
  <advance width="598"/>
  <unicode hex="0038"/>
  <outline>
    <contour>
      <point x="158" y="210" type="curve" smooth="yes"/>
      <point x="158" y="273"/>
      <point x="186" y="320"/>
      <point x="220" y="353" type="curve"/>
      <point x="321" y="295"/>
      <point x="442" y="255"/>
      <point x="442" y="157" type="curve" smooth="yes"/>
      <point x="442" y="90"/>
      <point x="381" y="53"/>
      <point x="323" y="53" type="curve" smooth="yes"/>
      <point x="217" y="53"/>
      <point x="158" y="133"/>
    </contour>
    <contour>
      <point x="422" y="515" type="curve" smooth="yes"/>
      <point x="422" y="454"/>
      <point x="399" y="414"/>
      <point x="374" y="384" type="curve"/>
      <point x="276" y="438"/>
      <point x="169" y="476"/>
      <point x="169" y="568" type="curve" smooth="yes"/>
      <point x="169" y="633"/>
      <point x="224" y="672"/>
      <point x="281" y="672" type="curve" smooth="yes"/>
      <point x="368" y="672"/>
      <point x="422" y="592"/>
    </contour>
    <contour>
      <point x="520" y="533" type="curve" smooth="yes"/>
      <point x="520" y="660"/>
      <point x="397" y="731"/>
      <point x="296" y="731" type="curve" smooth="yes"/>
      <point x="160" y="731"/>
      <point x="76" y="633"/>
      <point x="76" y="543" type="curve" smooth="yes"/>
      <point x="76" y="467"/>
      <point x="119" y="421"/>
      <point x="175" y="381" type="curve"/>
      <point x="115" y="348"/>
      <point x="60" y="281"/>
      <point x="60" y="194" type="curve" smooth="yes"/>
      <point x="60" y="63"/>
      <point x="197" y="-9"/>
      <point x="312" y="-9" type="curve" smooth="yes"/>
      <point x="428" y="-9"/>
      <point x="538" y="74"/>
      <point x="538" y="185" type="curve" smooth="yes"/>
      <point x="538" y="266"/>
      <point x="485" y="317"/>
      <point x="419" y="358" type="curve"/>
      <point x="473" y="392"/>
      <point x="520" y="450"/>
    </contour>
  </outline>
</glyph>
<glyph name="nine" format="1">
  <advance width="581"/>
  <unicode hex="0039"/>
  <outline>
    <contour>
      <point x="533" y="410" type="curve" smooth="yes"/>
      <point x="533" y="590"/>
      <point x="436" y="731"/>
      <point x="266" y="731" type="curve" smooth="yes"/>
      <point x="140" y="731"/>
      <point x="37" y="645"/>
      <point x="37" y="500" type="curve" smooth="yes"/>
      <point x="37" y="395"/>
      <point x="121" y="280"/>
      <point x="256" y="280" type="curve" smooth="yes"/>
      <point x="305" y="280"/>
      <point x="349" y="308"/>
      <point x="350" y="358" type="curve"/>
      <point x="223" y="351"/>
      <point x="130" y="431"/>
      <point x="130" y="540" type="curve" smooth="yes"/>
      <point x="130" y="616"/>
      <point x="184" y="660"/>
      <point x="247" y="660" type="curve" smooth="yes"/>
      <point x="363" y="660"/>
      <point x="426" y="533"/>
      <point x="426" y="392" type="curve" smooth="yes"/>
      <point x="426" y="197"/>
      <point x="299" y="53"/>
      <point x="129" y="36" type="curve"/>
      <point x="128" y="33"/>
      <point x="128" y="30"/>
      <point x="128" y="27" type="curve" smooth="yes"/>
      <point x="128" y="2"/>
      <point x="155" y="-9"/>
      <point x="181" y="-9" type="curve" smooth="yes"/>
      <point x="380" y="-9"/>
      <point x="533" y="199"/>
    </contour>
  </outline>
</glyph>
<glyph name="colon" format="1">
  <advance width="341"/>
  <unicode hex="003A"/>
  <outline>
    <contour>
      <point x="247" y="458" type="curve" smooth="yes"/>
      <point x="247" y="494"/>
      <point x="222" y="520"/>
      <point x="185" y="520" type="curve" smooth="yes"/>
      <point x="142" y="520"/>
      <point x="99" y="479"/>
      <point x="99" y="434" type="curve" smooth="yes"/>
      <point x="99" y="400"/>
      <point x="125" y="373"/>
      <point x="162" y="373" type="curve" smooth="yes"/>
      <point x="206" y="373"/>
      <point x="247" y="413"/>
    </contour>
    <contour>
      <point x="247" y="84" type="curve" smooth="yes"/>
      <point x="247" y="119"/>
      <point x="222" y="146"/>
      <point x="185" y="146" type="curve" smooth="yes"/>
      <point x="142" y="146"/>
      <point x="99" y="104"/>
      <point x="99" y="60" type="curve" smooth="yes"/>
      <point x="99" y="25"/>
      <point x="125" y="-1"/>
      <point x="162" y="-1" type="curve" smooth="yes"/>
      <point x="206" y="-1"/>
      <point x="247" y="39"/>
    </contour>
  </outline>
</glyph>
<glyph name="semicolon" format="1">
  <advance width="341"/>
  <unicode hex="003B"/>
  <outline>
    <contour>
      <point x="247" y="458" type="curve" smooth="yes"/>
      <point x="247" y="494"/>
      <point x="222" y="520"/>
      <point x="185" y="520" type="curve" smooth="yes"/>
      <point x="142" y="520"/>
      <point x="99" y="479"/>
      <point x="99" y="434" type="curve" smooth="yes"/>
      <point x="99" y="400"/>
      <point x="125" y="373"/>
      <point x="162" y="373" type="curve" smooth="yes"/>
      <point x="206" y="373"/>
      <point x="247" y="413"/>
    </contour>
    <contour>
      <point x="162" y="-32" type="curve" smooth="yes"/>
      <point x="162" y="-80"/>
      <point x="142" y="-131"/>
      <point x="101" y="-160" type="curve"/>
      <point x="105" y="-177"/>
      <point x="117" y="-185"/>
      <point x="131" y="-185" type="curve" smooth="yes"/>
      <point x="190" y="-185"/>
      <point x="255" y="-77"/>
      <point x="255" y="23" type="curve" smooth="yes"/>
      <point x="255" y="81"/>
      <point x="228" y="142"/>
      <point x="167" y="142" type="curve" smooth="yes"/>
      <point x="128" y="142"/>
      <point x="99" y="112"/>
      <point x="93" y="78" type="curve"/>
      <point x="137" y="61"/>
      <point x="162" y="17"/>
    </contour>
  </outline>
</glyph>
<glyph name="less" format="1">
  <advance width="694"/>
  <unicode hex="003C"/>
  <outline>
    <contour>
      <point x="169" y="423" type="curve" smooth="yes"/>
      <point x="169" y="466"/>
      <point x="479" y="595"/>
      <point x="571" y="626" type="curve"/>
      <point x="571" y="658"/>
      <point x="543" y="667"/>
      <point x="525" y="667" type="curve" smooth="yes"/>
      <point x="460" y="667"/>
      <point x="45" y="488"/>
      <point x="45" y="403" type="curve" smooth="yes"/>
      <point x="45" y="324"/>
      <point x="421" y="156"/>
      <point x="500" y="156" type="curve" smooth="yes"/>
      <point x="544" y="156"/>
      <point x="574" y="186"/>
      <point x="574" y="237" type="curve"/>
      <point x="433" y="275"/>
      <point x="169" y="395"/>
    </contour>
  </outline>
</glyph>
<glyph name="equal" format="1">
  <advance width="759"/>
  <unicode hex="003D"/>
  <outline>
    <contour>
      <point x="193" y="468" type="line"/>
      <point x="165" y="468"/>
      <point x="97" y="468"/>
      <point x="97" y="403" type="curve" smooth="yes"/>
      <point x="97" y="395"/>
      <point x="100" y="385"/>
      <point x="102" y="380" type="curve"/>
      <point x="566" y="380" type="line" smooth="yes"/>
      <point x="594" y="380"/>
      <point x="661" y="380"/>
      <point x="661" y="448" type="curve" smooth="yes"/>
      <point x="661" y="454"/>
      <point x="660" y="463"/>
      <point x="658" y="468" type="curve"/>
    </contour>
    <contour>
      <point x="193" y="216" type="line"/>
      <point x="165" y="216"/>
      <point x="97" y="216"/>
      <point x="97" y="151" type="curve" smooth="yes"/>
      <point x="97" y="142"/>
      <point x="100" y="133"/>
      <point x="102" y="128" type="curve"/>
      <point x="566" y="128" type="line" smooth="yes"/>
      <point x="594" y="128"/>
      <point x="661" y="128"/>
      <point x="661" y="196" type="curve" smooth="yes"/>
      <point x="661" y="202"/>
      <point x="660" y="211"/>
      <point x="658" y="216" type="curve"/>
    </contour>
  </outline>
</glyph>
<glyph name="greater" format="1">
  <advance width="681"/>
  <unicode hex="003E"/>
  <outline>
    <contour>
      <point x="180" y="156" type="curve" smooth="yes"/>
      <point x="259" y="156"/>
      <point x="635" y="324"/>
      <point x="635" y="403" type="curve" smooth="yes"/>
      <point x="635" y="488"/>
      <point x="219" y="667"/>
      <point x="155" y="667" type="curve" smooth="yes"/>
      <point x="138" y="667"/>
      <point x="109" y="658"/>
      <point x="109" y="626" type="curve"/>
      <point x="201" y="595"/>
      <point x="512" y="466"/>
      <point x="512" y="423" type="curve" smooth="yes"/>
      <point x="512" y="395"/>
      <point x="247" y="275"/>
      <point x="106" y="237" type="curve"/>
      <point x="106" y="186"/>
      <point x="135" y="156"/>
    </contour>
  </outline>
</glyph>
<glyph name="question" format="1">
  <advance width="528"/>
  <unicode hex="003F"/>
  <outline>
    <contour>
      <point x="298" y="312" type="curve" smooth="yes"/>
      <point x="298" y="419"/>
      <point x="465" y="453"/>
      <point x="465" y="611" type="curve" smooth="yes"/>
      <point x="465" y="699"/>
      <point x="383" y="767"/>
      <point x="269" y="767" type="curve" smooth="yes"/>
      <point x="157" y="767"/>
      <point x="59" y="704"/>
      <point x="59" y="615" type="curve" smooth="yes"/>
      <point x="59" y="554"/>
      <point x="97" y="510"/>
      <point x="155" y="510" type="curve" smooth="yes"/>
      <point x="191" y="510"/>
      <point x="222" y="535"/>
      <point x="223" y="550" type="curve"/>
      <point x="185" y="565"/>
      <point x="162" y="597"/>
      <point x="162" y="634" type="curve" smooth="yes"/>
      <point x="162" y="684"/>
      <point x="201" y="711"/>
      <point x="253" y="711" type="curve" smooth="yes"/>
      <point x="320" y="711"/>
      <point x="358" y="659"/>
      <point x="358" y="606" type="curve" smooth="yes"/>
      <point x="358" y="464"/>
      <point x="200" y="425"/>
      <point x="200" y="297" type="curve" smooth="yes"/>
      <point x="200" y="241"/>
      <point x="242" y="205"/>
      <point x="289" y="205" type="curve" smooth="yes"/>
      <point x="321" y="205"/>
      <point x="347" y="226"/>
      <point x="350" y="256" type="curve"/>
      <point x="316" y="260"/>
      <point x="298" y="285"/>
    </contour>
    <contour>
      <point x="343" y="70" type="curve" smooth="yes"/>
      <point x="343" y="101"/>
      <point x="319" y="125"/>
      <point x="283" y="125" type="curve" smooth="yes"/>
      <point x="241" y="125"/>
      <point x="199" y="88"/>
      <point x="199" y="48" type="curve" smooth="yes"/>
      <point x="199" y="16"/>
      <point x="223" y="-9"/>
      <point x="259" y="-9" type="curve" smooth="yes"/>
      <point x="303" y="-9"/>
      <point x="343" y="28"/>
    </contour>
  </outline>
</glyph>
<glyph name="at" format="1">
  <advance width="896"/>
  <unicode hex="0040"/>
  <outline>
    <contour>
      <point x="532" y="287" type="curve"/>
      <point x="535" y="328" type="line"/>
      <point x="346" y="325"/>
      <point x="250" y="268"/>
      <point x="246" y="187" type="curve" smooth="yes"/>
      <point x="242" y="119"/>
      <point x="296" y="81"/>
      <point x="371" y="81" type="curve" smooth="yes"/>
      <point x="444" y="81"/>
      <point x="502" y="116"/>
      <point x="535" y="166" type="curve"/>
      <point x="531" y="208" type="line"/>
      <point x="499" y="166"/>
      <point x="458" y="144"/>
      <point x="414" y="144" type="curve" smooth="yes"/>
      <point x="373" y="144"/>
      <point x="347" y="159"/>
      <point x="350" y="197" type="curve" smooth="yes"/>
      <point x="352" y="242"/>
      <point x="403" y="282"/>
    </contour>
    <contour>
      <point x="625" y="384" type="line"/>
      <point x="630" y="476"/>
      <point x="565" y="522"/>
      <point x="464" y="522" type="curve" smooth="yes"/>
      <point x="369" y="522"/>
      <point x="283" y="480"/>
      <point x="280" y="424" type="curve" smooth="yes"/>
      <point x="278" y="393"/>
      <point x="300" y="373"/>
      <point x="340" y="373" type="curve" smooth="yes"/>
      <point x="359" y="373"/>
      <point x="379" y="380"/>
      <point x="394" y="390" type="curve"/>
      <point x="386" y="400"/>
      <point x="382" y="412"/>
      <point x="383" y="423" type="curve" smooth="yes"/>
      <point x="385" y="449"/>
      <point x="410" y="474"/>
      <point x="459" y="474" type="curve" smooth="yes"/>
      <point x="512" y="474"/>
      <point x="532" y="446"/>
      <point x="529" y="387" type="curve" smooth="yes"/>
      <point x="517" y="172" type="line" smooth="yes"/>
      <point x="512" y="113"/>
      <point x="551" y="80"/>
      <point x="608" y="80" type="curve" smooth="yes"/>
      <point x="711" y="80"/>
      <point x="824" y="179"/>
      <point x="824" y="353" type="curve" smooth="yes"/>
      <point x="824" y="534"/>
      <point x="687" y="669"/>
      <point x="489" y="669" type="curve" smooth="yes"/>
      <point x="248" y="669"/>
      <point x="65" y="497"/>
      <point x="65" y="244" type="curve" smooth="yes"/>
      <point x="65" y="15"/>
      <point x="222" y="-81"/>
      <point x="377" y="-81" type="curve" smooth="yes"/>
      <point x="523" y="-81"/>
      <point x="616" y="-21"/>
      <point x="583" y="10" type="curve"/>
      <point x="528" y="-16"/>
      <point x="463" y="-32"/>
      <point x="389" y="-32" type="curve" smooth="yes"/>
      <point x="249" y="-32"/>
      <point x="120" y="45"/>
      <point x="120" y="244" type="curve" smooth="yes"/>
      <point x="120" y="469"/>
      <point x="262" y="617"/>
      <point x="478" y="620" type="curve" smooth="yes"/>
      <point x="650" y="623"/>
      <point x="771" y="514"/>
      <point x="769" y="344" type="curve" smooth="yes"/>
      <point x="767" y="200"/>
      <point x="694" y="137"/>
      <point x="643" y="137" type="curve" smooth="yes"/>
      <point x="621" y="137"/>
      <point x="611" y="149"/>
      <point x="613" y="176" type="curve" smooth="yes"/>
    </contour>
  </outline>
</glyph>
<glyph name="A" format="1">
  <advance width="680"/>
  <unicode hex="0041"/>
  <outline>
    <contour>
      <point x="342" y="723" type="move" name="top"/>
    </contour>
    <contour>
      <point x="643" y="18" type="move" name="ogonek"/>
    </contour>
    <contour>
      <point x="521" y="161" type="line"/>
      <point x="495" y="232" type="line"/>
      <point x="188" y="232" type="line"/>
      <point x="162" y="161" type="line"/>
    </contour>
    <contour>
      <point x="404" y="650" type="line"/>
      <point x="384" y="703"/>
      <point x="367" y="731"/>
      <point x="322" y="731" type="curve" smooth="yes"/>
      <point x="294" y="731"/>
      <point x="272" y="718"/>
      <point x="258" y="699" type="curve"/>
      <point x="272" y="688"/>
      <point x="282" y="674"/>
      <point x="289" y="653" type="curve"/>
      <point x="66" y="80" type="line" smooth="yes"/>
      <point x="54" y="50"/>
      <point x="45" y="35"/>
      <point x="26" y="28" type="curve"/>
      <point x="33" y="6"/>
      <point x="62" y="-9"/>
      <point x="91" y="-9" type="curve" smooth="yes"/>
      <point x="124" y="-9"/>
      <point x="148" y="10"/>
      <point x="166" y="64" type="curve" smooth="yes"/>
      <point x="354" y="622" type="line"/>
      <point x="316" y="619" type="line"/>
      <point x="512" y="63" type="line" smooth="yes"/>
      <point x="530" y="9"/>
      <point x="552" y="-9"/>
      <point x="591" y="-9" type="curve" smooth="yes"/>
      <point x="623" y="-9"/>
      <point x="651" y="8"/>
      <point x="662" y="31" type="curve"/>
      <point x="640" y="40"/>
      <point x="626" y="59"/>
      <point x="613" y="92" type="curve" smooth="yes"/>
    </contour>
  </outline>
</glyph>
<glyph name="B" format="1">
  <advance width="723"/>
  <unicode hex="0042"/>
  <outline>
    <contour>
      <point x="624" y="537" type="curve" smooth="yes"/>
      <point x="624" y="637"/>
      <point x="542" y="723"/>
      <point x="364" y="723" type="curve" smooth="yes"/>
      <point x="156" y="723" type="line" smooth="yes"/>
      <point x="114" y="723"/>
      <point x="90" y="709"/>
      <point x="72" y="684" type="curve"/>
      <point x="91" y="676"/>
      <point x="100" y="662"/>
      <point x="100" y="636" type="curve" smooth="yes"/>
      <point x="99" y="144" type="line" smooth="yes"/>
      <point x="99" y="38"/>
      <point x="141" y="0"/>
      <point x="263" y="0" type="curve" smooth="yes"/>
      <point x="402" y="0" type="line" smooth="yes"/>
      <point x="577" y="0"/>
      <point x="671" y="90"/>
      <point x="671" y="199" type="curve" smooth="yes"/>
      <point x="671" y="287"/>
      <point x="596" y="362"/>
      <point x="489" y="378" type="curve"/>
      <point x="569" y="399"/>
      <point x="624" y="452"/>
    </contour>
    <contour>
      <point x="207" y="647" type="line"/>
      <point x="358" y="647" type="line" smooth="yes"/>
      <point x="464" y="647"/>
      <point x="513" y="595"/>
      <point x="513" y="527" type="curve" smooth="yes"/>
      <point x="513" y="453"/>
      <point x="464" y="404"/>
      <point x="358" y="404" type="curve" smooth="yes"/>
      <point x="205" y="404" type="line"/>
    </contour>
    <contour>
      <point x="205" y="329" type="line"/>
      <point x="402" y="329" type="line" smooth="yes"/>
      <point x="505" y="329"/>
      <point x="560" y="282"/>
      <point x="560" y="202" type="curve" smooth="yes"/>
      <point x="560" y="125"/>
      <point x="505" y="76"/>
      <point x="402" y="76" type="curve" smooth="yes"/>
      <point x="273" y="76" type="line" smooth="yes"/>
      <point x="222" y="76"/>
      <point x="205" y="92"/>
      <point x="205" y="144" type="curve" smooth="yes"/>
    </contour>
  </outline>
</glyph>
<glyph name="C" format="1">
  <advance width="695"/>
  <unicode hex="0043"/>
  <outline>
    <contour>
      <point x="349" y="723" type="move" name="top"/>
    </contour>
    <contour>
      <point x="349" y="0" type="move" name="bottom"/>
    </contour>
    <contour>
      <point x="624" y="603" type="curve" smooth="yes"/>
      <point x="624" y="560"/>
      <point x="591" y="540"/>
      <point x="551" y="540" type="curve" smooth="yes"/>
      <point x="535" y="540"/>
      <point x="519" y="543"/>
      <point x="504" y="551" type="curve"/>
      <point x="513" y="613"/>
      <point x="475" y="660"/>
      <point x="390" y="660" type="curve" smooth="yes"/>
      <point x="285" y="660"/>
      <point x="177" y="563"/>
      <point x="177" y="365" type="curve" smooth="yes"/>
      <point x="177" y="175"/>
      <point x="266" y="86"/>
      <point x="405" y="86" type="curve" smooth="yes"/>
      <point x="490" y="86"/>
      <point x="563" y="131"/>
      <point x="601" y="172" type="curve"/>
      <point x="608" y="170"/>
      <point x="625" y="159"/>
      <point x="625" y="131" type="curve" smooth="yes"/>
      <point x="625" y="79"/>
      <point x="523" y="-9"/>
      <point x="377" y="-9" type="curve" smooth="yes"/>
      <point x="192" y="-9"/>
      <point x="64" y="127"/>
      <point x="64" y="347" type="curve" smooth="yes"/>
      <point x="64" y="583"/>
      <point x="211" y="731"/>
      <point x="407" y="731" type="curve" smooth="yes"/>
      <point x="529" y="731"/>
      <point x="624" y="674"/>
    </contour>
  </outline>
</glyph>
<glyph name="D" format="1">
  <advance width="745"/>
  <unicode hex="0044"/>
  <outline>
    <contour>
      <point x="373" y="713" type="move" name="top"/>
    </contour>
    <contour>
      <point x="207" y="638" type="curve"/>
      <point x="205" y="128" type="line" smooth="yes"/>
      <point x="205" y="88"/>
      <point x="216" y="66"/>
      <point x="319" y="66" type="curve" smooth="yes"/>
      <point x="466" y="66"/>
      <point x="588" y="165"/>
      <point x="588" y="360" type="curve" smooth="yes"/>
      <point x="588" y="554"/>
      <point x="466" y="655"/>
      <point x="319" y="655" type="curve" smooth="yes"/>
      <point x="276" y="655"/>
      <point x="249" y="651"/>
    </contour>
    <contour>
      <point x="699" y="360" type="curve" smooth="yes"/>
      <point x="699" y="107"/>
      <point x="517" y="-9"/>
      <point x="319" y="-9" type="curve" smooth="yes"/>
      <point x="147" y="-9"/>
      <point x="99" y="40"/>
      <point x="99" y="131" type="curve" smooth="yes"/>
      <point x="100" y="619" type="line" smooth="yes"/>
      <point x="100" y="648"/>
      <point x="95" y="673"/>
      <point x="81" y="691" type="curve"/>
      <point x="157" y="718"/>
      <point x="231" y="731"/>
      <point x="319" y="731" type="curve" smooth="yes"/>
      <point x="517" y="731"/>
      <point x="699" y="614"/>
    </contour>
  </outline>
</glyph>
<glyph name="E" format="1">
  <advance width="662"/>
  <unicode hex="0045"/>
  <outline>
    <contour>
      <point x="340" y="723" type="move" name="top"/>
    </contour>
    <contour>
      <point x="552" y="26" type="move" name="ogonek"/>
    </contour>
    <contour>
      <point x="332" y="0" type="move" name="bottom"/>
    </contour>
    <contour>
      <point x="488" y="723" type="line"/>
      <point x="569" y="723"/>
      <point x="602" y="700"/>
      <point x="602" y="662" type="curve" smooth="yes"/>
      <point x="602" y="639"/>
      <point x="590" y="622"/>
      <point x="572" y="613" type="curve"/>
      <point x="548" y="631"/>
      <point x="518" y="637"/>
      <point x="476" y="637" type="curve" smooth="yes"/>
      <point x="217" y="637" type="line"/>
      <point x="217" y="154" type="line" smooth="yes"/>
      <point x="217" y="105"/>
      <point x="237" y="85"/>
      <point x="285" y="85" type="curve" smooth="yes"/>
      <point x="476" y="85" type="line" smooth="yes"/>
      <point x="518" y="85"/>
      <point x="548" y="98"/>
      <point x="572" y="126" type="curve"/>
      <point x="590" y="117"/>
      <point x="602" y="95"/>
      <point x="602" y="74" type="curve" smooth="yes"/>
      <point x="602" y="32"/>
      <point x="569" y="0"/>
      <point x="487" y="0" type="curve" smooth="yes"/>
      <point x="275" y="0" type="line" smooth="yes"/>
      <point x="165" y="0"/>
      <point x="112" y="42"/>
      <point x="112" y="146" type="curve" smooth="yes"/>
      <point x="112" y="636" type="line" smooth="yes"/>
      <point x="112" y="662"/>
      <point x="103" y="676"/>
      <point x="84" y="684" type="curve"/>
      <point x="102" y="709"/>
      <point x="126" y="723"/>
      <point x="167" y="723" type="curve" smooth="yes"/>
    </contour>
    <contour>
      <point x="407" y="420" type="line"/>
      <point x="489" y="420"/>
      <point x="521" y="407"/>
      <point x="521" y="370" type="curve" smooth="yes"/>
      <point x="521" y="347"/>
      <point x="510" y="331"/>
      <point x="494" y="321" type="curve"/>
      <point x="470" y="332"/>
      <point x="440" y="335"/>
      <point x="398" y="335" type="curve" smooth="yes"/>
      <point x="198" y="335" type="line"/>
      <point x="198" y="420" type="line"/>
    </contour>
  </outline>
</glyph>
<glyph name="F" format="1">
  <advance width="626"/>
  <unicode hex="0046"/>
  <outline>
    <contour>
      <point x="407" y="415" type="line"/>
      <point x="489" y="415"/>
      <point x="521" y="403"/>
      <point x="521" y="368" type="curve" smooth="yes"/>
      <point x="521" y="348"/>
      <point x="510" y="333"/>
      <point x="494" y="323" type="curve"/>
      <point x="470" y="334"/>
      <point x="440" y="336"/>
      <point x="398" y="336" type="curve" smooth="yes"/>
      <point x="198" y="336" type="line"/>
      <point x="198" y="415" type="line"/>
    </contour>
    <contour>
      <point x="112" y="636" type="line"/>
      <point x="112" y="662"/>
      <point x="103" y="676"/>
      <point x="84" y="684" type="curve"/>
      <point x="102" y="709"/>
      <point x="126" y="723"/>
      <point x="167" y="723" type="curve" smooth="yes"/>
      <point x="492" y="723" type="line" smooth="yes"/>
      <point x="574" y="723"/>
      <point x="602" y="700"/>
      <point x="602" y="667" type="curve" smooth="yes"/>
      <point x="602" y="644"/>
      <point x="590" y="627"/>
      <point x="572" y="618" type="curve"/>
      <point x="548" y="635"/>
      <point x="518" y="641"/>
      <point x="476" y="641" type="curve" smooth="yes"/>
      <point x="217" y="641" type="line"/>
      <point x="217" y="74" type="line" smooth="yes"/>
      <point x="217" y="49"/>
      <point x="225" y="34"/>
      <point x="244" y="26" type="curve"/>
      <point x="229" y="6"/>
      <point x="208" y="-9"/>
      <point x="180" y="-9" type="curve" smooth="yes"/>
      <point x="134" y="-9"/>
      <point x="112" y="20"/>
      <point x="112" y="76" type="curve" smooth="yes"/>
    </contour>
  </outline>
</glyph>
<glyph name="G" format="1">
  <advance width="737"/>
  <unicode hex="0047"/>
  <outline>
    <contour>
      <point x="423" y="723" type="move" name="top"/>
    </contour>
    <contour>
      <point x="369" y="0" type="move" name="bottom"/>
    </contour>
    <contour>
      <point x="668" y="598" type="curve" smooth="yes"/>
      <point x="668" y="562"/>
      <point x="635" y="537"/>
      <point x="595" y="537" type="curve" smooth="yes"/>
      <point x="580" y="537"/>
      <point x="564" y="540"/>
      <point x="549" y="548" type="curve"/>
      <point x="555" y="613"/>
      <point x="509" y="660"/>
      <point x="421" y="660" type="curve" smooth="yes"/>
      <point x="274" y="660"/>
      <point x="179" y="545"/>
      <point x="178" y="350" type="curve" smooth="yes"/>
      <point x="178" y="177"/>
      <point x="257" y="77"/>
      <point x="390" y="77" type="curve" smooth="yes"/>
      <point x="472" y="77"/>
      <point x="523" y="112"/>
      <point x="556" y="181" type="curve"/>
      <point x="557" y="301" type="line"/>
      <point x="506" y="301" type="line" smooth="yes"/>
      <point x="467" y="301"/>
      <point x="422" y="299"/>
      <point x="392" y="297" type="curve"/>
      <point x="384" y="308"/>
      <point x="379" y="325"/>
      <point x="379" y="335" type="curve" smooth="yes"/>
      <point x="379" y="371"/>
      <point x="418" y="384"/>
      <point x="539" y="384" type="curve" smooth="yes"/>
      <point x="643" y="384"/>
      <point x="662" y="361"/>
      <point x="662" y="303" type="curve" smooth="yes"/>
      <point x="660" y="-18" type="line" smooth="yes"/>
      <point x="660" y="-45"/>
      <point x="669" y="-58"/>
      <point x="687" y="-66" type="curve"/>
      <point x="673" y="-87"/>
      <point x="652" y="-101"/>
      <point x="623" y="-101" type="curve" smooth="yes"/>
      <point x="577" y="-101"/>
      <point x="555" y="-74"/>
      <point x="555" y="-18" type="curve" smooth="yes"/>
      <point x="555" y="108" type="line"/>
      <point x="574" y="108" type="line"/>
      <point x="547" y="51"/>
      <point x="472" y="-9"/>
      <point x="367" y="-9" type="curve" smooth="yes"/>
      <point x="211" y="-9"/>
      <point x="64" y="109"/>
      <point x="64" y="327" type="curve" smooth="yes"/>
      <point x="64" y="564"/>
      <point x="212" y="731"/>
      <point x="444" y="731" type="curve" smooth="yes"/>
      <point x="579" y="731"/>
      <point x="668" y="668"/>
    </contour>
  </outline>
</glyph>
<glyph name="H" format="1">
  <advance width="778"/>
  <unicode hex="0048"/>
  <outline>
    <contour>
      <point x="205" y="74" type="curve"/>
      <point x="205" y="648" type="line" smooth="yes"/>
      <point x="205" y="704"/>
      <point x="182" y="731"/>
      <point x="136" y="731" type="curve" smooth="yes"/>
      <point x="108" y="731"/>
      <point x="86" y="716"/>
      <point x="73" y="696" type="curve"/>
      <point x="91" y="688"/>
      <point x="100" y="674"/>
      <point x="100" y="649" type="curve" smooth="yes"/>
      <point x="100" y="75" type="line" smooth="yes"/>
      <point x="100" y="19"/>
      <point x="122" y="-9"/>
      <point x="168" y="-9" type="curve" smooth="yes"/>
      <point x="196" y="-9"/>
      <point x="218" y="6"/>
      <point x="232" y="26" type="curve"/>
      <point x="214" y="34"/>
      <point x="205" y="48"/>
    </contour>
    <contour>
      <point x="676" y="74" type="curve"/>
      <point x="676" y="648" type="line" smooth="yes"/>
      <point x="676" y="704"/>
      <point x="654" y="731"/>
      <point x="607" y="731" type="curve" smooth="yes"/>
      <point x="579" y="731"/>
      <point x="557" y="716"/>
      <point x="544" y="696" type="curve"/>
      <point x="562" y="688"/>
      <point x="571" y="674"/>
      <point x="571" y="649" type="curve" smooth="yes"/>
      <point x="571" y="75" type="line" smooth="yes"/>
      <point x="571" y="19"/>
      <point x="592" y="-9"/>
      <point x="639" y="-9" type="curve" smooth="yes"/>
      <point x="667" y="-9"/>
      <point x="688" y="6"/>
      <point x="703" y="26" type="curve"/>
      <point x="684" y="34"/>
      <point x="676" y="48"/>
    </contour>
    <contour>
      <point x="600" y="400" type="line"/>
      <point x="173" y="400" type="line"/>
      <point x="173" y="326" type="line"/>
      <point x="600" y="326" type="line"/>
    </contour>
  </outline>
</glyph>
<glyph name="I" format="1">
  <advance width="308"/>
  <unicode hex="0049"/>
  <outline>
    <contour>
      <point x="153" y="723" type="move" name="top"/>
    </contour>
    <contour>
      <point x="229" y="11" type="move" name="ogonek"/>
    </contour>
    <contour>
      <point x="205" y="74" type="curve"/>
      <point x="205" y="648" type="line" smooth="yes"/>
      <point x="205" y="704"/>
      <point x="182" y="731"/>
      <point x="136" y="731" type="curve" smooth="yes"/>
      <point x="108" y="731"/>
      <point x="86" y="716"/>
      <point x="73" y="696" type="curve"/>
      <point x="91" y="688"/>
      <point x="100" y="674"/>
      <point x="100" y="649" type="curve" smooth="yes"/>
      <point x="100" y="75" type="line" smooth="yes"/>
      <point x="100" y="19"/>
      <point x="122" y="-9"/>
      <point x="168" y="-9" type="curve" smooth="yes"/>
      <point x="196" y="-9"/>
      <point x="218" y="6"/>
      <point x="232" y="26" type="curve"/>
      <point x="214" y="34"/>
      <point x="205" y="48"/>
    </contour>
  </outline>
</glyph>
<glyph name="J" format="1">
  <advance width="417"/>
  <unicode hex="004A"/>
  <outline>
    <contour>
      <point x="168" y="-9" type="curve" smooth="yes"/>
      <point x="269" y="-9"/>
      <point x="340" y="49"/>
      <point x="340" y="162" type="curve" smooth="yes"/>
      <point x="340" y="648" type="line" smooth="yes"/>
      <point x="340" y="704"/>
      <point x="318" y="731"/>
      <point x="272" y="731" type="curve" smooth="yes"/>
      <point x="244" y="731"/>
      <point x="222" y="716"/>
      <point x="208" y="696" type="curve"/>
      <point x="227" y="688"/>
      <point x="235" y="674"/>
      <point x="235" y="649" type="curve" smooth="yes"/>
      <point x="235" y="158" type="line" smooth="yes"/>
      <point x="235" y="102"/>
      <point x="203" y="77"/>
      <point x="151" y="77" type="curve" smooth="yes"/>
      <point x="106" y="77"/>
      <point x="72" y="90"/>
      <point x="40" y="114" type="curve"/>
      <point x="31" y="105"/>
      <point x="25" y="90"/>
      <point x="25" y="74" type="curve" smooth="yes"/>
      <point x="25" y="30"/>
      <point x="78" y="-9"/>
    </contour>
  </outline>
</glyph>
<glyph name="K" format="1">
  <advance width="680"/>
  <unicode hex="004B"/>
  <outline>
    <contour>
      <point x="340" y="700" type="move" name="top"/>
    </contour>
    <contour>
      <point x="352" y="0" type="move" name="bottom"/>
    </contour>
    <contour>
      <point x="205" y="74" type="curve" smooth="yes"/>
      <point x="205" y="648" type="line" smooth="yes"/>
      <point x="205" y="704"/>
      <point x="182" y="731"/>
      <point x="136" y="731" type="curve" smooth="yes"/>
      <point x="108" y="731"/>
      <point x="86" y="716"/>
      <point x="73" y="696" type="curve"/>
      <point x="91" y="688"/>
      <point x="100" y="674"/>
      <point x="100" y="649" type="curve" smooth="yes"/>
      <point x="100" y="75" type="line" smooth="yes"/>
      <point x="100" y="19"/>
      <point x="122" y="-9"/>
      <point x="168" y="-9" type="curve" smooth="yes"/>
      <point x="196" y="-9"/>
      <point x="218" y="6"/>
      <point x="232" y="26" type="curve"/>
      <point x="214" y="34"/>
      <point x="205" y="48"/>
    </contour>
    <contour>
      <point x="632" y="658" type="curve"/>
      <point x="628" y="701"/>
      <point x="600" y="731"/>
      <point x="557" y="731" type="curve" smooth="yes"/>
      <point x="511" y="731"/>
      <point x="480" y="707"/>
      <point x="421" y="628" type="curve" smooth="yes"/>
      <point x="198" y="365" type="line"/>
      <point x="198" y="342" type="line"/>
      <point x="420" y="87" type="line" smooth="yes"/>
      <point x="483" y="14"/>
      <point x="511" y="-9"/>
      <point x="558" y="-9" type="curve" smooth="yes"/>
      <point x="597" y="-8"/>
      <point x="630" y="28"/>
      <point x="630" y="75" type="curve"/>
      <point x="591" y="71"/>
      <point x="567" y="87"/>
      <point x="521" y="132" type="curve" smooth="yes"/>
      <point x="266" y="388" type="line"/>
      <point x="265" y="342" type="line"/>
      <point x="535" y="605" type="line" smooth="yes"/>
      <point x="573" y="642"/>
      <point x="602" y="655"/>
    </contour>
  </outline>
</glyph>
<glyph name="L" format="1">
  <advance width="580"/>
  <unicode hex="004C"/>
  <outline>
    <contour>
      <point x="153" y="723" type="move" name="top"/>
    </contour>
    <contour>
      <point x="228" y="700" type="move" name="topright"/>
    </contour>
    <contour>
      <point x="325" y="0" type="move" name="bottom"/>
    </contour>
    <contour>
      <point x="210" y="648" type="curve" smooth="yes"/>
      <point x="210" y="149" type="line" smooth="yes"/>
      <point x="210" y="100"/>
      <point x="230" y="80"/>
      <point x="278" y="80" type="curve" smooth="yes"/>
      <point x="425" y="80" type="line" smooth="yes"/>
      <point x="467" y="80"/>
      <point x="494" y="94"/>
      <point x="514" y="121" type="curve"/>
      <point x="531" y="114"/>
      <point x="541" y="95"/>
      <point x="541" y="77" type="curve" smooth="yes"/>
      <point x="541" y="35"/>
      <point x="508" y="0"/>
      <point x="427" y="0" type="curve" smooth="yes"/>
      <point x="263" y="0" type="line" smooth="yes"/>
      <point x="153" y="0"/>
      <point x="104" y="37"/>
      <point x="104" y="141" type="curve" smooth="yes"/>
      <point x="104" y="649" type="line" smooth="yes"/>
      <point x="104" y="674"/>
      <point x="95" y="688"/>
      <point x="77" y="696" type="curve"/>
      <point x="91" y="716"/>
      <point x="113" y="731"/>
      <point x="141" y="731" type="curve" smooth="yes"/>
      <point x="187" y="731"/>
      <point x="210" y="704"/>
    </contour>
  </outline>
</glyph>
<glyph name="M" format="1">
  <advance width="960"/>
  <unicode hex="004D"/>
  <outline>
    <contour>
      <point x="831" y="647" type="line"/>
      <point x="829" y="673"/>
      <point x="834" y="696"/>
      <point x="847" y="713" type="curve"/>
      <point x="827" y="723"/>
      <point x="804" y="731"/>
      <point x="775" y="731" type="curve" smooth="yes"/>
      <point x="714" y="731"/>
      <point x="674" y="708"/>
      <point x="646" y="621" type="curve" smooth="yes"/>
      <point x="464" y="146" type="line"/>
      <point x="496" y="146" type="line"/>
      <point x="319" y="623" type="line" smooth="yes"/>
      <point x="296" y="695"/>
      <point x="266" y="731"/>
      <point x="205" y="731" type="curve" smooth="yes"/>
      <point x="166" y="731"/>
      <point x="135" y="719"/>
      <point x="112" y="705" type="curve"/>
      <point x="124" y="691"/>
      <point x="130" y="668"/>
      <point x="128" y="642" type="curve" smooth="yes"/>
      <point x="86" y="78" type="line" smooth="yes"/>
      <point x="84" y="51"/>
      <point x="78" y="30"/>
      <point x="63" y="17" type="curve"/>
      <point x="78" y="2"/>
      <point x="99" y="-9"/>
      <point x="123" y="-9" type="curve" smooth="yes"/>
      <point x="163" y="-9"/>
      <point x="180" y="17"/>
      <point x="184" y="73" type="curve" smooth="yes"/>
      <point x="223" y="672" type="line"/>
      <point x="196" y="666" type="line"/>
      <point x="428" y="39" type="line" smooth="yes"/>
      <point x="435" y="19"/>
      <point x="444" y="7"/>
      <point x="471" y="7" type="curve" smooth="yes"/>
      <point x="498" y="7"/>
      <point x="509" y="19"/>
      <point x="516" y="39" type="curve" smooth="yes"/>
      <point x="752" y="668" type="line"/>
      <point x="724" y="670" type="line"/>
      <point x="763" y="70" type="line" smooth="yes"/>
      <point x="768" y="12"/>
      <point x="791" y="-8"/>
      <point x="831" y="-8" type="curve" smooth="yes"/>
      <point x="855" y="-8"/>
      <point x="871" y="-1"/>
      <point x="887" y="9" type="curve"/>
      <point x="876" y="23"/>
      <point x="871" y="54"/>
      <point x="870" y="80" type="curve" smooth="yes"/>
    </contour>
  </outline>
</glyph>
<glyph name="N" format="1">
  <advance width="794"/>
  <unicode hex="004E"/>
  <outline>
    <contour>
      <point x="397" y="723" type="move" name="top"/>
    </contour>
    <contour>
      <point x="403" y="0" type="move" name="bottom"/>
    </contour>
    <contour>
      <point x="262" y="658" type="curve" smooth="yes"/>
      <point x="585" y="141" type="line"/>
      <point x="585" y="649" type="line" smooth="yes"/>
      <point x="585" y="674"/>
      <point x="576" y="688"/>
      <point x="558" y="696" type="curve"/>
      <point x="572" y="716"/>
      <point x="594" y="731"/>
      <point x="622" y="731" type="curve" smooth="yes"/>
      <point x="668" y="731"/>
      <point x="691" y="704"/>
      <point x="691" y="648" type="curve" smooth="yes"/>
      <point x="691" y="74" type="line" smooth="yes"/>
      <point x="691" y="48"/>
      <point x="697" y="33"/>
      <point x="712" y="20" type="curve"/>
      <point x="699" y="3"/>
      <point x="678" y="-9"/>
      <point x="646" y="-9" type="curve" smooth="yes"/>
      <point x="598" y="-9"/>
      <point x="560" y="22"/>
      <point x="514" y="95" type="curve" smooth="yes"/>
      <point x="214" y="568" type="line"/>
      <point x="214" y="74" type="line" smooth="yes"/>
      <point x="214" y="48"/>
      <point x="222" y="34"/>
      <point x="241" y="26" type="curve"/>
      <point x="226" y="6"/>
      <point x="206" y="-9"/>
      <point x="177" y="-9" type="curve" smooth="yes"/>
      <point x="131" y="-9"/>
      <point x="109" y="19"/>
      <point x="109" y="75" type="curve" smooth="yes"/>
      <point x="109" y="649" type="line" smooth="yes"/>
      <point x="109" y="674"/>
      <point x="100" y="688"/>
      <point x="81" y="696" type="curve"/>
      <point x="96" y="716"/>
      <point x="117" y="731"/>
      <point x="152" y="731" type="curve" smooth="yes"/>
      <point x="200" y="731"/>
      <point x="230" y="708"/>
    </contour>
  </outline>
</glyph>
<glyph name="O" format="1">
  <advance width="776"/>
  <unicode hex="004F"/>
  <outline>
    <contour>
      <point x="389" y="723" type="move" name="top"/>
    </contour>
    <contour>
      <point x="705" y="362" type="curve" smooth="yes"/>
      <point x="705" y="143"/>
      <point x="592" y="-9"/>
      <point x="389" y="-9" type="curve" smooth="yes"/>
      <point x="186" y="-9"/>
      <point x="70" y="141"/>
      <point x="70" y="362" type="curve" smooth="yes"/>
      <point x="70" y="580"/>
      <point x="186" y="731"/>
      <point x="389" y="731" type="curve" smooth="yes"/>
      <point x="593" y="731"/>
      <point x="705" y="583"/>
    </contour>
    <contour>
      <point x="408" y="65" type="curve" smooth="yes"/>
      <point x="536" y="65"/>
      <point x="611" y="191"/>
      <point x="597" y="372" type="curve" smooth="yes"/>
      <point x="585" y="553"/>
      <point x="495" y="658"/>
      <point x="367" y="658" type="curve" smooth="yes"/>
      <point x="241" y="658"/>
      <point x="165" y="532"/>
      <point x="179" y="350" type="curve" smooth="yes"/>
      <point x="193" y="169"/>
      <point x="282" y="65"/>
    </contour>
  </outline>
</glyph>
<glyph name="P" format="1">
  <advance width="624"/>
  <unicode hex="0050"/>
  <outline>
    <contour>
      <point x="589" y="496" type="curve" smooth="yes"/>
      <point x="589" y="351"/>
      <point x="473" y="269"/>
      <point x="321" y="269" type="curve" smooth="yes"/>
      <point x="201" y="269" type="line"/>
      <point x="201" y="74" type="line" smooth="yes"/>
      <point x="201" y="48"/>
      <point x="210" y="34"/>
      <point x="229" y="26" type="curve"/>
      <point x="214" y="6"/>
      <point x="193" y="-9"/>
      <point x="164" y="-9" type="curve" smooth="yes"/>
      <point x="119" y="-9"/>
      <point x="96" y="19"/>
      <point x="96" y="75" type="curve" smooth="yes"/>
      <point x="96" y="636" type="line" smooth="yes"/>
      <point x="96" y="662"/>
      <point x="87" y="676"/>
      <point x="69" y="684" type="curve"/>
      <point x="87" y="709"/>
      <point x="111" y="723"/>
      <point x="152" y="723" type="curve" smooth="yes"/>
      <point x="321" y="723" type="line" smooth="yes"/>
      <point x="473" y="723"/>
      <point x="589" y="641"/>
    </contour>
    <contour>
      <point x="201" y="650" type="line"/>
      <point x="201" y="341" type="line"/>
      <point x="309" y="341" type="line" smooth="yes"/>
      <point x="418" y="341"/>
      <point x="472" y="406"/>
      <point x="472" y="495" type="curve" smooth="yes"/>
      <point x="472" y="585"/>
      <point x="418" y="650"/>
      <point x="309" y="650" type="curve" smooth="yes"/>
    </contour>
  </outline>
</glyph>
<glyph name="Q" format="1">
  <advance width="795"/>
  <unicode hex="0051"/>
  <outline>
    <contour>
      <point x="722" y="407" type="curve" smooth="yes"/>
      <point x="722" y="178"/>
      <point x="577" y="35"/>
      <point x="376" y="-15" type="curve"/>
      <point x="438" y="-77"/>
      <point x="531" y="-109"/>
      <point x="607" y="-109" type="curve" smooth="yes"/>
      <point x="650" y="-109"/>
      <point x="689" y="-97"/>
      <point x="720" y="-71" type="curve"/>
      <point x="759" y="-115"/>
      <point x="730" y="-216"/>
      <point x="597" y="-216" type="curve" smooth="yes"/>
      <point x="447" y="-216"/>
      <point x="292" y="-76"/>
      <point x="292" y="-4" type="curve" smooth="yes"/>
      <point x="292" y="14"/>
      <point x="304" y="25"/>
      <point x="364" y="45" type="curve" smooth="yes"/>
      <point x="508" y="95"/>
      <point x="609" y="206"/>
      <point x="609" y="393" type="curve" smooth="yes"/>
      <point x="609" y="553"/>
      <point x="515" y="658"/>
      <point x="386" y="658" type="curve" smooth="yes"/>
      <point x="270" y="658"/>
      <point x="191" y="556"/>
      <point x="191" y="406" type="curve" smooth="yes"/>
      <point x="191" y="272"/>
      <point x="253" y="193"/>
      <point x="340" y="193" type="curve" smooth="yes"/>
      <point x="346" y="193"/>
      <point x="351" y="193"/>
      <point x="357" y="194" type="curve"/>
      <point x="357" y="189"/>
      <point x="358" y="184"/>
      <point x="358" y="179" type="curve" smooth="yes"/>
      <point x="358" y="143"/>
      <point x="332" y="110"/>
      <point x="278" y="110" type="curve" smooth="yes"/>
      <point x="178" y="110"/>
      <point x="81" y="208"/>
      <point x="81" y="365" type="curve" smooth="yes"/>
      <point x="81" y="576"/>
      <point x="221" y="731"/>
      <point x="410" y="731" type="curve" smooth="yes"/>
      <point x="589" y="731"/>
      <point x="722" y="605"/>
    </contour>
  </outline>
</glyph>
<glyph name="R" format="1">
  <advance width="644"/>
  <unicode hex="0052"/>
  <outline>
    <contour>
      <point x="317" y="716" type="move" name="top"/>
    </contour>
    <contour>
      <point x="334" y="0" type="move" name="bottom"/>
    </contour>
    <contour>
      <point x="515" y="128" type="curve" smooth="yes"/>
      <point x="358" y="326" type="line"/>
      <point x="264" y="317" type="line"/>
      <point x="416" y="89" type="line" smooth="yes"/>
      <point x="459" y="20"/>
      <point x="485" y="-9"/>
      <point x="533" y="-9" type="curve" smooth="yes"/>
      <point x="573" y="-9"/>
      <point x="601" y="21"/>
      <point x="606" y="67" type="curve"/>
      <point x="573" y="67"/>
      <point x="551" y="85"/>
    </contour>
    <contour>
      <point x="582" y="506" type="curve" smooth="yes"/>
      <point x="582" y="647"/>
      <point x="464" y="723"/>
      <point x="313" y="723" type="curve" smooth="yes"/>
      <point x="152" y="723" type="line" smooth="yes"/>
      <point x="111" y="723"/>
      <point x="87" y="709"/>
      <point x="69" y="684" type="curve"/>
      <point x="87" y="676"/>
      <point x="96" y="662"/>
      <point x="96" y="636" type="curve" smooth="yes"/>
      <point x="96" y="75" type="line" smooth="yes"/>
      <point x="96" y="19"/>
      <point x="119" y="-9"/>
      <point x="164" y="-9" type="curve" smooth="yes"/>
      <point x="193" y="-9"/>
      <point x="214" y="6"/>
      <point x="229" y="26" type="curve"/>
      <point x="210" y="34"/>
      <point x="201" y="48"/>
      <point x="201" y="74" type="curve" smooth="yes"/>
      <point x="201" y="290" type="line"/>
      <point x="313" y="290" type="line" smooth="yes"/>
      <point x="464" y="290"/>
      <point x="582" y="366"/>
    </contour>
    <contour>
      <point x="201" y="643" type="line"/>
      <point x="309" y="643" type="line" smooth="yes"/>
      <point x="418" y="643"/>
      <point x="472" y="590"/>
      <point x="472" y="505" type="curve" smooth="yes"/>
      <point x="472" y="420"/>
      <point x="418" y="369"/>
      <point x="309" y="369" type="curve" smooth="yes"/>
      <point x="201" y="369" type="line"/>
    </contour>
  </outline>
</glyph>
<glyph name="S" format="1">
  <advance width="661"/>
  <unicode hex="0053"/>
  <outline>
    <contour>
      <point x="331" y="723" type="move" name="top"/>
    </contour>
    <contour>
      <point x="331" y="0" type="move" name="bottom"/>
    </contour>
    <contour>
      <point x="582" y="591" type="curve" smooth="yes"/>
      <point x="582" y="549"/>
      <point x="555" y="524"/>
      <point x="520" y="524" type="curve" smooth="yes"/>
      <point x="501" y="524"/>
      <point x="483" y="530"/>
      <point x="467" y="538" type="curve"/>
      <point x="471" y="550"/>
      <point x="473" y="562"/>
      <point x="473" y="571" type="curve" smooth="yes"/>
      <point x="473" y="611"/>
      <point x="430" y="662"/>
      <point x="336" y="662" type="curve" smooth="yes"/>
      <point x="253" y="662"/>
      <point x="194" y="626"/>
      <point x="194" y="562" type="curve" smooth="yes"/>
      <point x="194" y="412"/>
      <point x="604" y="404"/>
      <point x="604" y="202" type="curve" smooth="yes"/>
      <point x="604" y="78"/>
      <point x="479" y="-9"/>
      <point x="332" y="-9" type="curve" smooth="yes"/>
      <point x="184" y="-9"/>
      <point x="71" y="61"/>
      <point x="71" y="159" type="curve" smooth="yes"/>
      <point x="71" y="207"/>
      <point x="106" y="237"/>
      <point x="144" y="237" type="curve" smooth="yes"/>
      <point x="170" y="237"/>
      <point x="190" y="227"/>
      <point x="204" y="211" type="curve"/>
      <point x="190" y="199"/>
      <point x="181" y="180"/>
      <point x="181" y="157" type="curve" smooth="yes"/>
      <point x="181" y="108"/>
      <point x="234" y="64"/>
      <point x="332" y="64" type="curve" smooth="yes"/>
      <point x="424" y="64"/>
      <point x="499" y="114"/>
      <point x="499" y="183" type="curve" smooth="yes"/>
      <point x="499" y="331"/>
      <point x="88" y="331"/>
      <point x="88" y="542" type="curve" smooth="yes"/>
      <point x="88" y="660"/>
      <point x="210" y="734"/>
      <point x="339" y="734" type="curve" smooth="yes"/>
      <point x="487" y="734"/>
      <point x="582" y="669"/>
    </contour>
  </outline>
</glyph>
<glyph name="T" format="1">
  <advance width="578"/>
  <unicode hex="0054"/>
  <outline>
    <contour>
      <point x="290" y="700" type="move" name="top"/>
    </contour>
    <contour>
      <point x="300" y="0" type="move" name="bottom"/>
    </contour>
    <contour>
      <point x="341" y="680" type="line"/>
      <point x="341" y="74" type="line" smooth="yes"/>
      <point x="341" y="48"/>
      <point x="350" y="34"/>
      <point x="368" y="26" type="curve"/>
      <point x="354" y="6"/>
      <point x="333" y="-9"/>
      <point x="305" y="-9" type="curve" smooth="yes"/>
      <point x="258" y="-9"/>
      <point x="236" y="19"/>
      <point x="236" y="75" type="curve" smooth="yes"/>
      <point x="236" y="680" type="line"/>
    </contour>
    <contour>
      <point x="494" y="723" type="line"/>
      <point x="548" y="723"/>
      <point x="562" y="698"/>
      <point x="562" y="669" type="curve" smooth="yes"/>
      <point x="562" y="653"/>
      <point x="553" y="636"/>
      <point x="543" y="626" type="curve"/>
      <point x="523" y="636"/>
      <point x="498" y="641"/>
      <point x="462" y="641" type="curve" smooth="yes"/>
      <point x="84" y="641" type="line" smooth="yes"/>
      <point x="31" y="641"/>
      <point x="17" y="665"/>
      <point x="17" y="695" type="curve" smooth="yes"/>
      <point x="17" y="709"/>
      <point x="25" y="727"/>
      <point x="35" y="737" type="curve"/>
      <point x="58" y="726"/>
      <point x="81" y="723"/>
      <point x="117" y="723" type="curve" smooth="yes"/>
    </contour>
  </outline>
</glyph>
<glyph name="U" format="1">
  <advance width="719"/>
  <unicode hex="0055"/>
  <outline>
    <contour>
      <point x="377" y="723" type="move" name="top"/>
    </contour>
    <contour>
      <point x="440" y="9" type="move" name="ogonek"/>
    </contour>
    <contour>
      <point x="203" y="648" type="line"/>
      <point x="203" y="704"/>
      <point x="181" y="731"/>
      <point x="135" y="731" type="curve" smooth="yes"/>
      <point x="107" y="731"/>
      <point x="86" y="716"/>
      <point x="71" y="696" type="curve"/>
      <point x="90" y="688"/>
      <point x="99" y="674"/>
      <point x="99" y="649" type="curve" smooth="yes"/>
      <point x="99" y="259" type="line" smooth="yes"/>
      <point x="99" y="99"/>
      <point x="182" y="-9"/>
      <point x="374" y="-9" type="curve" smooth="yes"/>
      <point x="567" y="-9"/>
      <point x="648" y="99"/>
      <point x="648" y="259" type="curve" smooth="yes"/>
      <point x="648" y="648" type="line" smooth="yes"/>
      <point x="648" y="704"/>
      <point x="626" y="731"/>
      <point x="580" y="731" type="curve" smooth="yes"/>
      <point x="552" y="731"/>
      <point x="530" y="716"/>
      <point x="516" y="696" type="curve"/>
      <point x="535" y="688"/>
      <point x="544" y="674"/>
      <point x="544" y="649" type="curve" smooth="yes"/>
      <point x="544" y="245" type="line" smooth="yes"/>
      <point x="544" y="131"/>
      <point x="485" y="75"/>
      <point x="374" y="75" type="curve" smooth="yes"/>
      <point x="260" y="75"/>
      <point x="203" y="134"/>
      <point x="203" y="245" type="curve" smooth="yes"/>
    </contour>
  </outline>
</glyph>
<glyph name="V" format="1">
  <advance width="709"/>
  <unicode hex="0056"/>
  <outline>
    <contour>
      <point x="550" y="555" type="curve" smooth="yes"/>
      <point x="550" y="393"/>
      <point x="453" y="173"/>
      <point x="317" y="50" type="curve"/>
      <point x="346" y="37" type="line"/>
      <point x="161" y="644" type="line" smooth="yes"/>
      <point x="141" y="713"/>
      <point x="115" y="731"/>
      <point x="78" y="731" type="curve" smooth="yes"/>
      <point x="49" y="731"/>
      <point x="24" y="718"/>
      <point x="7" y="692" type="curve"/>
      <point x="28" y="682"/>
      <point x="37" y="663"/>
      <point x="49" y="629" type="curve" smooth="yes"/>
      <point x="233" y="71" type="line" smooth="yes"/>
      <point x="253" y="12"/>
      <point x="275" y="-9"/>
      <point x="320" y="-9" type="curve"/>
      <point x="429" y="-9"/>
      <point x="671" y="334"/>
      <point x="671" y="582" type="curve" smooth="yes"/>
      <point x="671" y="678"/>
      <point x="639" y="732"/>
      <point x="582" y="732" type="curve" smooth="yes"/>
      <point x="558" y="732"/>
      <point x="530" y="720"/>
      <point x="513" y="706" type="curve"/>
      <point x="543" y="662"/>
      <point x="550" y="621"/>
    </contour>
  </outline>
</glyph>
<glyph name="W" format="1">
  <advance width="988"/>
  <unicode hex="0057"/>
  <outline>
    <contour>
      <point x="174" y="644" type="curve" smooth="yes"/>
      <point x="328" y="38" type="line"/>
      <point x="287" y="43" type="line"/>
      <point x="381" y="175"/>
      <point x="438" y="376"/>
      <point x="478" y="605" type="curve"/>
      <point x="543" y="523" type="line"/>
      <point x="514" y="310"/>
      <point x="387" y="-9"/>
      <point x="302" y="-9" type="curve" smooth="yes"/>
      <point x="257" y="-9"/>
      <point x="235" y="10"/>
      <point x="218" y="72" type="curve" smooth="yes"/>
      <point x="62" y="629" type="line" smooth="yes"/>
      <point x="53" y="663"/>
      <point x="42" y="682"/>
      <point x="20" y="692" type="curve"/>
      <point x="37" y="718"/>
      <point x="62" y="731"/>
      <point x="91" y="731" type="curve" smooth="yes"/>
      <point x="128" y="731"/>
      <point x="158" y="712"/>
    </contour>
    <contour>
      <point x="536" y="656" type="curve" smooth="yes"/>
      <point x="696" y="44" type="line"/>
      <point x="665" y="52" type="line"/>
      <point x="775" y="186"/>
      <point x="831" y="404"/>
      <point x="831" y="532" type="curve" smooth="yes"/>
      <point x="831" y="616"/>
      <point x="809" y="685"/>
      <point x="780" y="706" type="curve"/>
      <point x="794" y="719"/>
      <point x="826" y="731"/>
      <point x="848" y="731" type="curve" smooth="yes"/>
      <point x="905" y="731"/>
      <point x="946" y="670"/>
      <point x="946" y="565" type="curve" smooth="yes"/>
      <point x="946" y="353"/>
      <point x="771" y="-9"/>
      <point x="664" y="-9" type="curve" smooth="yes"/>
      <point x="629" y="-9"/>
      <point x="605" y="13"/>
      <point x="589" y="72" type="curve" smooth="yes"/>
      <point x="434" y="629" type="line" smooth="yes"/>
      <point x="424" y="663"/>
      <point x="413" y="682"/>
      <point x="392" y="692" type="curve"/>
      <point x="409" y="718"/>
      <point x="433" y="731"/>
      <point x="462" y="731" type="curve" smooth="yes"/>
      <point x="498" y="731"/>
      <point x="522" y="713"/>
    </contour>
  </outline>
</glyph>
<glyph name="X" format="1">
  <advance width="643"/>
  <unicode hex="0058"/>
  <outline>
    <contour>
      <point x="286" y="385" type="line"/>
      <point x="331" y="325" type="line"/>
      <point x="199" y="105" type="line" smooth="yes"/>
      <point x="149" y="18"/>
      <point x="121" y="-9"/>
      <point x="80" y="-9" type="curve" smooth="yes"/>
      <point x="48" y="-9"/>
      <point x="16" y="14"/>
      <point x="19" y="59" type="curve"/>
      <point x="43" y="59"/>
      <point x="59" y="68"/>
      <point x="77" y="93" type="curve" smooth="yes"/>
    </contour>
    <contour>
      <point x="181" y="673" type="curve" smooth="yes"/>
      <point x="554" y="102" type="line" smooth="yes"/>
      <point x="578" y="65"/>
      <point x="600" y="54"/>
      <point x="624" y="52" type="curve"/>
      <point x="614" y="17"/>
      <point x="587" y="-9"/>
      <point x="550" y="-9" type="curve" smooth="yes"/>
      <point x="515" y="-9"/>
      <point x="493" y="6"/>
      <point x="464" y="49" type="curve" smooth="yes"/>
      <point x="91" y="620" type="line" smooth="yes"/>
      <point x="67" y="657"/>
      <point x="44" y="668"/>
      <point x="18" y="669" type="curve"/>
      <point x="28" y="706"/>
      <point x="57" y="731"/>
      <point x="94" y="731" type="curve" smooth="yes"/>
      <point x="129" y="731"/>
      <point x="153" y="716"/>
    </contour>
    <contour>
      <point x="624" y="662" type="curve"/>
      <point x="600" y="662"/>
      <point x="584" y="653"/>
      <point x="566" y="628" type="curve" smooth="yes"/>
      <point x="359" y="339" type="line"/>
      <point x="313" y="398" type="line"/>
      <point x="444" y="616" type="line" smooth="yes"/>
      <point x="494" y="703"/>
      <point x="522" y="731"/>
      <point x="563" y="731" type="curve" smooth="yes"/>
      <point x="595" y="731"/>
      <point x="627" y="707"/>
    </contour>
  </outline>
</glyph>
<glyph name="Y" format="1">
  <advance width="613"/>
  <unicode hex="0059"/>
  <outline>
    <contour>
      <point x="318" y="723" type="move" name="top"/>
    </contour>
    <contour>
      <point x="173" y="666" type="curve" smooth="yes"/>
      <point x="341" y="372" type="line"/>
      <point x="289" y="373" type="line"/>
      <point x="464" y="634" type="line" smooth="yes"/>
      <point x="488" y="667"/>
      <point x="487" y="696"/>
      <point x="468" y="716" type="curve"/>
      <point x="485" y="725"/>
      <point x="505" y="731"/>
      <point x="530" y="731" type="curve" smooth="yes"/>
      <point x="569" y="731"/>
      <point x="593" y="709"/>
      <point x="593" y="678" type="curve" smooth="yes"/>
      <point x="593" y="660"/>
      <point x="585" y="638"/>
      <point x="571" y="617" type="curve" smooth="yes"/>
      <point x="361" y="320" type="line"/>
      <point x="360" y="70" type="line" smooth="yes"/>
      <point x="360" y="47"/>
      <point x="366" y="23"/>
      <point x="377" y="9" type="curve"/>
      <point x="362" y="-1"/>
      <point x="345" y="-8"/>
      <point x="320" y="-8" type="curve" smooth="yes"/>
      <point x="281" y="-8"/>
      <point x="255" y="20"/>
      <point x="255" y="80" type="curve" smooth="yes"/>
      <point x="256" y="318" type="line"/>
      <point x="73" y="634" type="line" smooth="yes"/>
      <point x="57" y="658"/>
      <point x="38" y="672"/>
      <point x="13" y="673" type="curve"/>
      <point x="25" y="713"/>
      <point x="54" y="731"/>
      <point x="86" y="731" type="curve" smooth="yes"/>
      <point x="124" y="731"/>
      <point x="150" y="706"/>
    </contour>
  </outline>
</glyph>
<glyph name="Z" format="1">
  <advance width="629"/>
  <unicode hex="005A"/>
  <outline>
    <contour>
      <point x="314" y="723" type="move" name="top"/>
    </contour>
    <contour>
      <point x="483" y="723" type="curve"/>
      <point x="190" y="723" type="line" smooth="yes"/>
      <point x="142" y="723"/>
      <point x="106" y="727"/>
      <point x="77" y="737" type="curve"/>
      <point x="65" y="725"/>
      <point x="58" y="709"/>
      <point x="58" y="692" type="curve" smooth="yes"/>
      <point x="58" y="658"/>
      <point x="83" y="622"/>
      <point x="196" y="622" type="curve" smooth="yes"/>
      <point x="272" y="622"/>
      <point x="388" y="629"/>
      <point x="499" y="644" type="curve"/>
      <point x="500" y="666" type="line"/>
      <point x="91" y="169" type="line" smooth="yes"/>
      <point x="60" y="136"/>
      <point x="45" y="111"/>
      <point x="45" y="82" type="curve" smooth="yes"/>
      <point x="45" y="33"/>
      <point x="85" y="0"/>
      <point x="143" y="0" type="curve" smooth="yes"/>
      <point x="444" y="0" type="line" smooth="yes"/>
      <point x="556" y="0"/>
      <point x="581" y="36"/>
      <point x="581" y="70" type="curve" smooth="yes"/>
      <point x="581" y="88"/>
      <point x="574" y="108"/>
      <point x="561" y="121" type="curve"/>
      <point x="535" y="105"/>
      <point x="500" y="97"/>
      <point x="453" y="95" type="curve" smooth="yes"/>
      <point x="108" y="78" type="line"/>
      <point x="124" y="52" type="line"/>
      <point x="534" y="552" type="line" smooth="yes"/>
      <point x="564" y="586"/>
      <point x="580" y="611"/>
      <point x="580" y="641" type="curve" smooth="yes"/>
      <point x="580" y="689"/>
      <point x="540" y="723"/>
    </contour>
  </outline>
</glyph>
<glyph name="bracketleft" format="1">
  <advance width="409"/>
  <unicode hex="005B"/>
  <outline>
    <contour>
      <point x="171" y="-121" type="line"/>
      <point x="171" y="832" type="line"/>
      <point x="350" y="832" type="line"/>
      <point x="352" y="836"/>
      <point x="354" y="844"/>
      <point x="354" y="851" type="curve" smooth="yes"/>
      <point x="354" y="905"/>
      <point x="300" y="905"/>
      <point x="278" y="905" type="curve" smooth="yes"/>
      <point x="66" y="905" type="line"/>
      <point x="66" y="-89" type="line" smooth="yes"/>
      <point x="66" y="-192"/>
      <point x="138" y="-192"/>
      <point x="167" y="-192" type="curve" smooth="yes"/>
      <point x="350" y="-192" type="line"/>
      <point x="352" y="-189"/>
      <point x="354" y="-180"/>
      <point x="354" y="-174" type="curve" smooth="yes"/>
      <point x="354" y="-121"/>
      <point x="300" y="-121"/>
      <point x="278" y="-121" type="curve" smooth="yes"/>
    </contour>
  </outline>
</glyph>
<glyph name="backslash" format="1">
  <advance width="582"/>
  <unicode hex="005C"/>
  <outline>
    <contour>
      <point x="108" y="992" type="curve" smooth="yes"/>
      <point x="95" y="992"/>
      <point x="79" y="989"/>
      <point x="64" y="977" type="curve"/>
      <point x="76" y="968"/>
      <point x="86" y="941"/>
      <point x="92" y="923" type="curve" smooth="yes"/>
      <point x="301" y="331"/>
      <point x="345" y="194"/>
      <point x="434" y="-58" type="curve"/>
      <point x="441" y="-79"/>
      <point x="458" y="-126"/>
      <point x="500" y="-126" type="curve" smooth="yes"/>
      <point x="510" y="-126"/>
      <point x="525" y="-125"/>
      <point x="543" y="-109" type="curve"/>
      <point x="534" y="-102"/>
      <point x="521" y="-74"/>
      <point x="514" y="-54" type="curve"/>
      <point x="406" y="251"/>
      <point x="291" y="596"/>
      <point x="172" y="925" type="curve" smooth="yes"/>
      <point x="165" y="945"/>
      <point x="149" y="992"/>
    </contour>
  </outline>
</glyph>
<glyph name="bracketright" format="1">
  <advance width="409"/>
  <unicode hex="005D"/>
  <outline>
    <contour>
      <point x="250" y="833" type="line"/>
      <point x="250" y="-121" type="line"/>
      <point x="71" y="-121" type="line"/>
      <point x="70" y="-125"/>
      <point x="67" y="-132"/>
      <point x="67" y="-139" type="curve" smooth="yes"/>
      <point x="67" y="-192"/>
      <point x="122" y="-192"/>
      <point x="144" y="-192" type="curve" smooth="yes"/>
      <point x="355" y="-192" type="line"/>
      <point x="355" y="801" type="line" smooth="yes"/>
      <point x="355" y="905"/>
      <point x="283" y="905"/>
      <point x="254" y="905" type="curve" smooth="yes"/>
      <point x="71" y="905" type="line"/>
      <point x="70" y="901"/>
      <point x="67" y="892"/>
      <point x="67" y="886" type="curve" smooth="yes"/>
      <point x="67" y="833"/>
      <point x="122" y="833"/>
      <point x="144" y="833" type="curve" smooth="yes"/>
    </contour>
  </outline>
</glyph>
<glyph name="asciicircum" format="1">
  <advance width="618"/>
  <unicode hex="005E"/>
  <outline>
    <contour>
      <point x="352" y="649" type="line"/>
      <point x="338" y="680"/>
      <point x="324" y="693"/>
      <point x="301" y="693" type="curve" smooth="yes"/>
      <point x="279" y="693"/>
      <point x="259" y="679"/>
      <point x="242" y="648" type="curve" smooth="yes"/>
      <point x="87" y="370" type="line" smooth="yes"/>
      <point x="71" y="341"/>
      <point x="64" y="318"/>
      <point x="64" y="298" type="curve" smooth="yes"/>
      <point x="64" y="256"/>
      <point x="97" y="237"/>
      <point x="128" y="237" type="curve"/>
      <point x="333" y="631" type="line"/>
      <point x="276" y="623" type="line"/>
      <point x="440" y="297" type="line" smooth="yes"/>
      <point x="461" y="253"/>
      <point x="483" y="231"/>
      <point x="511" y="231" type="curve" smooth="yes"/>
      <point x="524" y="231"/>
      <point x="539" y="237"/>
      <point x="554" y="249" type="curve"/>
    </contour>
  </outline>
</glyph>
<glyph name="underscore" format="1">
  <advance width="589"/>
  <unicode hex="005F"/>
  <outline>
    <contour>
      <point x="94" y="-79" type="line"/>
      <point x="66" y="-79"/>
      <point x="-1" y="-79"/>
      <point x="-1" y="-144" type="curve" smooth="yes"/>
      <point x="-1" y="-153"/>
      <point x="2" y="-163"/>
      <point x="4" y="-168" type="curve"/>
      <point x="494" y="-168" type="line" smooth="yes"/>
      <point x="522" y="-168"/>
      <point x="589" y="-168"/>
      <point x="589" y="-100" type="curve" smooth="yes"/>
      <point x="589" y="-94"/>
      <point x="588" y="-84"/>
      <point x="586" y="-79" type="curve"/>
    </contour>
  </outline>
</glyph>
<glyph name="grave" format="1">
  <advance width="246"/>
  <unicode hex="0060"/>
  <outline>
    <contour>
      <point x="184" y="512" type="move" name="_top"/>
    </contour>
    <contour>
      <point x="81" y="670" type="curve" smooth="yes"/>
      <point x="172" y="585" type="line" smooth="yes"/>
      <point x="198" y="560"/>
      <point x="225" y="566"/>
      <point x="234" y="587" type="curve"/>
      <point x="157" y="706" type="line" smooth="yes"/>
      <point x="128" y="753"/>
      <point x="105" y="771"/>
      <point x="71" y="771" type="curve" smooth="yes"/>
      <point x="26" y="771"/>
      <point x="2" y="732"/>
      <point x="17" y="686" type="curve"/>
      <point x="39" y="692"/>
      <point x="58" y="690"/>
    </contour>
  </outline>
</glyph>
<glyph name="a" format="1">
  <advance width="539"/>
  <unicode hex="0061"/>
  <outline>
    <contour>
      <point x="270" y="512" type="move" name="top"/>
    </contour>
    <contour>
      <point x="501" y="20" type="move" name="ogonek"/>
    </contour>
    <contour>
      <point x="453" y="355" type="line"/>
      <point x="453" y="466"/>
      <point x="378" y="522"/>
      <point x="267" y="522" type="curve" smooth="yes"/>
      <point x="162" y="522"/>
      <point x="72" y="477"/>
      <point x="72" y="406" type="curve" smooth="yes"/>
      <point x="72" y="371"/>
      <point x="98" y="347"/>
      <point x="141" y="347" type="curve" smooth="yes"/>
      <point x="162" y="347"/>
      <point x="184" y="355"/>
      <point x="200" y="369" type="curve"/>
      <point x="190" y="379"/>
      <point x="186" y="392"/>
      <point x="186" y="407" type="curve" smooth="yes"/>
      <point x="186" y="444"/>
      <point x="218" y="469"/>
      <point x="267" y="469" type="curve" smooth="yes"/>
      <point x="315" y="469"/>
      <point x="348" y="439"/>
      <point x="348" y="377" type="curve" smooth="yes"/>
      <point x="348" y="91" type="line" smooth="yes"/>
      <point x="348" y="23"/>
      <point x="376" y="-9"/>
      <point x="426" y="-9" type="curve" smooth="yes"/>
      <point x="461" y="-9"/>
      <point x="489" y="10"/>
      <point x="503" y="35" type="curve"/>
      <point x="473" y="41"/>
      <point x="453" y="59"/>
      <point x="453" y="101" type="curve" smooth="yes"/>
    </contour>
    <contour>
      <point x="358" y="238" type="curve"/>
      <point x="358" y="288" type="line"/>
      <point x="151" y="285"/>
      <point x="50" y="217"/>
      <point x="50" y="119" type="curve" smooth="yes"/>
      <point x="50" y="36"/>
      <point x="112" y="-9"/>
      <point x="194" y="-9" type="curve" smooth="yes"/>
      <point x="274" y="-9"/>
      <point x="335" y="34"/>
      <point x="368" y="94" type="curve"/>
      <point x="361" y="143" type="line"/>
      <point x="329" y="93"/>
      <point x="285" y="66"/>
      <point x="236" y="66" type="curve" smooth="yes"/>
      <point x="193" y="66"/>
      <point x="163" y="84"/>
      <point x="163" y="130" type="curve" smooth="yes"/>
      <point x="163" y="185"/>
      <point x="216" y="233"/>
    </contour>
  </outline>
</glyph>
<glyph name="b" format="1">
  <advance width="586"/>
  <unicode hex="0062"/>
  <outline>
    <contour>
      <point x="190" y="683" type="line"/>
      <point x="190" y="739"/>
      <point x="168" y="767"/>
      <point x="122" y="767" type="curve" smooth="yes"/>
      <point x="94" y="767"/>
      <point x="72" y="753"/>
      <point x="57" y="733" type="curve"/>
      <point x="77" y="724"/>
      <point x="85" y="710"/>
      <point x="85" y="684" type="curve" smooth="yes"/>
      <point x="84" y="156" type="line" smooth="yes"/>
      <point x="84" y="36"/>
      <point x="165" y="-9"/>
      <point x="289" y="-9" type="curve" smooth="yes"/>
      <point x="434" y="-9"/>
      <point x="551" y="102"/>
      <point x="551" y="269" type="curve" smooth="yes"/>
      <point x="551" y="435"/>
      <point x="457" y="522"/>
      <point x="341" y="522" type="curve" smooth="yes"/>
      <point x="273" y="522"/>
      <point x="216" y="487"/>
      <point x="181" y="432" type="curve"/>
      <point x="186" y="351" type="line"/>
      <point x="216" y="414"/>
      <point x="265" y="442"/>
      <point x="316" y="442" type="curve" smooth="yes"/>
      <point x="392" y="442"/>
      <point x="446" y="381"/>
      <point x="446" y="261" type="curve" smooth="yes"/>
      <point x="446" y="133"/>
      <point x="386" y="57"/>
      <point x="293" y="57" type="curve" smooth="yes"/>
      <point x="228" y="57"/>
      <point x="189" y="87"/>
      <point x="189" y="155" type="curve" smooth="yes"/>
    </contour>
  </outline>
</glyph>
<glyph name="c" format="1">
  <advance width="500"/>
  <unicode hex="0063"/>
  <outline>
    <contour>
      <point x="251" y="512" type="move" name="top"/>
    </contour>
    <contour>
      <point x="251" y="0" type="move" name="bottom"/>
    </contour>
    <contour>
      <point x="457" y="419" type="curve" smooth="yes"/>
      <point x="457" y="380"/>
      <point x="430" y="360"/>
      <point x="398" y="360" type="curve" smooth="yes"/>
      <point x="381" y="360"/>
      <point x="366" y="364"/>
      <point x="355" y="372" type="curve"/>
      <point x="357" y="379"/>
      <point x="358" y="388"/>
      <point x="358" y="396" type="curve" smooth="yes"/>
      <point x="358" y="430"/>
      <point x="338" y="455"/>
      <point x="292" y="455" type="curve" smooth="yes"/>
      <point x="226" y="455"/>
      <point x="153" y="384"/>
      <point x="153" y="252" type="curve" smooth="yes"/>
      <point x="153" y="129"/>
      <point x="221" y="72"/>
      <point x="298" y="72" type="curve" smooth="yes"/>
      <point x="357" y="72"/>
      <point x="405" y="95"/>
      <point x="437" y="127" type="curve"/>
      <point x="446" y="122"/>
      <point x="452" y="108"/>
      <point x="452" y="95" type="curve" smooth="yes"/>
      <point x="452" y="46"/>
      <point x="375" y="-9"/>
      <point x="281" y="-9" type="curve" smooth="yes"/>
      <point x="152" y="-9"/>
      <point x="49" y="78"/>
      <point x="49" y="234" type="curve" smooth="yes"/>
      <point x="49" y="399"/>
      <point x="163" y="522"/>
      <point x="310" y="522" type="curve" smooth="yes"/>
      <point x="395" y="522"/>
      <point x="457" y="478"/>
    </contour>
  </outline>
</glyph>
<glyph name="d" format="1">
  <advance width="581"/>
  <unicode hex="0064"/>
  <outline>
    <contour>
      <point x="498" y="683" type="line"/>
      <point x="498" y="739"/>
      <point x="475" y="767"/>
      <point x="429" y="767" type="curve" smooth="yes"/>
      <point x="401" y="767"/>
      <point x="379" y="753"/>
      <point x="365" y="733" type="curve"/>
      <point x="383" y="724"/>
      <point x="393" y="710"/>
      <point x="393" y="684" type="curve" smooth="yes"/>
      <point x="393" y="75" type="line" smooth="yes"/>
      <point x="393" y="19"/>
      <point x="414" y="-9"/>
      <point x="461" y="-9" type="curve" smooth="yes"/>
      <point x="489" y="-9"/>
      <point x="510" y="6"/>
      <point x="525" y="26" type="curve"/>
      <point x="507" y="34"/>
      <point x="498" y="48"/>
      <point x="498" y="74" type="curve" smooth="yes"/>
    </contour>
    <contour>
      <point x="426" y="476" type="line"/>
      <point x="389" y="505"/>
      <point x="339" y="522"/>
      <point x="285" y="522" type="curve" smooth="yes"/>
      <point x="145" y="522"/>
      <point x="42" y="407"/>
      <point x="42" y="244" type="curve" smooth="yes"/>
      <point x="42" y="79"/>
      <point x="150" y="-9"/>
      <point x="261" y="-9" type="curve" smooth="yes"/>
      <point x="329" y="-9"/>
      <point x="389" y="24"/>
      <point x="416" y="83" type="curve"/>
      <point x="409" y="157" type="line"/>
      <point x="392" y="96"/>
      <point x="344" y="62"/>
      <point x="285" y="62" type="curve" smooth="yes"/>
      <point x="211" y="62"/>
      <point x="149" y="122"/>
      <point x="149" y="251" type="curve" smooth="yes"/>
      <point x="149" y="388"/>
      <point x="213" y="456"/>
      <point x="293" y="456" type="curve" smooth="yes"/>
      <point x="343" y="456"/>
      <point x="385" y="435"/>
      <point x="410" y="397" type="curve"/>
    </contour>
  </outline>
</glyph>
<glyph name="e" format="1">
  <advance width="502"/>
  <unicode hex="0065"/>
  <outline>
    <contour>
      <point x="285" y="512" type="move" name="top"/>
    </contour>
    <contour>
      <point x="369" y="22" type="move" name="ogonek"/>
    </contour>
    <contour>
      <point x="251" y="0" type="move" name="bottom"/>
    </contour>
    <contour>
      <point x="468" y="350" type="curve" smooth="yes"/>
      <point x="468" y="435"/>
      <point x="400" y="522"/>
      <point x="292" y="522" type="curve" smooth="yes"/>
      <point x="164" y="522"/>
      <point x="49" y="403"/>
      <point x="49" y="234" type="curve" smooth="yes"/>
      <point x="49" y="79"/>
      <point x="148" y="-9"/>
      <point x="289" y="-9" type="curve" smooth="yes"/>
      <point x="385" y="-9"/>
      <point x="460" y="47"/>
      <point x="460" y="94" type="curve" smooth="yes"/>
      <point x="460" y="108"/>
      <point x="453" y="120"/>
      <point x="443" y="125" type="curve"/>
      <point x="411" y="93"/>
      <point x="365" y="69"/>
      <point x="307" y="69" type="curve" smooth="yes"/>
      <point x="218" y="69"/>
      <point x="156" y="122"/>
      <point x="156" y="254" type="curve" smooth="yes"/>
      <point x="156" y="386"/>
      <point x="213" y="457"/>
      <point x="281" y="457" type="curve" smooth="yes"/>
      <point x="329" y="457"/>
      <point x="361" y="414"/>
      <point x="361" y="361" type="curve" smooth="yes"/>
      <point x="361" y="327"/>
      <point x="346" y="317"/>
      <point x="322" y="315" type="curve" smooth="yes"/>
      <point x="144" y="299" type="line"/>
      <point x="144" y="247" type="line"/>
      <point x="358" y="254" type="line" smooth="yes"/>
      <point x="437" y="256"/>
      <point x="468" y="285"/>
    </contour>
  </outline>
</glyph>
<glyph name="f" format="1">
  <advance width="389"/>
  <unicode hex="0066"/>
  <outline>
    <contour>
      <point x="372" y="512" type="line"/>
      <point x="376" y="506"/>
      <point x="378" y="500"/>
      <point x="378" y="493" type="curve" smooth="yes"/>
      <point x="378" y="468"/>
      <point x="348" y="438"/>
      <point x="240" y="438" type="curve" smooth="yes"/>
      <point x="150" y="438" type="line" smooth="yes"/>
      <point x="55" y="438"/>
      <point x="32" y="459"/>
      <point x="32" y="482" type="curve" smooth="yes"/>
      <point x="32" y="496"/>
      <point x="39" y="508"/>
      <point x="48" y="515" type="curve"/>
      <point x="64" y="513"/>
      <point x="86" y="512"/>
      <point x="114" y="512" type="curve" smooth="yes"/>
    </contour>
    <contour>
      <point x="404" y="682" type="curve" smooth="yes"/>
      <point x="404" y="666"/>
      <point x="396" y="654"/>
      <point x="383" y="650" type="curve"/>
      <point x="362" y="674"/>
      <point x="335" y="693"/>
      <point x="297" y="693" type="curve" smooth="yes"/>
      <point x="256" y="693"/>
      <point x="225" y="668"/>
      <point x="225" y="605" type="curve" smooth="yes"/>
      <point x="225" y="-116" type="line" smooth="yes"/>
      <point x="225" y="-213"/>
      <point x="177" y="-254"/>
      <point x="120" y="-254" type="curve" smooth="yes"/>
      <point x="72" y="-254"/>
      <point x="45" y="-227"/>
      <point x="31" y="-191" type="curve"/>
      <point x="100" y="-191"/>
      <point x="120" y="-162"/>
      <point x="120" y="-95" type="curve" smooth="yes"/>
      <point x="120" y="603" type="line" smooth="yes"/>
      <point x="120" y="712"/>
      <point x="189" y="767"/>
      <point x="279" y="767" type="curve" smooth="yes"/>
      <point x="357" y="767"/>
      <point x="404" y="726"/>
    </contour>
  </outline>
</glyph>
<glyph name="g" format="1">
  <advance width="560"/>
  <unicode hex="0067"/>
  <outline>
    <contour>
      <point x="246" y="500" type="move" name="top"/>
    </contour>
    <contour>
      <point x="268" y="522" type="curve" smooth="yes"/>
      <point x="163" y="522"/>
      <point x="64" y="448"/>
      <point x="64" y="322" type="curve" smooth="yes"/>
      <point x="64" y="194"/>
      <point x="163" y="121"/>
      <point x="268" y="121" type="curve" smooth="yes"/>
      <point x="371" y="121"/>
      <point x="471" y="194"/>
      <point x="471" y="322" type="curve" smooth="yes"/>
      <point x="471" y="448"/>
      <point x="371" y="522"/>
    </contour>
    <contour>
      <point x="365" y="322" type="curve" smooth="yes"/>
      <point x="371" y="223"/>
      <point x="327" y="174"/>
      <point x="275" y="174" type="curve" smooth="yes"/>
      <point x="222" y="174"/>
      <point x="177" y="223"/>
      <point x="170" y="322" type="curve" smooth="yes"/>
      <point x="163" y="419"/>
      <point x="207" y="468"/>
      <point x="260" y="468" type="curve" smooth="yes"/>
      <point x="312" y="468"/>
      <point x="359" y="419"/>
    </contour>
    <contour>
      <point x="170" y="171" type="line"/>
      <point x="112" y="152"/>
      <point x="71" y="120"/>
      <point x="71" y="66" type="curve" smooth="yes"/>
      <point x="71" y="-15"/>
      <point x="151" y="-46"/>
      <point x="239" y="-46" type="curve" smooth="yes"/>
      <point x="376" y="-46" type="line" smooth="yes"/>
      <point x="420" y="-46"/>
      <point x="440" y="-62"/>
      <point x="440" y="-89" type="curve" smooth="yes"/>
      <point x="440" y="-136"/>
      <point x="383" y="-171"/>
      <point x="273" y="-171" type="curve" smooth="yes"/>
      <point x="144" y="-171"/>
      <point x="101" y="-120"/>
      <point x="98" y="-50" type="curve"/>
      <point x="62" y="-54"/>
      <point x="29" y="-79"/>
      <point x="29" y="-124" type="curve" smooth="yes"/>
      <point x="29" y="-187"/>
      <point x="98" y="-253"/>
      <point x="257" y="-253" type="curve" smooth="yes"/>
      <point x="404" y="-253"/>
      <point x="519" y="-177"/>
      <point x="519" y="-73" type="curve" smooth="yes"/>
      <point x="519" y="3"/>
      <point x="469" y="52"/>
      <point x="369" y="52" type="curve" smooth="yes"/>
      <point x="248" y="52" type="line" smooth="yes"/>
      <point x="186" y="52"/>
      <point x="157" y="62"/>
      <point x="157" y="94" type="curve" smooth="yes"/>
      <point x="157" y="126"/>
      <point x="192" y="140"/>
      <point x="253" y="140" type="curve"/>
    </contour>
    <contour>
      <point x="477" y="608" type="curve" smooth="yes"/>
      <point x="426" y="608"/>
      <point x="375" y="556"/>
      <point x="375" y="472" type="curve"/>
      <point x="414" y="436" type="line"/>
      <point x="414" y="479"/>
      <point x="440" y="512"/>
      <point x="477" y="512" type="curve" smooth="yes"/>
      <point x="493" y="512"/>
      <point x="511" y="506"/>
      <point x="526" y="495" type="curve"/>
      <point x="540" y="503"/>
      <point x="550" y="524"/>
      <point x="550" y="545" type="curve" smooth="yes"/>
      <point x="550" y="577"/>
      <point x="525" y="608"/>
    </contour>
  </outline>
</glyph>
<glyph name="i" format="1">
  <advance width="277"/>
  <unicode hex="0069"/>
  <outline>
    <contour>
      <point x="212" y="13" type="move" name="ogonek"/>
    </contour>
    <contour>
      <point x="192" y="74" type="line"/>
      <point x="192" y="48"/>
      <point x="201" y="34"/>
      <point x="220" y="26" type="curve"/>
      <point x="205" y="6"/>
      <point x="184" y="-9"/>
      <point x="156" y="-9" type="curve" smooth="yes"/>
      <point x="109" y="-9"/>
      <point x="88" y="19"/>
      <point x="88" y="75" type="curve" smooth="yes"/>
      <point x="88" y="438" type="line" smooth="yes"/>
      <point x="88" y="464"/>
      <point x="78" y="478"/>
      <point x="60" y="487" type="curve"/>
      <point x="74" y="506"/>
      <point x="96" y="522"/>
      <point x="124" y="522" type="curve" smooth="yes"/>
      <point x="170" y="522"/>
      <point x="192" y="494"/>
      <point x="192" y="437" type="curve" smooth="yes"/>
    </contour>
    <contour>
      <point x="212" y="684" type="curve" smooth="yes"/>
      <point x="212" y="643"/>
      <point x="174" y="606"/>
      <point x="128" y="606" type="curve" smooth="yes"/>
      <point x="89" y="606"/>
      <point x="61" y="634"/>
      <point x="61" y="668" type="curve" smooth="yes"/>
      <point x="61" y="718"/>
      <point x="109" y="746"/>
      <point x="145" y="746" type="curve" smooth="yes"/>
      <point x="182" y="746"/>
      <point x="212" y="720"/>
    </contour>
  </outline>
</glyph>
<glyph name="j" format="1">
  <advance width="277"/>
  <unicode hex="006A"/>
  <outline>
    <contour>
      <point x="212" y="684" type="curve" smooth="yes"/>
      <point x="212" y="643"/>
      <point x="174" y="606"/>
      <point x="128" y="606" type="curve" smooth="yes"/>
      <point x="89" y="606"/>
      <point x="61" y="634"/>
      <point x="61" y="668" type="curve" smooth="yes"/>
      <point x="61" y="718"/>
      <point x="109" y="746"/>
      <point x="145" y="746" type="curve" smooth="yes"/>
      <point x="182" y="746"/>
      <point x="212" y="720"/>
    </contour>
    <contour>
      <point x="192" y="-116" type="line"/>
      <point x="192" y="-213"/>
      <point x="144" y="-254"/>
      <point x="88" y="-254" type="curve" smooth="yes"/>
      <point x="41" y="-254"/>
      <point x="13" y="-227"/>
      <point x="-2" y="-191" type="curve"/>
      <point x="69" y="-191"/>
      <point x="88" y="-162"/>
      <point x="88" y="-95" type="curve" smooth="yes"/>
      <point x="88" y="438" type="line"/>
      <point x="88" y="464"/>
      <point x="78" y="478"/>
      <point x="60" y="487" type="curve"/>
      <point x="74" y="506"/>
      <point x="96" y="522"/>
      <point x="124" y="522" type="curve" smooth="yes"/>
      <point x="170" y="522"/>
      <point x="192" y="494"/>
      <point x="192" y="437" type="curve"/>
    </contour>
  </outline>
</glyph>
<glyph name="k" format="1">
  <advance width="583"/>
  <unicode hex="006B"/>
  <outline>
    <contour>
      <point x="294" y="0" type="move" name="bottom"/>
    </contour>
    <contour>
      <point x="192" y="74" type="line"/>
      <point x="192" y="48"/>
      <point x="201" y="34"/>
      <point x="220" y="26" type="curve"/>
      <point x="205" y="6"/>
      <point x="184" y="-9"/>
      <point x="156" y="-9" type="curve" smooth="yes"/>
      <point x="109" y="-9"/>
      <point x="88" y="19"/>
      <point x="88" y="75" type="curve" smooth="yes"/>
      <point x="88" y="684" type="line" smooth="yes"/>
      <point x="88" y="710"/>
      <point x="78" y="724"/>
      <point x="60" y="733" type="curve"/>
      <point x="74" y="753"/>
      <point x="96" y="767"/>
      <point x="124" y="767" type="curve" smooth="yes"/>
      <point x="170" y="767"/>
      <point x="192" y="739"/>
      <point x="192" y="683" type="curve" smooth="yes"/>
    </contour>
    <contour>
      <point x="184" y="312" type="line"/>
      <point x="378" y="370"/>
      <point x="418" y="431"/>
      <point x="418" y="522" type="curve"/>
      <point x="476" y="522"/>
      <point x="519" y="493"/>
      <point x="519" y="443" type="curve" smooth="yes"/>
      <point x="519" y="363"/>
      <point x="397" y="297"/>
      <point x="241" y="277" type="curve"/>
      <point x="247" y="303" type="line"/>
      <point x="424" y="99"/>
      <point x="469" y="83"/>
      <point x="535" y="83" type="curve"/>
      <point x="535" y="30"/>
      <point x="508" y="-9"/>
      <point x="459" y="-9" type="curve" smooth="yes"/>
      <point x="386" y="-9"/>
      <point x="336" y="55"/>
      <point x="184" y="283" type="curve"/>
    </contour>
  </outline>
</glyph>
<glyph name="l" format="1">
  <advance width="280"/>
  <unicode hex="006C"/>
  <outline>
    <contour>
      <point x="153" y="750" type="move" name="top"/>
    </contour>
    <contour>
      <point x="248" y="700" type="move" name="topright"/>
    </contour>
    <contour>
      <point x="146" y="0" type="move" name="bottom"/>
    </contour>
    <contour>
      <point x="192" y="74" type="curve"/>
      <point x="192" y="683" type="line" smooth="yes"/>
      <point x="192" y="739"/>
      <point x="170" y="767"/>
      <point x="124" y="767" type="curve" smooth="yes"/>
      <point x="96" y="767"/>
      <point x="74" y="753"/>
      <point x="60" y="733" type="curve"/>
      <point x="78" y="724"/>
      <point x="88" y="710"/>
      <point x="88" y="684" type="curve" smooth="yes"/>
      <point x="88" y="75" type="line" smooth="yes"/>
      <point x="88" y="19"/>
      <point x="109" y="-9"/>
      <point x="156" y="-9" type="curve" smooth="yes"/>
      <point x="184" y="-9"/>
      <point x="205" y="6"/>
      <point x="220" y="26" type="curve"/>
      <point x="201" y="34"/>
      <point x="192" y="48"/>
    </contour>
  </outline>
</glyph>
<glyph name="m" format="1">
  <advance width="939"/>
  <unicode hex="006D"/>
  <outline>
    <contour>
      <point x="192" y="74" type="curve"/>
      <point x="192" y="437" type="line" smooth="yes"/>
      <point x="192" y="494"/>
      <point x="170" y="522"/>
      <point x="124" y="522" type="curve" smooth="yes"/>
      <point x="96" y="522"/>
      <point x="74" y="506"/>
      <point x="60" y="487" type="curve"/>
      <point x="78" y="478"/>
      <point x="88" y="464"/>
      <point x="88" y="438" type="curve" smooth="yes"/>
      <point x="88" y="75" type="line" smooth="yes"/>
      <point x="88" y="19"/>
      <point x="109" y="-9"/>
      <point x="156" y="-9" type="curve" smooth="yes"/>
      <point x="184" y="-9"/>
      <point x="205" y="6"/>
      <point x="220" y="26" type="curve"/>
      <point x="201" y="34"/>
      <point x="192" y="48"/>
    </contour>
    <contour>
      <point x="523" y="347" type="line"/>
      <point x="523" y="466"/>
      <point x="462" y="522"/>
      <point x="373" y="522" type="curve" smooth="yes"/>
      <point x="283" y="522"/>
      <point x="209" y="461"/>
      <point x="181" y="377" type="curve"/>
      <point x="186" y="258" type="line"/>
      <point x="198" y="371"/>
      <point x="270" y="434"/>
      <point x="334" y="434" type="curve" smooth="yes"/>
      <point x="394" y="434"/>
      <point x="419" y="396"/>
      <point x="419" y="337" type="curve" smooth="yes"/>
      <point x="419" y="75" type="line" smooth="yes"/>
      <point x="419" y="19"/>
      <point x="441" y="-9"/>
      <point x="487" y="-9" type="curve" smooth="yes"/>
      <point x="515" y="-9"/>
      <point x="536" y="6"/>
      <point x="551" y="26" type="curve"/>
      <point x="532" y="34"/>
      <point x="523" y="48"/>
      <point x="523" y="74" type="curve" smooth="yes"/>
    </contour>
    <contour>
      <point x="854" y="347" type="line"/>
      <point x="854" y="466"/>
      <point x="792" y="522"/>
      <point x="704" y="522" type="curve" smooth="yes"/>
      <point x="614" y="522"/>
      <point x="540" y="461"/>
      <point x="512" y="377" type="curve"/>
      <point x="517" y="258" type="line"/>
      <point x="529" y="371"/>
      <point x="601" y="434"/>
      <point x="665" y="434" type="curve" smooth="yes"/>
      <point x="725" y="434"/>
      <point x="749" y="396"/>
      <point x="749" y="337" type="curve" smooth="yes"/>
      <point x="749" y="75" type="line" smooth="yes"/>
      <point x="749" y="19"/>
      <point x="772" y="-9"/>
      <point x="818" y="-9" type="curve" smooth="yes"/>
      <point x="846" y="-9"/>
      <point x="868" y="6"/>
      <point x="881" y="26" type="curve"/>
      <point x="863" y="34"/>
      <point x="854" y="48"/>
      <point x="854" y="74" type="curve" smooth="yes"/>
    </contour>
  </outline>
</glyph>
<glyph name="n" format="1">
  <advance width="606"/>
  <unicode hex="006E"/>
  <outline>
    <contour>
      <point x="306" y="512" type="move" name="top"/>
    </contour>
    <contour>
      <point x="321" y="0" type="move" name="bottom"/>
    </contour>
    <contour>
      <point x="192" y="74" type="line"/>
      <point x="192" y="48"/>
      <point x="201" y="34"/>
      <point x="220" y="26" type="curve"/>
      <point x="205" y="6"/>
      <point x="184" y="-9"/>
      <point x="156" y="-9" type="curve" smooth="yes"/>
      <point x="109" y="-9"/>
      <point x="88" y="19"/>
      <point x="88" y="75" type="curve" smooth="yes"/>
      <point x="88" y="438" type="line" smooth="yes"/>
      <point x="88" y="464"/>
      <point x="78" y="478"/>
      <point x="60" y="487" type="curve"/>
      <point x="74" y="506"/>
      <point x="96" y="522"/>
      <point x="124" y="522" type="curve" smooth="yes"/>
      <point x="170" y="522"/>
      <point x="192" y="494"/>
      <point x="192" y="437" type="curve" smooth="yes"/>
    </contour>
    <contour>
      <point x="523" y="347" type="curve" smooth="yes"/>
      <point x="523" y="74" type="line" smooth="yes"/>
      <point x="523" y="48"/>
      <point x="532" y="34"/>
      <point x="551" y="26" type="curve"/>
      <point x="536" y="6"/>
      <point x="515" y="-9"/>
      <point x="487" y="-9" type="curve" smooth="yes"/>
      <point x="441" y="-9"/>
      <point x="419" y="19"/>
      <point x="419" y="75" type="curve" smooth="yes"/>
      <point x="419" y="337" type="line" smooth="yes"/>
      <point x="419" y="396"/>
      <point x="394" y="434"/>
      <point x="334" y="434" type="curve" smooth="yes"/>
      <point x="270" y="434"/>
      <point x="198" y="371"/>
      <point x="186" y="258" type="curve"/>
      <point x="181" y="377" type="line"/>
      <point x="209" y="461"/>
      <point x="283" y="522"/>
      <point x="373" y="522" type="curve" smooth="yes"/>
      <point x="462" y="522"/>
      <point x="523" y="466"/>
    </contour>
  </outline>
</glyph>
<glyph name="o" format="1">
  <advance width="585"/>
  <unicode hex="006F"/>
  <outline>
    <contour>
      <point x="292" y="512" type="move" name="top"/>
    </contour>
    <contour>
      <point x="536" y="256" type="curve" smooth="yes"/>
      <point x="536" y="432"/>
      <point x="423" y="522"/>
      <point x="293" y="522" type="curve" smooth="yes"/>
      <point x="163" y="522"/>
      <point x="49" y="434"/>
      <point x="49" y="256" type="curve" smooth="yes"/>
      <point x="49" y="80"/>
      <point x="163" y="-9"/>
      <point x="293" y="-9" type="curve" smooth="yes"/>
      <point x="423" y="-9"/>
      <point x="536" y="80"/>
    </contour>
    <contour>
      <point x="159" y="256" type="curve" smooth="yes"/>
      <point x="152" y="404"/>
      <point x="205" y="460"/>
      <point x="284" y="460" type="curve" smooth="yes"/>
      <point x="362" y="460"/>
      <point x="419" y="404"/>
      <point x="426" y="256" type="curve" smooth="yes"/>
      <point x="433" y="110"/>
      <point x="381" y="52"/>
      <point x="303" y="52" type="curve" smooth="yes"/>
      <point x="225" y="52"/>
      <point x="166" y="110"/>
    </contour>
  </outline>
</glyph>
<glyph name="p" format="1">
  <advance width="590"/>
  <unicode hex="0070"/>
  <outline>
    <contour>
      <point x="551" y="256" type="curve" smooth="yes"/>
      <point x="551" y="431"/>
      <point x="454" y="522"/>
      <point x="339" y="522" type="curve" smooth="yes"/>
      <point x="269" y="522"/>
      <point x="220" y="490"/>
      <point x="181" y="434" type="curve"/>
      <point x="186" y="352" type="line"/>
      <point x="215" y="412"/>
      <point x="258" y="443"/>
      <point x="310" y="443" type="curve" smooth="yes"/>
      <point x="387" y="443"/>
      <point x="444" y="377"/>
      <point x="444" y="256" type="curve" smooth="yes"/>
      <point x="444" y="136"/>
      <point x="381" y="59"/>
      <point x="306" y="59" type="curve" smooth="yes"/>
      <point x="256" y="59"/>
      <point x="220" y="75"/>
      <point x="186" y="122" type="curve"/>
      <point x="178" y="48" type="line"/>
      <point x="218" y="7"/>
      <point x="266" y="-9"/>
      <point x="321" y="-9" type="curve" smooth="yes"/>
      <point x="434" y="-9"/>
      <point x="551" y="88"/>
    </contour>
    <contour>
      <point x="192" y="437" type="line"/>
      <point x="192" y="494"/>
      <point x="170" y="522"/>
      <point x="124" y="522" type="curve" smooth="yes"/>
      <point x="96" y="522"/>
      <point x="74" y="506"/>
      <point x="60" y="487" type="curve"/>
      <point x="78" y="478"/>
      <point x="88" y="464"/>
      <point x="88" y="438" type="curve" smooth="yes"/>
      <point x="88" y="-169" type="line" smooth="yes"/>
      <point x="88" y="-225"/>
      <point x="109" y="-254"/>
      <point x="156" y="-254" type="curve" smooth="yes"/>
      <point x="184" y="-254"/>
      <point x="205" y="-239"/>
      <point x="220" y="-218" type="curve"/>
      <point x="201" y="-210"/>
      <point x="192" y="-196"/>
      <point x="192" y="-170" type="curve" smooth="yes"/>
    </contour>
  </outline>
</glyph>
<glyph name="q" format="1">
  <advance width="570"/>
  <unicode hex="0071"/>
  <outline>
    <contour>
      <point x="429" y="427" type="curve"/>
      <point x="393" y="344" type="line"/>
      <point x="393" y="416"/>
      <point x="346" y="456"/>
      <point x="288" y="456" type="curve" smooth="yes"/>
      <point x="210" y="456"/>
      <point x="151" y="388"/>
      <point x="151" y="251" type="curve" smooth="yes"/>
      <point x="151" y="122"/>
      <point x="210" y="62"/>
      <point x="283" y="62" type="curve" smooth="yes"/>
      <point x="337" y="62"/>
      <point x="379" y="92"/>
      <point x="404" y="140" type="curve"/>
      <point x="416" y="79" type="line"/>
      <point x="384" y="29"/>
      <point x="340" y="-9"/>
      <point x="263" y="-9" type="curve" smooth="yes"/>
      <point x="148" y="-9"/>
      <point x="42" y="82"/>
      <point x="42" y="243" type="curve" smooth="yes"/>
      <point x="42" y="398"/>
      <point x="137" y="522"/>
      <point x="282" y="522" type="curve" smooth="yes"/>
      <point x="354" y="522"/>
      <point x="407" y="478"/>
    </contour>
    <contour>
      <point x="498" y="522" type="line"/>
      <point x="498" y="-170" type="line" smooth="yes"/>
      <point x="498" y="-196"/>
      <point x="507" y="-210"/>
      <point x="525" y="-218" type="curve"/>
      <point x="510" y="-239"/>
      <point x="489" y="-254"/>
      <point x="461" y="-254" type="curve" smooth="yes"/>
      <point x="414" y="-254"/>
      <point x="393" y="-225"/>
      <point x="393" y="-169" type="curve" smooth="yes"/>
      <point x="393" y="424" type="line"/>
      <point x="393" y="493"/>
      <point x="420" y="522"/>
      <point x="470" y="522" type="curve" smooth="yes"/>
    </contour>
  </outline>
</glyph>
<glyph name="r" format="1">
  <advance width="442"/>
  <unicode hex="0072"/>
  <outline>
    <contour>
      <point x="221" y="500" type="move" name="top"/>
    </contour>
    <contour>
      <point x="155" y="0" type="move" name="bottom"/>
    </contour>
    <contour>
      <point x="192" y="437" type="curve" smooth="yes"/>
      <point x="192" y="74" type="line" smooth="yes"/>
      <point x="192" y="48"/>
      <point x="201" y="34"/>
      <point x="220" y="26" type="curve"/>
      <point x="205" y="6"/>
      <point x="184" y="-9"/>
      <point x="156" y="-9" type="curve" smooth="yes"/>
      <point x="109" y="-9"/>
      <point x="88" y="19"/>
      <point x="88" y="75" type="curve" smooth="yes"/>
      <point x="88" y="438" type="line" smooth="yes"/>
      <point x="88" y="464"/>
      <point x="78" y="478"/>
      <point x="60" y="487" type="curve"/>
      <point x="74" y="506"/>
      <point x="96" y="522"/>
      <point x="124" y="522" type="curve" smooth="yes"/>
      <point x="170" y="522"/>
      <point x="192" y="494"/>
    </contour>
    <contour>
      <point x="431" y="434" type="curve" smooth="yes"/>
      <point x="431" y="387"/>
      <point x="404" y="360"/>
      <point x="364" y="360" type="curve" smooth="yes"/>
      <point x="356" y="360"/>
      <point x="347" y="362"/>
      <point x="339" y="363" type="curve"/>
      <point x="341" y="373"/>
      <point x="342" y="381"/>
      <point x="342" y="389" type="curve" smooth="yes"/>
      <point x="342" y="421"/>
      <point x="322" y="440"/>
      <point x="292" y="440" type="curve" smooth="yes"/>
      <point x="253" y="440"/>
      <point x="200" y="403"/>
      <point x="188" y="291" type="curve"/>
      <point x="173" y="337" type="line"/>
      <point x="187" y="455"/>
      <point x="245" y="522"/>
      <point x="329" y="522" type="curve" smooth="yes"/>
      <point x="395" y="522"/>
      <point x="431" y="483"/>
    </contour>
  </outline>
</glyph>
<glyph name="s" format="1">
  <advance width="509"/>
  <unicode hex="0073"/>
  <outline>
    <contour>
      <point x="255" y="512" type="move" name="top"/>
    </contour>
    <contour>
      <point x="256" y="0" type="move" name="bottom"/>
    </contour>
    <contour>
      <point x="449" y="419" type="curve" smooth="yes"/>
      <point x="448" y="481"/>
      <point x="361" y="522"/>
      <point x="262" y="522" type="curve" smooth="yes"/>
      <point x="155" y="522"/>
      <point x="71" y="458"/>
      <point x="71" y="376" type="curve" smooth="yes"/>
      <point x="71" y="234"/>
      <point x="356" y="226"/>
      <point x="356" y="127" type="curve" smooth="yes"/>
      <point x="356" y="84"/>
      <point x="315" y="54"/>
      <point x="250" y="54" type="curve" smooth="yes"/>
      <point x="186" y="54"/>
      <point x="152" y="80"/>
      <point x="152" y="117" type="curve" smooth="yes"/>
      <point x="152" y="132"/>
      <point x="157" y="146"/>
      <point x="167" y="158" type="curve"/>
      <point x="155" y="172"/>
      <point x="138" y="180"/>
      <point x="116" y="180" type="curve" smooth="yes"/>
      <point x="83" y="180"/>
      <point x="49" y="156"/>
      <point x="49" y="110" type="curve" smooth="yes"/>
      <point x="50" y="39"/>
      <point x="138" y="-9"/>
      <point x="249" y="-9" type="curve" smooth="yes"/>
      <point x="376" y="-9"/>
      <point x="462" y="59"/>
      <point x="462" y="142" type="curve" smooth="yes"/>
      <point x="462" y="288"/>
      <point x="175" y="304"/>
      <point x="175" y="395" type="curve" smooth="yes"/>
      <point x="175" y="432"/>
      <point x="209" y="459"/>
      <point x="264" y="459" type="curve" smooth="yes"/>
      <point x="321" y="459"/>
      <point x="347" y="431"/>
      <point x="346" y="403" type="curve" smooth="yes"/>
      <point x="346" y="395"/>
      <point x="345" y="385"/>
      <point x="341" y="377" type="curve"/>
      <point x="355" y="367"/>
      <point x="373" y="362"/>
      <point x="389" y="362" type="curve" smooth="yes"/>
      <point x="421" y="362"/>
      <point x="450" y="381"/>
    </contour>
  </outline>
</glyph>
<glyph name="t" format="1">
  <advance width="408"/>
  <unicode hex="0074"/>
  <outline>
    <contour>
      <point x="189" y="722" type="move" name="topright"/>
    </contour>
    <contour>
      <point x="228" y="0" type="move" name="bottom"/>
    </contour>
    <contour>
      <point x="195" y="577" type="line"/>
      <point x="195" y="633"/>
      <point x="172" y="661"/>
      <point x="125" y="661" type="curve" smooth="yes"/>
      <point x="98" y="661"/>
      <point x="76" y="646"/>
      <point x="62" y="626" type="curve"/>
      <point x="80" y="618"/>
      <point x="90" y="604"/>
      <point x="90" y="578" type="curve" smooth="yes"/>
      <point x="90" y="128" type="line" smooth="yes"/>
      <point x="90" y="36"/>
      <point x="142" y="-9"/>
      <point x="229" y="-9" type="curve" smooth="yes"/>
      <point x="322" y="-9"/>
      <point x="387" y="42"/>
      <point x="387" y="88" type="curve" smooth="yes"/>
      <point x="387" y="107"/>
      <point x="376" y="118"/>
      <point x="365" y="120" type="curve"/>
      <point x="335" y="90"/>
      <point x="295" y="69"/>
      <point x="253" y="69" type="curve" smooth="yes"/>
      <point x="212" y="69"/>
      <point x="195" y="88"/>
      <point x="195" y="136" type="curve" smooth="yes"/>
    </contour>
    <contour>
      <point x="357" y="512" type="curve"/>
      <point x="79" y="512" type="line" smooth="yes"/>
      <point x="56" y="512"/>
      <point x="40" y="514"/>
      <point x="26" y="516" type="curve"/>
      <point x="16" y="509"/>
      <point x="11" y="496"/>
      <point x="11" y="483" type="curve" smooth="yes"/>
      <point x="11" y="463"/>
      <point x="30" y="440"/>
      <point x="92" y="439" type="curve" smooth="yes"/>
      <point x="207" y="439" type="line" smooth="yes"/>
      <point x="333" y="439"/>
      <point x="363" y="468"/>
      <point x="363" y="494" type="curve" smooth="yes"/>
      <point x="363" y="502"/>
      <point x="361" y="506"/>
    </contour>
  </outline>
</glyph>
<glyph name="u" format="1">
  <advance width="606"/>
  <unicode hex="0075"/>
  <outline>
    <contour>
      <point x="303" y="512" type="move" name="top"/>
    </contour>
    <contour>
      <point x="546" y="12" type="move" name="ogonek"/>
    </contour>
    <contour>
      <point x="523" y="437" type="curve" smooth="yes"/>
      <point x="523" y="74" type="line" smooth="yes"/>
      <point x="523" y="48"/>
      <point x="532" y="34"/>
      <point x="551" y="26" type="curve"/>
      <point x="536" y="6"/>
      <point x="515" y="-9"/>
      <point x="487" y="-9" type="curve" smooth="yes"/>
      <point x="441" y="-9"/>
      <point x="419" y="19"/>
      <point x="419" y="75" type="curve" smooth="yes"/>
      <point x="419" y="438" type="line" smooth="yes"/>
      <point x="419" y="464"/>
      <point x="409" y="478"/>
      <point x="391" y="487" type="curve"/>
      <point x="406" y="506"/>
      <point x="427" y="522"/>
      <point x="455" y="522" type="curve" smooth="yes"/>
      <point x="501" y="522"/>
      <point x="523" y="494"/>
    </contour>
    <contour>
      <point x="192" y="437" type="curve" smooth="yes"/>
      <point x="192" y="173" type="line" smooth="yes"/>
      <point x="192" y="114"/>
      <point x="217" y="76"/>
      <point x="289" y="76" type="curve" smooth="yes"/>
      <point x="352" y="76"/>
      <point x="403" y="117"/>
      <point x="425" y="193" type="curve"/>
      <point x="438" y="122" type="line"/>
      <point x="411" y="47"/>
      <point x="350" y="-9"/>
      <point x="262" y="-9" type="curve" smooth="yes"/>
      <point x="154" y="-9"/>
      <point x="88" y="47"/>
      <point x="88" y="165" type="curve" smooth="yes"/>
      <point x="88" y="438" type="line" smooth="yes"/>
      <point x="88" y="464"/>
      <point x="78" y="478"/>
      <point x="60" y="487" type="curve"/>
      <point x="74" y="506"/>
      <point x="96" y="522"/>
      <point x="124" y="522" type="curve" smooth="yes"/>
      <point x="170" y="522"/>
      <point x="192" y="494"/>
    </contour>
  </outline>
</glyph>
<glyph name="v" format="1">
  <advance width="566"/>
  <unicode hex="0076"/>
  <outline>
    <contour>
      <point x="159" y="439" type="curve"/>
      <point x="272" y="40" type="line"/>
      <point x="254" y="57" type="line"/>
      <point x="353" y="160"/>
      <point x="446" y="370"/>
      <point x="390" y="501" type="curve"/>
      <point x="407" y="514"/>
      <point x="426" y="522"/>
      <point x="449" y="522" type="curve" smooth="yes"/>
      <point x="485" y="522"/>
      <point x="517" y="490"/>
      <point x="517" y="414" type="curve" smooth="yes"/>
      <point x="517" y="220"/>
      <point x="333" y="-9"/>
      <point x="256" y="-9" type="curve" smooth="yes"/>
      <point x="206" y="-9"/>
      <point x="185" y="18"/>
      <point x="165" y="77" type="curve" smooth="yes"/>
      <point x="51" y="420" type="line"/>
      <point x="43" y="448"/>
      <point x="31" y="470"/>
      <point x="8" y="475" type="curve"/>
      <point x="18" y="505"/>
      <point x="43" y="522"/>
      <point x="74" y="522" type="curve" smooth="yes"/>
      <point x="118" y="522"/>
      <point x="143" y="497"/>
    </contour>
  </outline>
</glyph>
<glyph name="w" format="1">
  <advance width="846"/>
  <unicode hex="0077"/>
  <outline>
    <contour>
      <point x="158" y="439" type="line"/>
      <point x="141" y="496"/>
      <point x="117" y="522"/>
      <point x="79" y="522" type="curve" smooth="yes"/>
      <point x="45" y="522"/>
      <point x="18" y="504"/>
      <point x="9" y="472" type="curve"/>
      <point x="33" y="467"/>
      <point x="42" y="449"/>
      <point x="52" y="420" type="curve" smooth="yes"/>
      <point x="166" y="77" type="line" smooth="yes"/>
      <point x="187" y="20"/>
      <point x="208" y="-9"/>
      <point x="259" y="-9" type="curve" smooth="yes"/>
      <point x="343" y="-9"/>
      <point x="442" y="200"/>
      <point x="465" y="370" type="curve"/>
      <point x="408" y="435" type="line"/>
      <point x="382" y="272"/>
      <point x="323" y="121"/>
      <point x="247" y="47" type="curve"/>
      <point x="282" y="18" type="line"/>
    </contour>
    <contour>
      <point x="484" y="439" type="line"/>
      <point x="469" y="497"/>
      <point x="443" y="522"/>
      <point x="400" y="522" type="curve" smooth="yes"/>
      <point x="369" y="522"/>
      <point x="343" y="505"/>
      <point x="334" y="475" type="curve"/>
      <point x="356" y="470"/>
      <point x="368" y="448"/>
      <point x="377" y="420" type="curve"/>
      <point x="491" y="77" type="line" smooth="yes"/>
      <point x="511" y="18"/>
      <point x="533" y="-9"/>
      <point x="583" y="-9" type="curve" smooth="yes"/>
      <point x="660" y="-9"/>
      <point x="808" y="220"/>
      <point x="808" y="414" type="curve" smooth="yes"/>
      <point x="808" y="490"/>
      <point x="776" y="522"/>
      <point x="740" y="522" type="curve" smooth="yes"/>
      <point x="722" y="522"/>
      <point x="697" y="516"/>
      <point x="681" y="506" type="curve"/>
      <point x="737" y="375"/>
      <point x="680" y="160"/>
      <point x="580" y="57" type="curve"/>
      <point x="598" y="40" type="line"/>
    </contour>
  </outline>
</glyph>
<glyph name="x" format="1">
  <advance width="533"/>
  <unicode hex="0078"/>
  <outline>
    <contour>
      <point x="229" y="268" type="line"/>
      <point x="86" y="83" type="line" smooth="yes"/>
      <point x="67" y="59"/>
      <point x="56" y="50"/>
      <point x="33" y="50" type="curve"/>
      <point x="36" y="11"/>
      <point x="66" y="-9"/>
      <point x="98" y="-9" type="curve" smooth="yes"/>
      <point x="135" y="-9"/>
      <point x="157" y="5"/>
      <point x="201" y="106" type="curve" smooth="yes"/>
      <point x="275" y="236" type="line"/>
    </contour>
    <contour>
      <point x="170" y="476" type="line"/>
      <point x="148" y="506"/>
      <point x="124" y="522"/>
      <point x="93" y="522" type="curve" smooth="yes"/>
      <point x="60" y="522"/>
      <point x="33" y="502"/>
      <point x="33" y="463" type="curve"/>
      <point x="48" y="463"/>
      <point x="57" y="458"/>
      <point x="68" y="442" type="curve" smooth="yes"/>
      <point x="362" y="37" type="line" smooth="yes"/>
      <point x="384" y="7"/>
      <point x="408" y="-9"/>
      <point x="440" y="-9" type="curve" smooth="yes"/>
      <point x="473" y="-9"/>
      <point x="500" y="11"/>
      <point x="500" y="50" type="curve"/>
      <point x="485" y="50"/>
      <point x="476" y="55"/>
      <point x="464" y="71" type="curve" smooth="yes"/>
    </contour>
    <contour>
      <point x="304" y="245" type="line"/>
      <point x="447" y="430" type="line" smooth="yes"/>
      <point x="466" y="454"/>
      <point x="477" y="463"/>
      <point x="500" y="463" type="curve"/>
      <point x="497" y="502"/>
      <point x="467" y="522"/>
      <point x="435" y="522" type="curve" smooth="yes"/>
      <point x="398" y="522"/>
      <point x="376" y="508"/>
      <point x="332" y="407" type="curve" smooth="yes"/>
      <point x="258" y="277" type="line"/>
    </contour>
  </outline>
</glyph>
<glyph name="y" format="1">
  <advance width="575"/>
  <unicode hex="0079"/>
  <outline>
    <contour>
      <point x="277" y="512" type="move" name="top"/>
    </contour>
    <contour>
      <point x="518" y="409" type="line"/>
      <point x="546" y="481"/>
      <point x="508" y="522"/>
      <point x="463" y="522" type="curve" smooth="yes"/>
      <point x="444" y="522"/>
      <point x="426" y="516"/>
      <point x="412" y="506" type="curve"/>
      <point x="426" y="488"/>
      <point x="429" y="464"/>
      <point x="416" y="428" type="curve" smooth="yes"/>
      <point x="225" y="-107" type="line" smooth="yes"/>
      <point x="211" y="-146"/>
      <point x="188" y="-163"/>
      <point x="161" y="-163" type="curve" smooth="yes"/>
      <point x="141" y="-163"/>
      <point x="124" y="-156"/>
      <point x="111" y="-142" type="curve"/>
      <point x="102" y="-154"/>
      <point x="96" y="-169"/>
      <point x="96" y="-185" type="curve" smooth="yes"/>
      <point x="96" y="-222"/>
      <point x="126" y="-254"/>
      <point x="179" y="-254" type="curve" smooth="yes"/>
      <point x="235" y="-254"/>
      <point x="277" y="-223"/>
      <point x="308" y="-142" type="curve" smooth="yes"/>
    </contour>
    <contour>
      <point x="161" y="443" type="line"/>
      <point x="145" y="497"/>
      <point x="122" y="522"/>
      <point x="83" y="522" type="curve" smooth="yes"/>
      <point x="56" y="522"/>
      <point x="34" y="510"/>
      <point x="18" y="490" type="curve"/>
      <point x="37" y="479"/>
      <point x="44" y="460"/>
      <point x="53" y="433" type="curve" smooth="yes"/>
      <point x="178" y="61" type="line" smooth="yes"/>
      <point x="197" y="1"/>
      <point x="249" y="-27"/>
      <point x="300" y="3" type="curve"/>
    </contour>
  </outline>
</glyph>
<glyph name="z" format="1">
  <advance width="505"/>
  <unicode hex="007A"/>
  <outline>
    <contour>
      <point x="253" y="512" type="move" name="top"/>
    </contour>
    <contour>
      <point x="372" y="512" type="curve" smooth="yes"/>
      <point x="179" y="512" type="line" smooth="yes"/>
      <point x="137" y="512"/>
      <point x="104" y="516"/>
      <point x="79" y="524" type="curve"/>
      <point x="70" y="514"/>
      <point x="63" y="500"/>
      <point x="63" y="484" type="curve" smooth="yes"/>
      <point x="63" y="449"/>
      <point x="98" y="420"/>
      <point x="181" y="420" type="curve" smooth="yes"/>
      <point x="242" y="420"/>
      <point x="318" y="431"/>
      <point x="401" y="443" type="curve"/>
      <point x="383" y="455" type="line"/>
      <point x="108" y="207" type="line" smooth="yes"/>
      <point x="67" y="172"/>
      <point x="54" y="148"/>
      <point x="54" y="117" type="curve" smooth="yes"/>
      <point x="54" y="46"/>
      <point x="160" y="-9"/>
      <point x="286" y="-9" type="curve" smooth="yes"/>
      <point x="420" y="-9"/>
      <point x="465" y="49"/>
      <point x="465" y="89" type="curve" smooth="yes"/>
      <point x="465" y="115"/>
      <point x="453" y="136"/>
      <point x="431" y="148" type="curve"/>
      <point x="404" y="108"/>
      <point x="358" y="83"/>
      <point x="295" y="83" type="curve" smooth="yes"/>
      <point x="223" y="83"/>
      <point x="166" y="95"/>
      <point x="115" y="124" type="curve"/>
      <point x="98" y="86" type="line"/>
      <point x="420" y="366" type="line" smooth="yes"/>
      <point x="451" y="393"/>
      <point x="458" y="417"/>
      <point x="458" y="440" type="curve" smooth="yes"/>
      <point x="458" y="479"/>
      <point x="429" y="512"/>
    </contour>
  </outline>
</glyph>
<glyph name="braceleft" format="1">
  <advance width="444"/>
  <unicode hex="007B"/>
  <outline>
    <contour>
      <point x="348" y="905" type="curve"/>
      <point x="284" y="896"/>
      <point x="237" y="850"/>
      <point x="237" y="770" type="curve" smooth="yes"/>
      <point x="237" y="707"/>
      <point x="258" y="562"/>
      <point x="258" y="497" type="curve" smooth="yes"/>
      <point x="258" y="392"/>
      <point x="171" y="355"/>
      <point x="162" y="354" type="curve"/>
      <point x="172" y="352"/>
      <point x="258" y="316"/>
      <point x="258" y="212" type="curve" smooth="yes"/>
      <point x="258" y="145"/>
      <point x="237" y="-5"/>
      <point x="237" y="-69" type="curve" smooth="yes"/>
      <point x="237" y="-149"/>
      <point x="284" y="-194"/>
      <point x="348" y="-204" type="curve"/>
      <point x="334" y="-223"/>
      <point x="303" y="-233"/>
      <point x="278" y="-233" type="curve" smooth="yes"/>
      <point x="214" y="-233"/>
      <point x="135" y="-180"/>
      <point x="135" y="-44" type="curve" smooth="yes"/>
      <point x="135" y="33"/>
      <point x="156" y="137"/>
      <point x="156" y="215" type="curve" smooth="yes"/>
      <point x="156" y="323"/>
      <point x="83" y="326"/>
      <point x="83" y="355" type="curve" smooth="yes"/>
      <point x="83" y="384"/>
      <point x="156" y="385"/>
      <point x="156" y="494" type="curve" smooth="yes"/>
      <point x="156" y="570"/>
      <point x="135" y="672"/>
      <point x="135" y="744" type="curve" smooth="yes"/>
      <point x="135" y="881"/>
      <point x="214" y="934"/>
      <point x="278" y="934" type="curve" smooth="yes"/>
      <point x="303" y="934"/>
      <point x="334" y="924"/>
    </contour>
  </outline>
</glyph>
<glyph name="bar" format="1">
  <advance width="308"/>
  <unicode hex="007C"/>
  <outline>
    <contour>
      <point x="205" y="-105" type="line"/>
      <point x="205" y="-131"/>
      <point x="214" y="-145"/>
      <point x="232" y="-153" type="curve"/>
      <point x="218" y="-173"/>
      <point x="196" y="-188"/>
      <point x="168" y="-188" type="curve" smooth="yes"/>
      <point x="122" y="-188"/>
      <point x="100" y="-161"/>
      <point x="100" y="-104" type="curve" smooth="yes"/>
      <point x="100" y="837" type="line" smooth="yes"/>
      <point x="100" y="863"/>
      <point x="91" y="876"/>
      <point x="73" y="885" type="curve"/>
      <point x="86" y="905"/>
      <point x="108" y="919"/>
      <point x="136" y="919" type="curve" smooth="yes"/>
      <point x="182" y="919"/>
      <point x="205" y="892"/>
      <point x="205" y="836" type="curve" smooth="yes"/>
    </contour>
  </outline>
</glyph>
<glyph name="braceright" format="1">
  <advance width="444"/>
  <unicode hex="007D"/>
  <outline>
    <contour>
      <point x="295" y="744" type="curve" smooth="yes"/>
      <point x="295" y="881"/>
      <point x="217" y="934"/>
      <point x="153" y="934" type="curve" smooth="yes"/>
      <point x="128" y="934"/>
      <point x="97" y="924"/>
      <point x="83" y="905" type="curve"/>
      <point x="146" y="896"/>
      <point x="193" y="850"/>
      <point x="193" y="770" type="curve" smooth="yes"/>
      <point x="193" y="707"/>
      <point x="173" y="562"/>
      <point x="173" y="497" type="curve" smooth="yes"/>
      <point x="173" y="392"/>
      <point x="260" y="355"/>
      <point x="269" y="354" type="curve"/>
      <point x="259" y="352"/>
      <point x="173" y="316"/>
      <point x="173" y="212" type="curve" smooth="yes"/>
      <point x="173" y="145"/>
      <point x="193" y="-5"/>
      <point x="193" y="-69" type="curve" smooth="yes"/>
      <point x="193" y="-149"/>
      <point x="146" y="-194"/>
      <point x="83" y="-204" type="curve"/>
      <point x="97" y="-223"/>
      <point x="128" y="-233"/>
      <point x="153" y="-233" type="curve" smooth="yes"/>
      <point x="217" y="-233"/>
      <point x="295" y="-180"/>
      <point x="295" y="-44" type="curve" smooth="yes"/>
      <point x="295" y="33"/>
      <point x="274" y="137"/>
      <point x="274" y="215" type="curve" smooth="yes"/>
      <point x="274" y="323"/>
      <point x="348" y="326"/>
      <point x="348" y="355" type="curve" smooth="yes"/>
      <point x="348" y="384"/>
      <point x="274" y="385"/>
      <point x="274" y="494" type="curve" smooth="yes"/>
      <point x="274" y="570"/>
      <point x="295" y="672"/>
    </contour>
  </outline>
</glyph>
<glyph name="asciitilde" format="1">
  <advance width="709"/>
  <unicode hex="007E"/>
  <outline>
    <contour>
      <point x="582" y="448" type="curve"/>
      <point x="600" y="440"/>
      <point x="612" y="423"/>
      <point x="612" y="397" type="curve" smooth="yes"/>
      <point x="612" y="346"/>
      <point x="568" y="304"/>
      <point x="501" y="304" type="curve" smooth="yes"/>
      <point x="421" y="304"/>
      <point x="258" y="363"/>
      <point x="192" y="363" type="curve" smooth="yes"/>
      <point x="153" y="363"/>
      <point x="130" y="342"/>
      <point x="127" y="309" type="curve"/>
      <point x="109" y="314"/>
      <point x="97" y="332"/>
      <point x="97" y="359" type="curve" smooth="yes"/>
      <point x="97" y="411"/>
      <point x="141" y="453"/>
      <point x="208" y="453" type="curve" smooth="yes"/>
      <point x="285" y="453"/>
      <point x="450" y="393"/>
      <point x="518" y="393" type="curve" smooth="yes"/>
      <point x="556" y="393"/>
      <point x="579" y="414"/>
    </contour>
  </outline>
</glyph>
<glyph name="exclamdown" format="1">
  <advance width="334"/>
  <unicode hex="00A1"/>
  <outline>
    <contour>
      <point x="103" y="456" type="curve" smooth="yes"/>
      <point x="103" y="425"/>
      <point x="126" y="401"/>
      <point x="160" y="401" type="curve" smooth="yes"/>
      <point x="198" y="401"/>
      <point x="237" y="436"/>
      <point x="237" y="478" type="curve" smooth="yes"/>
      <point x="237" y="511"/>
      <point x="215" y="535"/>
      <point x="181" y="535" type="curve" smooth="yes"/>
      <point x="141" y="535"/>
      <point x="103" y="498"/>
    </contour>
    <contour>
      <point x="163" y="-253" type="curve" smooth="yes"/>
      <point x="204" y="-253"/>
      <point x="236" y="-214"/>
      <point x="227" y="-143" type="curve" smooth="yes"/>
      <point x="200" y="208" type="line" smooth="yes"/>
      <point x="194" y="258"/>
      <point x="196" y="288"/>
      <point x="203" y="314" type="curve"/>
      <point x="195" y="323"/>
      <point x="186" y="328"/>
      <point x="172" y="328" type="curve" smooth="yes"/>
      <point x="143" y="328"/>
      <point x="127" y="304"/>
      <point x="122" y="255" type="curve" smooth="yes"/>
      <point x="101" y="-143" type="line" smooth="yes"/>
      <point x="95" y="-215"/>
      <point x="124" y="-253"/>
    </contour>
  </outline>
</glyph>
<glyph name="cent" format="1">
  <advance width="500"/>
  <unicode hex="00A2"/>
  <outline>
    <contour>
      <point x="231" y="488" type="line"/>
      <point x="231" y="575" type="line" smooth="yes"/>
      <point x="231" y="601"/>
      <point x="222" y="615"/>
      <point x="203" y="623" type="curve"/>
      <point x="218" y="643"/>
      <point x="240" y="658"/>
      <point x="267" y="658" type="curve" smooth="yes"/>
      <point x="314" y="658"/>
      <point x="336" y="630"/>
      <point x="336" y="574" type="curve" smooth="yes"/>
      <point x="336" y="488" type="line"/>
    </contour>
    <contour>
      <point x="313" y="35" type="line"/>
      <point x="313" y="-63" type="line" smooth="yes"/>
      <point x="313" y="-89"/>
      <point x="322" y="-102"/>
      <point x="340" y="-111" type="curve"/>
      <point x="325" y="-131"/>
      <point x="304" y="-146"/>
      <point x="276" y="-146" type="curve" smooth="yes"/>
      <point x="229" y="-146"/>
      <point x="207" y="-118"/>
      <point x="207" y="-62" type="curve" smooth="yes"/>
      <point x="207" y="35" type="line"/>
    </contour>
    <component base="c"/>
  </outline>
</glyph>
<glyph name="sterling" format="1">
  <advance width="623"/>
  <unicode hex="00A3"/>
  <outline>
    <contour>
      <point x="545" y="624" type="curve" smooth="yes"/>
      <point x="545" y="675"/>
      <point x="496" y="731"/>
      <point x="394" y="731" type="curve" smooth="yes"/>
      <point x="293" y="731"/>
      <point x="181" y="648"/>
      <point x="181" y="507" type="curve" smooth="yes"/>
      <point x="181" y="460"/>
      <point x="183" y="432"/>
      <point x="184" y="405" type="curve"/>
      <point x="115" y="405" type="line" smooth="yes"/>
      <point x="94" y="405"/>
      <point x="41" y="405"/>
      <point x="41" y="355" type="curve" smooth="yes"/>
      <point x="41" y="348"/>
      <point x="44" y="340"/>
      <point x="45" y="337" type="curve"/>
      <point x="187" y="337" type="line"/>
      <point x="189" y="315"/>
      <point x="189" y="292"/>
      <point x="189" y="258" type="curve" smooth="yes"/>
      <point x="189" y="161"/>
      <point x="168" y="135"/>
      <point x="148" y="116" type="curve"/>
      <point x="90" y="104"/>
      <point x="60" y="64"/>
      <point x="60" y="28" type="curve" smooth="yes"/>
      <point x="60" y="13"/>
      <point x="63" y="2"/>
      <point x="70" y="-8" type="curve"/>
      <point x="103" y="19"/>
      <point x="141" y="26"/>
      <point x="179" y="26" type="curve" smooth="yes"/>
      <point x="275" y="26"/>
      <point x="372" y="-9"/>
      <point x="484" y="-9" type="curve" smooth="yes"/>
      <point x="563" y="-9"/>
      <point x="606" y="40"/>
      <point x="606" y="84" type="curve" smooth="yes"/>
      <point x="606" y="99"/>
      <point x="603" y="111"/>
      <point x="597" y="120" type="curve"/>
      <point x="563" y="91"/>
      <point x="527" y="83"/>
      <point x="491" y="83" type="curve" smooth="yes"/>
      <point x="403" y="83"/>
      <point x="327" y="111"/>
      <point x="243" y="119" type="curve"/>
      <point x="291" y="150"/>
      <point x="300" y="252"/>
      <point x="300" y="292" type="curve" smooth="yes"/>
      <point x="300" y="337" type="line"/>
      <point x="403" y="337" type="line" smooth="yes"/>
      <point x="424" y="337"/>
      <point x="477" y="337"/>
      <point x="477" y="389" type="curve" smooth="yes"/>
      <point x="477" y="394"/>
      <point x="476" y="402"/>
      <point x="474" y="405" type="curve"/>
      <point x="297" y="405" type="line"/>
      <point x="295" y="447"/>
      <point x="293" y="487"/>
      <point x="293" y="536" type="curve" smooth="yes"/>
      <point x="293" y="609"/>
      <point x="318" y="661"/>
      <point x="374" y="661" type="curve" smooth="yes"/>
      <point x="430" y="661"/>
      <point x="463" y="603"/>
      <point x="474" y="552" type="curve"/>
      <point x="517" y="557"/>
      <point x="545" y="585"/>
    </contour>
  </outline>
</glyph>
<glyph name="currency" format="1">
  <advance width="672"/>
  <unicode hex="00A4"/>
  <outline>
    <contour>
      <point x="337" y="505" type="curve" smooth="yes"/>
      <point x="222" y="505"/>
      <point x="124" y="436"/>
      <point x="124" y="295" type="curve" smooth="yes"/>
      <point x="124" y="154"/>
      <point x="222" y="84"/>
      <point x="337" y="84" type="curve" smooth="yes"/>
      <point x="451" y="84"/>
      <point x="548" y="154"/>
      <point x="548" y="295" type="curve" smooth="yes"/>
      <point x="548" y="435"/>
      <point x="451" y="505"/>
    </contour>
    <contour>
      <point x="325" y="448" type="curve" smooth="yes"/>
      <point x="395" y="448"/>
      <point x="450" y="406"/>
      <point x="459" y="295" type="curve" smooth="yes"/>
      <point x="468" y="183"/>
      <point x="417" y="141"/>
      <point x="347" y="141" type="curve" smooth="yes"/>
      <point x="277" y="141"/>
      <point x="222" y="183"/>
      <point x="214" y="295" type="curve" smooth="yes"/>
      <point x="206" y="406"/>
      <point x="255" y="448"/>
    </contour>
    <contour>
      <point x="173" y="387" type="line"/>
      <point x="233" y="446" type="line"/>
      <point x="187" y="494" type="line" smooth="yes"/>
      <point x="159" y="522"/>
      <point x="130" y="531"/>
      <point x="107" y="519" type="curve" smooth="yes"/>
      <point x="91" y="516"/>
      <point x="78" y="504"/>
      <point x="73" y="487" type="curve"/>
    </contour>
    <contour>
      <point x="485" y="494" type="curve"/>
      <point x="439" y="446" type="line"/>
      <point x="498" y="387" type="line"/>
      <point x="599" y="487" type="line"/>
      <point x="594" y="504"/>
      <point x="581" y="516"/>
      <point x="565" y="519" type="curve" smooth="yes"/>
      <point x="542" y="531"/>
      <point x="512" y="522"/>
    </contour>
    <contour>
      <point x="186" y="86" type="curve"/>
      <point x="230" y="130" type="line"/>
      <point x="170" y="189" type="line"/>
      <point x="73" y="93" type="line"/>
      <point x="77" y="77"/>
      <point x="91" y="64"/>
      <point x="107" y="62" type="curve" smooth="yes"/>
      <point x="130" y="50"/>
      <point x="158" y="58"/>
    </contour>
    <contour>
      <point x="501" y="189" type="line"/>
      <point x="441" y="130" type="line"/>
      <point x="486" y="86" type="line" smooth="yes"/>
      <point x="513" y="58"/>
      <point x="542" y="50"/>
      <point x="565" y="62" type="curve" smooth="yes"/>
      <point x="581" y="64"/>
      <point x="595" y="77"/>
      <point x="599" y="93" type="curve"/>
    </contour>
  </outline>
</glyph>
<glyph name="yen" format="1">
  <advance width="640"/>
  <unicode hex="00A5"/>
  <outline>
    <contour>
      <point x="555" y="227" type="curve" smooth="yes"/>
      <point x="555" y="233"/>
      <point x="553" y="240"/>
      <point x="551" y="244" type="curve"/>
      <point x="147" y="244" type="line" smooth="yes"/>
      <point x="114" y="244"/>
      <point x="68" y="237"/>
      <point x="68" y="193" type="curve" smooth="yes"/>
      <point x="68" y="186"/>
      <point x="70" y="179"/>
      <point x="72" y="176" type="curve"/>
      <point x="476" y="176" type="line" smooth="yes"/>
      <point x="509" y="176"/>
      <point x="555" y="183"/>
    </contour>
    <contour>
      <point x="298" y="321" type="line"/>
      <point x="271" y="389" type="line"/>
      <point x="147" y="389" type="line" smooth="yes"/>
      <point x="114" y="389"/>
      <point x="68" y="383"/>
      <point x="68" y="339" type="curve" smooth="yes"/>
      <point x="68" y="332"/>
      <point x="70" y="324"/>
      <point x="72" y="321" type="curve"/>
    </contour>
    <contour>
      <point x="358" y="389" type="line"/>
      <point x="325" y="321" type="line"/>
      <point x="476" y="321" type="line" smooth="yes"/>
      <point x="509" y="321"/>
      <point x="555" y="328"/>
      <point x="555" y="373" type="curve" smooth="yes"/>
      <point x="555" y="378"/>
      <point x="553" y="385"/>
      <point x="551" y="389" type="curve"/>
    </contour>
    <component base="Y"/>
  </outline>
</glyph>
<glyph name="brokenbar" format="1">
  <advance width="308"/>
  <unicode hex="00A6"/>
  <outline>
    <contour>
      <point x="206" y="526" type="curve"/>
      <point x="206" y="774" type="line" smooth="yes"/>
      <point x="206" y="830"/>
      <point x="184" y="858"/>
      <point x="138" y="858" type="curve" smooth="yes"/>
      <point x="110" y="858"/>
      <point x="88" y="843"/>
      <point x="74" y="823" type="curve"/>
      <point x="93" y="815"/>
      <point x="102" y="800"/>
      <point x="102" y="775" type="curve" smooth="yes"/>
      <point x="102" y="526" type="line" smooth="yes"/>
      <point x="102" y="470"/>
      <point x="123" y="443"/>
      <point x="170" y="443" type="curve" smooth="yes"/>
      <point x="198" y="443"/>
      <point x="219" y="457"/>
      <point x="233" y="477" type="curve"/>
      <point x="215" y="486"/>
      <point x="206" y="499"/>
    </contour>
    <contour>
      <point x="206" y="-9" type="curve"/>
      <point x="206" y="240" type="line" smooth="yes"/>
      <point x="206" y="296"/>
      <point x="184" y="323"/>
      <point x="138" y="323" type="curve" smooth="yes"/>
      <point x="110" y="323"/>
      <point x="88" y="308"/>
      <point x="74" y="288" type="curve"/>
      <point x="93" y="280"/>
      <point x="102" y="266"/>
      <point x="102" y="241" type="curve" smooth="yes"/>
      <point x="102" y="-8" type="line" smooth="yes"/>
      <point x="102" y="-65"/>
      <point x="123" y="-92"/>
      <point x="170" y="-92" type="curve" smooth="yes"/>
      <point x="198" y="-92"/>
      <point x="219" y="-77"/>
      <point x="233" y="-57" type="curve"/>
      <point x="215" y="-49"/>
      <point x="206" y="-35"/>
    </contour>
  </outline>
</glyph>
<glyph name="section" format="1">
  <advance width="661"/>
  <unicode hex="00A7"/>
  <outline>
    <contour>
      <point x="559" y="588" type="curve" smooth="yes"/>
      <point x="559" y="666"/>
      <point x="473" y="731"/>
      <point x="339" y="731" type="curve" smooth="yes"/>
      <point x="222" y="731"/>
      <point x="112" y="657"/>
      <point x="112" y="539" type="curve" smooth="yes"/>
      <point x="112" y="328"/>
      <point x="484" y="332"/>
      <point x="484" y="177" type="curve" smooth="yes"/>
      <point x="484" y="128"/>
      <point x="453" y="84"/>
      <point x="401" y="66" type="curve"/>
      <point x="417" y="58"/>
      <point x="435" y="54"/>
      <point x="453" y="54" type="curve" smooth="yes"/>
      <point x="513" y="54"/>
      <point x="579" y="113"/>
      <point x="579" y="196" type="curve" smooth="yes"/>
      <point x="579" y="406"/>
      <point x="207" y="421"/>
      <point x="207" y="562" type="curve" smooth="yes"/>
      <point x="207" y="626"/>
      <point x="255" y="659"/>
      <point x="330" y="659" type="curve" smooth="yes"/>
      <point x="415" y="659"/>
      <point x="455" y="609"/>
      <point x="455" y="568" type="curve" smooth="yes"/>
      <point x="455" y="558"/>
      <point x="453" y="547"/>
      <point x="450" y="536" type="curve"/>
      <point x="464" y="526"/>
      <point x="485" y="522"/>
      <point x="502" y="522" type="curve" smooth="yes"/>
      <point x="534" y="522"/>
      <point x="559" y="546"/>
    </contour>
    <contour>
      <point x="279" y="283" type="curve"/>
      <point x="264" y="290"/>
      <point x="247" y="294"/>
      <point x="231" y="294" type="curve" smooth="yes"/>
      <point x="169" y="294"/>
      <point x="112" y="240"/>
      <point x="112" y="153" type="curve" smooth="yes"/>
      <point x="112" y="-67"/>
      <point x="484" y="-71"/>
      <point x="484" y="-209" type="curve" smooth="yes"/>
      <point x="484" y="-274"/>
      <point x="419" y="-326"/>
      <point x="337" y="-326" type="curve" smooth="yes"/>
      <point x="247" y="-326"/>
      <point x="203" y="-283"/>
      <point x="203" y="-233" type="curve" smooth="yes"/>
      <point x="203" y="-210"/>
      <point x="213" y="-192"/>
      <point x="223" y="-179" type="curve"/>
      <point x="211" y="-162"/>
      <point x="192" y="-153"/>
      <point x="168" y="-153" type="curve" smooth="yes"/>
      <point x="131" y="-153"/>
      <point x="95" y="-182"/>
      <point x="95" y="-231" type="curve" smooth="yes"/>
      <point x="95" y="-330"/>
      <point x="199" y="-400"/>
      <point x="333" y="-400" type="curve" smooth="yes"/>
      <point x="466" y="-400"/>
      <point x="579" y="-312"/>
      <point x="579" y="-189" type="curve" smooth="yes"/>
      <point x="579" y="19"/>
      <point x="207" y="12"/>
      <point x="207" y="179" type="curve" smooth="yes"/>
      <point x="207" y="228"/>
      <point x="234" y="264"/>
    </contour>
  </outline>
</glyph>
<glyph name="dieresis" format="1">
  <advance width="315"/>
  <unicode hex="00A8"/>
  <outline>
    <contour>
      <point x="158" y="512" type="move" name="_top"/>
    </contour>
    <contour>
      <point x="136" y="656" type="curve" smooth="yes"/>
      <point x="136" y="686"/>
      <point x="115" y="709"/>
      <point x="84" y="709" type="curve" smooth="yes"/>
      <point x="48" y="709"/>
      <point x="12" y="674"/>
      <point x="12" y="637" type="curve" smooth="yes"/>
      <point x="12" y="607"/>
      <point x="33" y="584"/>
      <point x="64" y="584" type="curve" smooth="yes"/>
      <point x="102" y="584"/>
      <point x="136" y="619"/>
    </contour>
    <contour>
      <point x="303" y="656" type="curve" smooth="yes"/>
      <point x="303" y="686"/>
      <point x="282" y="709"/>
      <point x="252" y="709" type="curve" smooth="yes"/>
      <point x="215" y="709"/>
      <point x="179" y="674"/>
      <point x="179" y="637" type="curve" smooth="yes"/>
      <point x="179" y="607"/>
      <point x="200" y="584"/>
      <point x="231" y="584" type="curve" smooth="yes"/>
      <point x="269" y="584"/>
      <point x="303" y="619"/>
    </contour>
  </outline>
</glyph>
<glyph name="copyright" format="1">
  <advance width="869"/>
  <unicode hex="00A9"/>
  <outline>
    <contour>
      <point x="797" y="359" type="curve" smooth="yes"/>
      <point x="797" y="576"/>
      <point x="642" y="732"/>
      <point x="434" y="732" type="curve" smooth="yes"/>
      <point x="227" y="732"/>
      <point x="72" y="576"/>
      <point x="72" y="359" type="curve" smooth="yes"/>
      <point x="72" y="142"/>
      <point x="227" y="-9"/>
      <point x="434" y="-9" type="curve" smooth="yes"/>
      <point x="642" y="-9"/>
      <point x="797" y="142"/>
    </contour>
    <contour>
      <point x="126" y="359" type="curve" smooth="yes"/>
      <point x="126" y="538"/>
      <point x="243" y="687"/>
      <point x="434" y="687" type="curve" smooth="yes"/>
      <point x="627" y="687"/>
      <point x="742" y="538"/>
      <point x="742" y="359" type="curve" smooth="yes"/>
      <point x="742" y="180"/>
      <point x="624" y="35"/>
      <point x="434" y="35" type="curve" smooth="yes"/>
      <point x="242" y="35"/>
      <point x="126" y="180"/>
    </contour>
    <contour>
      <point x="598" y="506" type="curve" smooth="yes"/>
      <point x="598" y="564"/>
      <point x="535" y="606"/>
      <point x="457" y="606" type="curve" smooth="yes"/>
      <point x="325" y="606"/>
      <point x="229" y="484"/>
      <point x="229" y="347" type="curve" smooth="yes"/>
      <point x="229" y="216"/>
      <point x="312" y="126"/>
      <point x="434" y="126" type="curve" smooth="yes"/>
      <point x="527" y="126"/>
      <point x="596" y="186"/>
      <point x="596" y="231" type="curve" smooth="yes"/>
      <point x="596" y="246"/>
      <point x="589" y="256"/>
      <point x="581" y="259" type="curve"/>
      <point x="550" y="221"/>
      <point x="508" y="197"/>
      <point x="454" y="197" type="curve" smooth="yes"/>
      <point x="380" y="197"/>
      <point x="321" y="251"/>
      <point x="321" y="360" type="curve" smooth="yes"/>
      <point x="321" y="462"/>
      <point x="366" y="545"/>
      <point x="442" y="545" type="curve" smooth="yes"/>
      <point x="486" y="545"/>
      <point x="508" y="515"/>
      <point x="508" y="482" type="curve" smooth="yes"/>
      <point x="508" y="477"/>
      <point x="507" y="470"/>
      <point x="506" y="465" type="curve"/>
      <point x="517" y="458"/>
      <point x="530" y="455"/>
      <point x="544" y="455" type="curve" smooth="yes"/>
      <point x="574" y="455"/>
      <point x="598" y="474"/>
    </contour>
  </outline>
</glyph>
<glyph name="ordfeminine" format="1">
  <advance width="434"/>
  <unicode hex="00AA"/>
  <outline>
    <contour>
      <point x="365" y="599" type="line"/>
      <point x="365" y="687"/>
      <point x="305" y="733"/>
      <point x="216" y="733" type="curve" smooth="yes"/>
      <point x="132" y="733"/>
      <point x="58" y="692"/>
      <point x="58" y="638" type="curve" smooth="yes"/>
      <point x="58" y="608"/>
      <point x="79" y="588"/>
      <point x="113" y="588" type="curve" smooth="yes"/>
      <point x="130" y="588"/>
      <point x="148" y="594"/>
      <point x="161" y="605" type="curve"/>
      <point x="153" y="614"/>
      <point x="150" y="626"/>
      <point x="150" y="637" type="curve" smooth="yes"/>
      <point x="150" y="662"/>
      <point x="174" y="682"/>
      <point x="213" y="682" type="curve" smooth="yes"/>
      <point x="260" y="682"/>
      <point x="280" y="653"/>
      <point x="280" y="601" type="curve" smooth="yes"/>
      <point x="280" y="386" type="line" smooth="yes"/>
      <point x="280" y="331"/>
      <point x="303" y="305"/>
      <point x="343" y="305" type="curve" smooth="yes"/>
      <point x="372" y="305"/>
      <point x="393" y="321"/>
      <point x="405" y="341" type="curve"/>
      <point x="381" y="346"/>
      <point x="365" y="360"/>
      <point x="365" y="394" type="curve" smooth="yes"/>
    </contour>
    <contour>
      <point x="288" y="504" type="curve"/>
      <point x="288" y="544" type="line"/>
      <point x="122" y="542"/>
      <point x="40" y="487"/>
      <point x="40" y="408" type="curve" smooth="yes"/>
      <point x="40" y="342"/>
      <point x="90" y="305"/>
      <point x="157" y="305" type="curve" smooth="yes"/>
      <point x="221" y="305"/>
      <point x="269" y="340"/>
      <point x="297" y="388" type="curve"/>
      <point x="290" y="428" type="line"/>
      <point x="265" y="387"/>
      <point x="229" y="365"/>
      <point x="190" y="365" type="curve" smooth="yes"/>
      <point x="156" y="365"/>
      <point x="131" y="380"/>
      <point x="131" y="418" type="curve" smooth="yes"/>
      <point x="131" y="461"/>
      <point x="173" y="500"/>
    </contour>
  </outline>
</glyph>
<glyph name="guillemotleft" format="1">
  <advance width="605"/>
  <unicode hex="00AB"/>
  <outline>
    <contour>
      <point x="539" y="635" type="curve"/>
      <point x="451" y="528"/>
      <point x="404" y="458"/>
      <point x="404" y="404" type="curve" smooth="yes"/>
      <point x="404" y="351"/>
      <point x="451" y="280"/>
      <point x="539" y="175" type="curve"/>
      <point x="536" y="168"/>
      <point x="526" y="154"/>
      <point x="509" y="154" type="curve" smooth="yes"/>
      <point x="458" y="154"/>
      <point x="294" y="329"/>
      <point x="294" y="404" type="curve" smooth="yes"/>
      <point x="294" y="480"/>
      <point x="459" y="656"/>
      <point x="509" y="656" type="curve" smooth="yes"/>
      <point x="526" y="656"/>
      <point x="536" y="642"/>
    </contour>
    <contour>
      <point x="311" y="635" type="curve"/>
      <point x="222" y="528"/>
      <point x="175" y="458"/>
      <point x="175" y="404" type="curve" smooth="yes"/>
      <point x="175" y="351"/>
      <point x="222" y="280"/>
      <point x="311" y="175" type="curve"/>
      <point x="308" y="168"/>
      <point x="296" y="154"/>
      <point x="280" y="154" type="curve" smooth="yes"/>
      <point x="230" y="154"/>
      <point x="66" y="329"/>
      <point x="66" y="404" type="curve" smooth="yes"/>
      <point x="66" y="480"/>
      <point x="230" y="656"/>
      <point x="280" y="656" type="curve" smooth="yes"/>
      <point x="296" y="656"/>
      <point x="308" y="642"/>
    </contour>
  </outline>
</glyph>
<glyph name="logicalnot" format="1">
  <advance width="768"/>
  <unicode hex="00AC"/>
  <outline>
    <contour>
      <point x="679" y="406" type="line"/>
      <point x="679" y="458"/>
      <point x="656" y="479"/>
      <point x="594" y="479" type="curve" smooth="yes"/>
      <point x="138" y="479" type="line" smooth="yes"/>
      <point x="98" y="479"/>
      <point x="55" y="470"/>
      <point x="55" y="425" type="curve" smooth="yes"/>
      <point x="55" y="417"/>
      <point x="59" y="407"/>
      <point x="61" y="402" type="curve"/>
      <point x="547" y="402" type="line" smooth="yes"/>
      <point x="565" y="402"/>
      <point x="574" y="398"/>
      <point x="574" y="379" type="curve" smooth="yes"/>
      <point x="574" y="302" type="line" smooth="yes"/>
      <point x="574" y="246"/>
      <point x="595" y="218"/>
      <point x="642" y="218" type="curve" smooth="yes"/>
      <point x="670" y="218"/>
      <point x="692" y="233"/>
      <point x="706" y="253" type="curve"/>
      <point x="688" y="262"/>
      <point x="679" y="275"/>
      <point x="679" y="302" type="curve" smooth="yes"/>
    </contour>
  </outline>
</glyph>
<glyph name="registered" format="1">
  <advance width="676"/>
  <unicode hex="00AE"/>
  <outline>
    <contour>
      <point x="608" y="544" type="curve" smooth="yes"/>
      <point x="608" y="708"/>
      <point x="493" y="818"/>
      <point x="338" y="818" type="curve" smooth="yes"/>
      <point x="182" y="818"/>
      <point x="67" y="708"/>
      <point x="67" y="544" type="curve" smooth="yes"/>
      <point x="67" y="380"/>
      <point x="182" y="271"/>
      <point x="338" y="271" type="curve" smooth="yes"/>
      <point x="493" y="271"/>
      <point x="608" y="380"/>
    </contour>
    <contour>
      <point x="448" y="426" type="curve"/>
      <point x="368" y="534" type="line"/>
      <point x="303" y="530" type="line"/>
      <point x="383" y="414" type="line" smooth="yes"/>
      <point x="401" y="386"/>
      <point x="418" y="378"/>
      <point x="438" y="378" type="curve" smooth="yes"/>
      <point x="452" y="378"/>
      <point x="471" y="385"/>
      <point x="479" y="403" type="curve"/>
      <point x="468" y="406"/>
      <point x="456" y="414"/>
    </contour>
    <contour>
      <point x="465" y="618" type="curve" smooth="yes"/>
      <point x="465" y="680"/>
      <point x="410" y="719"/>
      <point x="335" y="719" type="curve" smooth="yes"/>
      <point x="258" y="719" type="line" smooth="yes"/>
      <point x="239" y="719"/>
      <point x="228" y="712"/>
      <point x="221" y="702" type="curve"/>
      <point x="228" y="697"/>
      <point x="232" y="690"/>
      <point x="232" y="680" type="curve" smooth="yes"/>
      <point x="232" y="417" type="line" smooth="yes"/>
      <point x="232" y="390"/>
      <point x="245" y="378"/>
      <point x="268" y="378" type="curve" smooth="yes"/>
      <point x="284" y="378"/>
      <point x="296" y="385"/>
      <point x="304" y="394" type="curve"/>
      <point x="295" y="398"/>
      <point x="291" y="404"/>
      <point x="291" y="417" type="curve" smooth="yes"/>
      <point x="291" y="517" type="line"/>
      <point x="335" y="517" type="line" smooth="yes"/>
      <point x="410" y="517"/>
      <point x="465" y="555"/>
    </contour>
    <contour>
      <point x="292" y="677" type="line"/>
      <point x="330" y="677" type="line" smooth="yes"/>
      <point x="375" y="677"/>
      <point x="402" y="658"/>
      <point x="402" y="618" type="curve" smooth="yes"/>
      <point x="402" y="578"/>
      <point x="375" y="559"/>
      <point x="330" y="559" type="curve" smooth="yes"/>
      <point x="292" y="559" type="line"/>
    </contour>
    <contour>
      <point x="109" y="545" type="curve" smooth="yes"/>
      <point x="109" y="672"/>
      <point x="197" y="781"/>
      <point x="339" y="781" type="curve" smooth="yes"/>
      <point x="481" y="781"/>
      <point x="566" y="674"/>
      <point x="566" y="545" type="curve" smooth="yes"/>
      <point x="566" y="415"/>
      <point x="479" y="307"/>
      <point x="338" y="307" type="curve" smooth="yes"/>
      <point x="196" y="307"/>
      <point x="109" y="415"/>
    </contour>
  </outline>
</glyph>
<glyph name="macron" format="1">
  <advance width="377"/>
  <unicode hex="00AF"/>
  <outline>
    <contour>
      <point x="188" y="512" type="move" name="_top"/>
    </contour>
    <contour>
      <point x="359" y="670" type="line"/>
      <point x="362" y="666"/>
      <point x="365" y="660"/>
      <point x="365" y="651" type="curve" smooth="yes"/>
      <point x="365" y="625"/>
      <point x="341" y="608"/>
      <point x="306" y="608" type="curve" smooth="yes"/>
      <point x="18" y="608" type="line"/>
      <point x="15" y="612"/>
      <point x="12" y="619"/>
      <point x="12" y="627" type="curve" smooth="yes"/>
      <point x="12" y="654"/>
      <point x="35" y="670"/>
      <point x="71" y="670" type="curve" smooth="yes"/>
    </contour>
  </outline>
</glyph>
<glyph name="degree" format="1">
  <advance width="456"/>
  <unicode hex="00B0"/>
  <outline>
    <contour>
      <point x="229" y="853" type="curve" smooth="yes"/>
      <point x="137" y="853"/>
      <point x="68" y="790"/>
      <point x="68" y="699" type="curve" smooth="yes"/>
      <point x="68" y="607"/>
      <point x="135" y="544"/>
      <point x="227" y="544" type="curve" smooth="yes"/>
      <point x="320" y="544"/>
      <point x="388" y="608"/>
      <point x="388" y="700" type="curve" smooth="yes"/>
      <point x="388" y="791"/>
      <point x="321" y="853"/>
    </contour>
    <contour>
      <point x="229" y="611" type="curve" smooth="yes"/>
      <point x="178" y="611"/>
      <point x="143" y="649"/>
      <point x="143" y="700" type="curve" smooth="yes"/>
      <point x="143" y="751"/>
      <point x="176" y="787"/>
      <point x="227" y="787" type="curve" smooth="yes"/>
      <point x="278" y="787"/>
      <point x="312" y="750"/>
      <point x="312" y="699" type="curve" smooth="yes"/>
      <point x="312" y="648"/>
      <point x="279" y="611"/>
    </contour>
  </outline>
</glyph>
<glyph name="plusminus" format="1">
  <advance width="718"/>
  <unicode hex="00B1"/>
  <outline>
    <contour>
      <point x="169" y="82" type="line"/>
      <point x="142" y="82"/>
      <point x="74" y="82"/>
      <point x="74" y="17" type="curve" smooth="yes"/>
      <point x="74" y="9"/>
      <point x="78" y="-1"/>
      <point x="80" y="-6" type="curve"/>
      <point x="550" y="-6" type="line" smooth="yes"/>
      <point x="577" y="-6"/>
      <point x="645" y="-6"/>
      <point x="645" y="61" type="curve" smooth="yes"/>
      <point x="645" y="68"/>
      <point x="644" y="76"/>
      <point x="641" y="82" type="curve"/>
    </contour>
    <contour>
      <point x="403" y="629" type="line"/>
      <point x="398" y="632"/>
      <point x="388" y="635"/>
      <point x="379" y="635" type="curve" smooth="yes"/>
      <point x="319" y="635"/>
      <point x="314" y="577"/>
      <point x="314" y="547" type="curve" smooth="yes"/>
      <point x="316" y="520"/>
      <point x="317" y="493"/>
      <point x="319" y="435" type="curve"/>
      <point x="242" y="437"/>
      <point x="205" y="437"/>
      <point x="169" y="439" type="curve" smooth="yes"/>
      <point x="139" y="439"/>
      <point x="79" y="435"/>
      <point x="79" y="375" type="curve" smooth="yes"/>
      <point x="79" y="366"/>
      <point x="82" y="355"/>
      <point x="85" y="351" type="curve"/>
      <point x="321" y="354" type="line"/>
      <point x="317" y="147" type="line"/>
      <point x="321" y="145"/>
      <point x="330" y="143"/>
      <point x="337" y="143" type="curve" smooth="yes"/>
      <point x="395" y="143"/>
      <point x="403" y="198"/>
      <point x="403" y="233" type="curve"/>
      <point x="403" y="263"/>
      <point x="401" y="293"/>
      <point x="400" y="354" type="curve"/>
      <point x="476" y="352"/>
      <point x="513" y="352"/>
      <point x="549" y="351" type="curve" smooth="yes"/>
      <point x="579" y="351"/>
      <point x="640" y="354"/>
      <point x="640" y="417" type="curve" smooth="yes"/>
      <point x="640" y="424"/>
      <point x="638" y="434"/>
      <point x="635" y="439" type="curve"/>
      <point x="400" y="435" type="line"/>
    </contour>
  </outline>
</glyph>
<glyph name="twosuperior" format="1">
  <advance width="393"/>
  <unicode hex="00B2"/>
  <outline>
    <contour>
      <point x="333" y="611" type="curve" smooth="yes"/>
      <point x="333" y="682"/>
      <point x="273" y="734"/>
      <point x="186" y="734" type="curve" smooth="yes"/>
      <point x="104" y="734"/>
      <point x="39" y="688"/>
      <point x="39" y="636" type="curve" smooth="yes"/>
      <point x="39" y="603"/>
      <point x="67" y="582"/>
      <point x="99" y="582" type="curve" smooth="yes"/>
      <point x="122" y="582"/>
      <point x="137" y="591"/>
      <point x="147" y="604" type="curve"/>
      <point x="130" y="612"/>
      <point x="120" y="624"/>
      <point x="120" y="640" type="curve" smooth="yes"/>
      <point x="120" y="669"/>
      <point x="144" y="689"/>
      <point x="183" y="689" type="curve" smooth="yes"/>
      <point x="225" y="689"/>
      <point x="252" y="665"/>
      <point x="252" y="614" type="curve" smooth="yes"/>
      <point x="252" y="532"/>
      <point x="170" y="459"/>
      <point x="39" y="360" type="curve"/>
      <point x="32" y="331"/>
      <point x="53" y="309"/>
      <point x="90" y="309" type="curve" smooth="yes"/>
      <point x="266" y="309" type="line" smooth="yes"/>
      <point x="299" y="309"/>
      <point x="322" y="307"/>
      <point x="341" y="301" type="curve"/>
      <point x="348" y="308"/>
      <point x="356" y="318"/>
      <point x="356" y="329" type="curve" smooth="yes"/>
      <point x="356" y="351"/>
      <point x="339" y="372"/>
      <point x="268" y="372" type="curve" smooth="yes"/>
      <point x="207" y="372"/>
      <point x="146" y="370"/>
      <point x="67" y="359" type="curve"/>
      <point x="85" y="346" type="line"/>
      <point x="247" y="445"/>
      <point x="333" y="523"/>
    </contour>
  </outline>
</glyph>
<glyph name="threesuperior" format="1">
  <advance width="390"/>
  <unicode hex="00B3"/>
  <outline>
    <contour>
      <point x="327" y="644" type="curve" smooth="yes"/>
      <point x="327" y="601"/>
      <point x="281" y="564"/>
      <point x="224" y="550" type="curve"/>
      <point x="294" y="540"/>
      <point x="349" y="495"/>
      <point x="349" y="434" type="curve" smooth="yes"/>
      <point x="349" y="360"/>
      <point x="263" y="306"/>
      <point x="181" y="306" type="curve" smooth="yes"/>
      <point x="110" y="306"/>
      <point x="41" y="339"/>
      <point x="41" y="386" type="curve" smooth="yes"/>
      <point x="41" y="412"/>
      <point x="65" y="429"/>
      <point x="79" y="431" type="curve"/>
      <point x="102" y="383"/>
      <point x="147" y="366"/>
      <point x="199" y="366" type="curve" smooth="yes"/>
      <point x="242" y="366"/>
      <point x="273" y="387"/>
      <point x="273" y="425" type="curve" smooth="yes"/>
      <point x="273" y="476"/>
      <point x="229" y="509"/>
      <point x="154" y="509" type="curve" smooth="yes"/>
      <point x="142" y="509"/>
      <point x="128" y="507"/>
      <point x="117" y="505" type="curve"/>
      <point x="111" y="508"/>
      <point x="109" y="514"/>
      <point x="109" y="519" type="curve" smooth="yes"/>
      <point x="109" y="561"/>
      <point x="247" y="568"/>
      <point x="247" y="626" type="curve" smooth="yes"/>
      <point x="247" y="659"/>
      <point x="213" y="674"/>
      <point x="178" y="674" type="curve" smooth="yes"/>
      <point x="145" y="674"/>
      <point x="119" y="664"/>
      <point x="93" y="647" type="curve"/>
      <point x="83" y="649"/>
      <point x="76" y="661"/>
      <point x="76" y="671" type="curve" smooth="yes"/>
      <point x="76" y="696"/>
      <point x="134" y="731"/>
      <point x="204" y="731" type="curve" smooth="yes"/>
      <point x="274" y="731"/>
      <point x="327" y="697"/>
    </contour>
  </outline>
</glyph>
<glyph name="acute" format="1">
  <advance width="255"/>
  <unicode hex="00B4"/>
  <outline>
    <contour>
      <point x="66" y="512" type="move" name="_top"/>
    </contour>
    <contour>
      <point x="76" y="583" type="line"/>
      <point x="48" y="560"/>
      <point x="22" y="567"/>
      <point x="13" y="588" type="curve"/>
      <point x="99" y="700" type="line" smooth="yes"/>
      <point x="132" y="745"/>
      <point x="156" y="761"/>
      <point x="191" y="759" type="curve" smooth="yes"/>
      <point x="235" y="756"/>
      <point x="256" y="717"/>
      <point x="238" y="671" type="curve"/>
      <point x="217" y="680"/>
      <point x="198" y="678"/>
      <point x="174" y="660" type="curve" smooth="yes"/>
    </contour>
  </outline>
</glyph>
<glyph name="paragraph" format="1">
  <advance width="675"/>
  <unicode hex="00B6"/>
  <outline>
    <contour>
      <point x="541" y="723" type="line"/>
      <point x="532" y="687"/>
      <point x="530" y="649"/>
      <point x="530" y="608" type="curve" smooth="yes"/>
      <point x="530" y="0" type="line"/>
      <point x="522" y="-2"/>
      <point x="513" y="-4"/>
      <point x="504" y="-4" type="curve" smooth="yes"/>
      <point x="477" y="-4"/>
      <point x="452" y="10"/>
      <point x="452" y="55" type="curve" smooth="yes"/>
      <point x="452" y="581" type="line" smooth="yes"/>
      <point x="452" y="607"/>
      <point x="454" y="628"/>
      <point x="457" y="649" type="curve"/>
      <point x="401" y="649" type="line" smooth="yes"/>
      <point x="374" y="649"/>
      <point x="363" y="636"/>
      <point x="363" y="608" type="curve" smooth="yes"/>
      <point x="363" y="0" type="line"/>
      <point x="354" y="-2"/>
      <point x="345" y="-4"/>
      <point x="336" y="-4" type="curve" smooth="yes"/>
      <point x="310" y="-4"/>
      <point x="285" y="10"/>
      <point x="285" y="55" type="curve" smooth="yes"/>
      <point x="285" y="276" type="line"/>
      <point x="253" y="276" type="line" smooth="yes"/>
      <point x="127" y="276"/>
      <point x="55" y="372"/>
      <point x="55" y="498" type="curve" smooth="yes"/>
      <point x="55" y="628"/>
      <point x="127" y="723"/>
      <point x="253" y="723" type="curve" smooth="yes"/>
    </contour>
  </outline>
</glyph>
<glyph name="periodcentered" format="1">
  <advance width="404"/>
  <unicode hex="00B7"/>
  <outline>
    <contour>
      <point x="276" y="353" type="curve" smooth="yes"/>
      <point x="276" y="389"/>
      <point x="251" y="415"/>
      <point x="214" y="415" type="curve" smooth="yes"/>
      <point x="171" y="415"/>
      <point x="128" y="374"/>
      <point x="128" y="329" type="curve" smooth="yes"/>
      <point x="128" y="295"/>
      <point x="153" y="268"/>
      <point x="190" y="268" type="curve" smooth="yes"/>
      <point x="235" y="268"/>
      <point x="276" y="308"/>
    </contour>
  </outline>
</glyph>
<glyph name="cedilla" format="1">
  <advance width="344"/>
  <unicode hex="00B8"/>
  <outline>
    <contour>
      <point x="182" y="0" type="move" name="_bottom"/>
    </contour>
    <contour>
      <point x="155" y="-196" type="curve" smooth="yes"/>
      <point x="104" y="-196"/>
      <point x="60" y="-177"/>
      <point x="31" y="-141" type="curve"/>
      <point x="21" y="-148"/>
      <point x="15" y="-159"/>
      <point x="15" y="-171" type="curve" smooth="yes"/>
      <point x="15" y="-210"/>
      <point x="77" y="-253"/>
      <point x="167" y="-253" type="curve" smooth="yes"/>
      <point x="263" y="-253"/>
      <point x="327" y="-206"/>
      <point x="327" y="-148" type="curve" smooth="yes"/>
      <point x="327" y="-93"/>
      <point x="276" y="-66"/>
      <point x="213" y="-66" type="curve" smooth="yes"/>
      <point x="190" y="-66"/>
      <point x="171" y="-70"/>
      <point x="148" y="-77" type="curve"/>
      <point x="196" y="-88" type="line"/>
      <point x="221" y="23" type="line"/>
      <point x="151" y="23" type="line"/>
      <point x="130" y="-70" type="line" smooth="yes"/>
      <point x="124" y="-97"/>
      <point x="131" y="-107"/>
      <point x="153" y="-107" type="curve" smooth="yes"/>
      <point x="169" y="-107" type="line" smooth="yes"/>
      <point x="212" y="-107"/>
      <point x="232" y="-123"/>
      <point x="232" y="-148" type="curve" smooth="yes"/>
      <point x="232" y="-178"/>
      <point x="206" y="-196"/>
    </contour>
  </outline>
</glyph>
<glyph name="onesuperior" format="1">
  <advance width="201"/>
  <unicode hex="00B9"/>
  <outline>
    <contour>
      <point x="163" y="350" type="line"/>
      <point x="163" y="335"/>
      <point x="168" y="326"/>
      <point x="180" y="322" type="curve"/>
      <point x="170" y="310"/>
      <point x="156" y="302"/>
      <point x="138" y="302" type="curve" smooth="yes"/>
      <point x="109" y="302"/>
      <point x="94" y="318"/>
      <point x="94" y="351" type="curve" smooth="yes"/>
      <point x="94" y="663" type="line" smooth="yes"/>
      <point x="94" y="675"/>
      <point x="87" y="682"/>
      <point x="73" y="682" type="curve" smooth="yes"/>
      <point x="58" y="682"/>
      <point x="42" y="676"/>
      <point x="27" y="668" type="curve"/>
      <point x="21" y="669"/>
      <point x="17" y="675"/>
      <point x="17" y="682" type="curve" smooth="yes"/>
      <point x="17" y="702"/>
      <point x="56" y="731"/>
      <point x="105" y="731" type="curve" smooth="yes"/>
      <point x="143" y="731"/>
      <point x="163" y="709"/>
      <point x="163" y="677" type="curve" smooth="yes"/>
    </contour>
  </outline>
</glyph>
<glyph name="ordmasculine" format="1">
  <advance width="430"/>
  <unicode hex="00BA"/>
  <outline>
    <contour>
      <point x="37" y="519" type="curve" smooth="yes"/>
      <point x="37" y="399"/>
      <point x="100" y="306"/>
      <point x="218" y="306" type="curve" smooth="yes"/>
      <point x="335" y="306"/>
      <point x="398" y="399"/>
      <point x="398" y="519" type="curve" smooth="yes"/>
      <point x="398" y="645"/>
      <point x="335" y="732"/>
      <point x="218" y="732" type="curve" smooth="yes"/>
      <point x="100" y="732"/>
      <point x="37" y="645"/>
    </contour>
    <contour>
      <point x="213" y="685" type="curve" smooth="yes"/>
      <point x="273" y="685"/>
      <point x="311" y="632"/>
      <point x="313" y="525" type="curve" smooth="yes"/>
      <point x="317" y="419"/>
      <point x="283" y="354"/>
      <point x="222" y="354" type="curve" smooth="yes"/>
      <point x="163" y="354"/>
      <point x="126" y="407"/>
      <point x="123" y="512" type="curve" smooth="yes"/>
      <point x="119" y="619"/>
      <point x="154" y="685"/>
    </contour>
  </outline>
</glyph>
<glyph name="guillemotright" format="1">
  <advance width="605"/>
  <unicode hex="00BB"/>
  <outline>
    <contour>
      <point x="306" y="284" type="curve" smooth="yes"/>
      <point x="306" y="360"/>
      <point x="141" y="536"/>
      <point x="91" y="536" type="curve" smooth="yes"/>
      <point x="76" y="536"/>
      <point x="63" y="522"/>
      <point x="61" y="515" type="curve"/>
      <point x="150" y="409"/>
      <point x="196" y="338"/>
      <point x="196" y="284" type="curve" smooth="yes"/>
      <point x="196" y="231"/>
      <point x="150" y="160"/>
      <point x="61" y="55" type="curve"/>
      <point x="63" y="48"/>
      <point x="76" y="34"/>
      <point x="91" y="34" type="curve" smooth="yes"/>
      <point x="142" y="34"/>
      <point x="306" y="210"/>
    </contour>
    <contour>
      <point x="535" y="284" type="curve" smooth="yes"/>
      <point x="535" y="360"/>
      <point x="370" y="536"/>
      <point x="320" y="536" type="curve" smooth="yes"/>
      <point x="305" y="536"/>
      <point x="292" y="522"/>
      <point x="290" y="515" type="curve"/>
      <point x="379" y="409"/>
      <point x="425" y="338"/>
      <point x="425" y="284" type="curve" smooth="yes"/>
      <point x="425" y="231"/>
      <point x="379" y="160"/>
      <point x="290" y="55" type="curve"/>
      <point x="292" y="48"/>
      <point x="305" y="34"/>
      <point x="320" y="34" type="curve" smooth="yes"/>
      <point x="371" y="34"/>
      <point x="535" y="210"/>
    </contour>
  </outline>
</glyph>
<glyph name="onequarter" format="1">
  <advance width="671"/>
  <unicode hex="00BC"/>
  <outline>
    <contour>
      <point x="584" y="383" type="line"/>
      <point x="584" y="415"/>
      <point x="566" y="429"/>
      <point x="542" y="429" type="curve" smooth="yes"/>
      <point x="469" y="429"/>
      <point x="326" y="218"/>
      <point x="326" y="141" type="curve" smooth="yes"/>
      <point x="326" y="115"/>
      <point x="344" y="99"/>
      <point x="383" y="99" type="curve" smooth="yes"/>
      <point x="604" y="99" type="line" smooth="yes"/>
      <point x="635" y="99"/>
      <point x="655" y="115"/>
      <point x="655" y="134" type="curve" smooth="yes"/>
      <point x="655" y="144"/>
      <point x="650" y="152"/>
      <point x="644" y="157" type="curve"/>
      <point x="633" y="148"/>
      <point x="613" y="146"/>
      <point x="602" y="146" type="curve" smooth="yes"/>
      <point x="407" y="146" type="line" smooth="yes"/>
      <point x="393" y="146"/>
      <point x="387" y="150"/>
      <point x="387" y="160" type="curve" smooth="yes"/>
      <point x="387" y="210"/>
      <point x="484" y="344"/>
      <point x="506" y="344" type="curve" smooth="yes"/>
      <point x="511" y="344"/>
      <point x="513" y="340"/>
      <point x="513" y="334" type="curve" smooth="yes"/>
      <point x="513" y="44" type="line" smooth="yes"/>
      <point x="513" y="11"/>
      <point x="528" y="-5"/>
      <point x="559" y="-5" type="curve" smooth="yes"/>
      <point x="578" y="-5"/>
      <point x="592" y="3"/>
      <point x="603" y="15" type="curve"/>
      <point x="590" y="20"/>
      <point x="584" y="28"/>
      <point x="584" y="44" type="curve" smooth="yes"/>
    </contour>
    <contour>
      <point x="527" y="731" type="curve" smooth="yes"/>
      <point x="509" y="731"/>
      <point x="496" y="709"/>
      <point x="490" y="701" type="curve" smooth="yes"/>
      <point x="98" y="40" type="line" smooth="yes"/>
      <point x="92" y="29"/>
      <point x="82" y="15"/>
      <point x="77" y="10" type="curve"/>
      <point x="87" y="-7"/>
      <point x="100" y="-8"/>
      <point x="108" y="-8" type="curve" smooth="yes"/>
      <point x="125" y="-8"/>
      <point x="133" y="6"/>
      <point x="144" y="24" type="curve" smooth="yes"/>
      <point x="536" y="683" type="line" smooth="yes"/>
      <point x="543" y="694"/>
      <point x="549" y="709"/>
      <point x="557" y="713" type="curve"/>
      <point x="547" y="729"/>
      <point x="535" y="731"/>
    </contour>
    <contour>
      <point x="178" y="348" type="curve"/>
      <point x="178" y="676" type="line" smooth="yes"/>
      <point x="178" y="709"/>
      <point x="158" y="731"/>
      <point x="118" y="731" type="curve" smooth="yes"/>
      <point x="69" y="731"/>
      <point x="34" y="701"/>
      <point x="34" y="681" type="curve" smooth="yes"/>
      <point x="34" y="674"/>
      <point x="38" y="669"/>
      <point x="45" y="666" type="curve"/>
      <point x="61" y="676"/>
      <point x="70" y="681"/>
      <point x="86" y="681" type="curve" smooth="yes"/>
      <point x="101" y="681"/>
      <point x="108" y="674"/>
      <point x="108" y="661" type="curve" smooth="yes"/>
      <point x="108" y="349" type="line" smooth="yes"/>
      <point x="108" y="316"/>
      <point x="123" y="299"/>
      <point x="154" y="299" type="curve" smooth="yes"/>
      <point x="172" y="299"/>
      <point x="186" y="307"/>
      <point x="196" y="320" type="curve"/>
      <point x="184" y="325"/>
      <point x="178" y="332"/>
    </contour>
  </outline>
</glyph>
